<svg width="390" height="463" viewBox="0 0 390 463" fill="none" xmlns="http://www.w3.org/2000/svg">
<path d="M445 345.4H-55V345.65H445V345.4Z" fill="#E6E6E6"/>
<path d="M23.22 356.56H-3.35001V356.81H23.22V356.56Z" fill="#E6E6E6"/>
<path d="M32.83 351.56H9.92999V351.81H32.83V351.56Z" fill="#E6E6E6"/>
<path d="M270.41 352.3H208.96V352.55H270.41V352.3Z" fill="#E6E6E6"/>
<path d="M290.91 352.3H276.17V352.55H290.91V352.3Z" fill="#E6E6E6"/>
<path d="M374.72 354.01H326.06V354.26H374.72V354.01Z" fill="#E6E6E6"/>
<path d="M138.17 358H51.54V358.25H138.17V358Z" fill="#E6E6E6"/>
<path d="M390.59 354.01H383.5V354.26H390.59V354.01Z" fill="#E6E6E6"/>
<path d="M182 300.8H-11.09C-12.6027 300.797 -14.0525 300.195 -15.1211 299.124C-16.1898 298.053 -16.79 296.603 -16.79 295.09V23.66C-16.7768 22.156 -16.1708 20.718 -15.1036 19.6582C-14.0363 18.5985 -12.594 18.0026 -11.09 18H182C183.514 18 184.967 18.6016 186.038 19.6724C187.108 20.7433 187.71 22.1956 187.71 23.71V295.09C187.71 296.604 187.108 298.057 186.038 299.128C184.967 300.198 183.514 300.8 182 300.8ZM-11.09 18.2C-12.5364 18.2026 -13.9226 18.7791 -14.9443 19.8027C-15.9661 20.8264 -16.54 22.2136 -16.54 23.66V295.09C-16.54 296.536 -15.9661 297.924 -14.9443 298.947C-13.9226 299.971 -12.5364 300.547 -11.09 300.55H182C183.447 300.547 184.835 299.971 185.858 298.948C186.881 297.924 187.457 296.537 187.46 295.09V23.66C187.457 22.2127 186.881 20.8255 185.858 19.8021C184.835 18.7787 183.447 18.2026 182 18.2H-11.09Z" fill="#E6E6E6"/>
<path d="M398.31 300.8H205.21C203.696 300.797 202.246 300.195 201.175 299.125C200.105 298.054 199.503 296.604 199.5 295.09V23.66C199.516 22.1551 200.124 20.7171 201.193 19.6576C202.262 18.5981 203.705 18.0025 205.21 18H398.31C399.812 18.0052 401.252 18.6022 402.317 19.6617C403.382 20.7212 403.987 22.1578 404 23.66V295.09C404 296.601 403.401 298.05 402.335 299.121C401.268 300.191 399.821 300.795 398.31 300.8ZM205.21 18.2C203.763 18.2026 202.375 18.7787 201.352 19.8021C200.329 20.8255 199.753 22.2127 199.75 23.66V295.09C199.753 296.537 200.329 297.924 201.352 298.948C202.375 299.971 203.763 300.547 205.21 300.55H398.31C399.757 300.547 401.145 299.971 402.168 298.948C403.191 297.924 403.767 296.537 403.77 295.09V23.66C403.767 22.2127 403.191 20.8255 402.168 19.8021C401.145 18.7787 399.757 18.2026 398.31 18.2H205.21Z" fill="#E6E6E6"/>
<path d="M98.4287 173.422C101.212 161.346 93.6789 149.299 81.6023 146.516C69.5257 143.732 57.4791 151.265 54.6954 163.342C51.9118 175.418 59.4452 187.465 71.5218 190.249C83.5984 193.032 95.645 185.499 98.4287 173.422Z" fill="#F0F0F0"/>
<path d="M229.58 163.74C226.79 157.74 229.01 153.39 235.85 153.39C240.13 153.39 245.45 155.09 250.63 157.84C251.22 156.27 252.86 155.33 255.51 155.33C260.18 155.33 266.61 158.24 271.65 162.33C273.205 161.289 275.039 160.742 276.91 160.76C281.38 160.58 286.78 162.25 291.48 164.97C291.756 164.709 292.081 164.505 292.436 164.371C292.792 164.237 293.17 164.176 293.55 164.19C295.04 164.24 296.502 164.601 297.844 165.251C299.186 165.9 300.376 166.823 301.34 167.96C301.45 168.09 301.54 168.23 301.64 168.36H226.11C223.72 166.23 226.36 163.85 229.58 163.74Z" fill="#F5F5F5"/>
<path d="M82.44 210.17L144.32 196V345.4H82.44V210.17Z" fill="#FAFAFA"/>
<path d="M176.43 196H144.32V345.4H176.43V196Z" fill="#EBEBEB"/>
<path d="M165.94 345.4H218.61L218.61 160.27H165.94L165.94 345.4Z" fill="#FAFAFA"/>
<path d="M245.94 160.27H218.61V345.4H245.94V160.27Z" fill="#EBEBEB"/>
<path d="M173.03 160.27H218.61V146.51H173.03V160.27Z" fill="#FAFAFA"/>
<path d="M173.03 160.27H218.61V157.18H173.03V160.27Z" fill="#EBEBEB"/>
<path d="M238.86 146.51H218.61V160.27H238.86V146.51Z" fill="#EBEBEB"/>
<path d="M180.11 146.51H218.6V132.75H180.11V146.51Z" fill="#FAFAFA"/>
<path d="M180.11 146.51H218.6V143.42H180.11V146.51Z" fill="#EBEBEB"/>
<path d="M231.77 132.76H218.61V146.52H231.77V132.76Z" fill="#EBEBEB"/>
<path d="M207.22 113.54H204.66V132.76H207.22V113.54Z" fill="#EBEBEB"/>
<path d="M237.21 345.4H275.67V184.33H237.21L237.21 345.4Z" fill="#FAFAFA"/>
<path d="M295.64 184.33H275.68V345.4H295.64V184.33Z" fill="#EBEBEB"/>
<path d="M285.66 217L314.82 242V345.4H285.66V217Z" fill="#FAFAFA"/>
<path d="M329.96 242H314.82V345.4H329.96V242Z" fill="#EBEBEB"/>
<path d="M329.96 242H314.82L285.66 217H300.79L329.96 242Z" fill="#EBEBEB"/>
<path d="M384.9 345.4C385.329 342.998 386.35 340.74 387.871 338.832C389.392 336.924 391.364 335.424 393.61 334.47C391.638 337.757 390.743 341.579 391.05 345.4H384.9Z" fill="#EBEBEB"/>
<path d="M131.3 345.4C130.871 342.998 129.85 340.74 128.329 338.832C126.808 336.924 124.836 335.424 122.59 334.47C124.562 337.757 125.457 341.579 125.15 345.4H131.3Z" fill="#EBEBEB"/>
<path d="M3.87 345.4C3.87 345.4 3.38 332.6 -1.97 328.88C0.219999 334.11 -0.25 345.4 -0.25 345.4H3.87Z" fill="#EBEBEB"/>
<path d="M1.86 345.4C1.86 345.4 2.36 338.05 7.71 335.92C5.51 338.92 5.99 345.4 5.99 345.4H1.86Z" fill="#EBEBEB"/>
<path d="M135.88 345.4C135.88 345.4 135.34 333.28 125.64 328.88C129.98 335.1 129.73 345.4 129.73 345.4H135.88Z" fill="#EBEBEB"/>
<path d="M38.68 263.81L45.74 313.61L46.44 318.59H50.97L50.26 313.61L43.2 263.81H38.68Z" fill="#E0E0E0"/>
<path d="M232.67 263.81L239.73 313.61L240.43 318.59H244.96L244.25 313.61L237.19 263.81H232.67Z" fill="#E0E0E0"/>
<path d="M67.67 313.61L68.38 318.59L72.19 345.44H76.72L72.91 318.59L72.21 313.61H67.67Z" fill="#E6E6E6"/>
<path d="M261.67 313.61L262.38 318.59L266.18 345.44H270.7L266.9 318.59L266.2 313.61H261.67Z" fill="#E6E6E6"/>
<path d="M238.81 313.61L238.1 318.59L234.29 345.44H229.76L233.57 318.59L234.27 313.61H238.81Z" fill="#E6E6E6"/>
<path d="M44.81 313.61L44.1 318.59L40.3 345.44H35.78L39.58 318.59L40.29 313.61H44.81Z" fill="#E6E6E6"/>
<path d="M32.17 270.74H239.5L235.65 256.87H28.32L32.17 270.74Z" fill="#F5F5F5"/>
<path d="M36.9 270.74H244.24L240.39 256.87H33.05L36.9 270.74Z" fill="#E6E6E6"/>
<path d="M35.06 288.03H242.39L238.54 274.17H31.2L35.06 288.03Z" fill="#F5F5F5"/>
<path d="M39.79 288.03H247.12L243.27 274.17H35.94L39.79 288.03Z" fill="#E6E6E6"/>
<path d="M37.94 305.35H245.28L241.43 291.49H34.09L37.94 305.35Z" fill="#F5F5F5"/>
<path d="M42.68 305.35H250.01L246.16 291.49H38.83L42.68 305.35Z" fill="#E6E6E6"/>
<path d="M268.88 313.61H62.46V318.59H268.88V313.61Z" fill="#E6E6E6"/>
<path d="M62.46 313.61H34.09V318.59H62.46V313.61Z" fill="#F5F5F5"/>
<path d="M18.5 110.47C14.63 102.11 17.71 96.16 27.17 96.16C33.1 96.16 40.45 98.5 47.62 102.31C48.43 100.14 50.71 98.84 54.37 98.84C60.83 98.84 69.72 102.84 76.7 108.55C78.8483 107.109 81.383 106.352 83.97 106.38C90.15 106.12 97.63 108.44 104.13 112.2C104.903 111.476 105.931 111.087 106.99 111.12C110.55 110.97 115.37 113.31 117.76 116.33C117.91 116.52 118.04 116.7 118.17 116.89H13.7C10.4 113.92 14.05 110.62 18.5 110.47Z" fill="#F5F5F5"/>
<path d="M292.91 127.71C293.173 127.695 293.437 127.695 293.7 127.71C293.46 124.98 294.87 123.23 297.9 123.23C300.593 123.412 303.199 124.253 305.49 125.68C304.71 120.38 307.22 116.93 312.88 116.93C317.45 116.93 323.24 119.17 328.96 122.83C329.46 120.75 331.14 119.5 333.96 119.5C338.96 119.5 345.96 123.36 351.66 128.8C353.158 127.438 355.116 126.695 357.14 126.72C361.87 126.47 367.75 128.72 372.96 132.3C373.211 131.972 373.537 131.709 373.912 131.535C374.286 131.361 374.697 131.28 375.11 131.3C377.7 131.17 381.26 133.16 383.34 135.82H288.75C286.52 131.7 288.29 128.17 292.91 127.71Z" fill="#F5F5F5"/>
<path d="M133.78 67.2299C134.04 67.2147 134.3 67.2147 134.56 67.2299C134.32 64.4899 135.74 62.7499 138.76 62.7499C141.456 62.9304 144.066 63.7718 146.36 65.1999C145.58 59.8899 148.08 56.4399 153.74 56.4399C158.32 56.4399 164.1 58.6899 169.82 62.3499C170.32 60.2699 172 59.0199 174.82 59.0199C179.82 59.0199 186.82 62.8699 192.52 68.3199C194.021 66.9623 195.976 66.2166 198 66.2299C202.73 65.9899 208.61 68.2299 213.82 71.8099C214.071 71.4822 214.398 71.2201 214.772 71.046C215.147 70.8719 215.558 70.7909 215.97 70.8099C218.56 70.6699 222.13 72.6599 224.2 75.3299H129.61C127.39 71.2199 129.16 67.6899 133.78 67.2299Z" fill="#F5F5F5"/>
<path d="M369.77 328.1L352 310.33H338.16L353.52 325.69H349.3V345.4H365.55V328.1H369.77Z" fill="#EBEBEB"/>
<path d="M355.93 328.1L338.16 310.33L320.39 328.1H327.02V345.4H349.3V328.1H355.93Z" fill="#FAFAFA"/>
<path d="M195 390.56C302.082 390.56 388.89 385.492 388.89 379.24C388.89 372.988 302.082 367.92 195 367.92C87.9175 367.92 1.11 372.988 1.11 379.24C1.11 385.492 87.9175 390.56 195 390.56Z" fill="#F5F5F5"/>
<path d="M346.16 70.7199L319.51 44.0699H298.75L321.79 67.1099H315.45V96.66H339.82V70.7199H346.16Z" fill="#1FA29E"/>
<path opacity="0.4" d="M346.16 70.7199L319.51 44.0699H298.75L321.79 67.1099H315.45V96.66H339.82V70.7199H346.16Z" fill="white"/>
<path d="M325.4 70.7199L298.75 44.0699L272.1 70.7199H282.05V96.66H315.45V70.7199H325.4Z" fill="#1FA29E"/>
<path opacity="0.7" d="M325.4 70.7199L298.75 44.0699L272.1 70.7199H282.05V96.66H315.45V70.7199H325.4Z" fill="white"/>
<path d="M363.32 177.1L336.67 150.44H315.91L338.95 173.48H332.61V203.03H356.98V177.1H363.32Z" fill="#1FA29E"/>
<path opacity="0.4" d="M363.32 177.1L336.67 150.44H315.91L338.95 173.48H332.61V203.03H356.98V177.1H363.32Z" fill="white"/>
<path d="M342.56 177.1L315.91 150.44L289.26 177.1H299.2V203.03H332.61V177.1H342.56Z" fill="#1FA29E"/>
<path opacity="0.7" d="M342.56 177.1L315.91 150.44L289.26 177.1H299.2V203.03H332.61V177.1H342.56Z" fill="white"/>
<path d="M243.38 204.81L216.72 178.16H195.97L219.01 201.19H212.67V230.75H237.04V204.81H243.38Z" fill="#1FA29E"/>
<path opacity="0.4" d="M243.38 204.81L216.72 178.16H195.97L219.01 201.19H212.67V230.75H237.04V204.81H243.38Z" fill="white"/>
<path d="M222.62 204.81L195.97 178.16L169.32 204.81H179.26V230.74H212.67V204.81H222.62Z" fill="#1FA29E"/>
<path opacity="0.7" d="M222.62 204.81L195.97 178.16L169.32 204.81H179.26V230.74H212.67V204.81H222.62Z" fill="white"/>
<path d="M241.79 115.26H227.45L225.4 113.22L208.75 82.22L241.79 115.26Z" fill="#2F54C6"/>
<path d="M227.4 145.37H257.61V108.73H227.4V145.37Z" fill="#1FA29E"/>
<path opacity="0.3" d="M227.4 145.37H257.61V108.73H227.4V145.37Z" fill="black"/>
<path d="M239.74 113.22H265.48L232.43 80.1699H206.7L239.74 113.22Z" fill="#1FA29E"/>
<path opacity="0.3" d="M239.74 113.22H265.48L232.43 80.1699H206.7L239.74 113.22Z" fill="black"/>
<path d="M227.4 103.95V145.37H185.99V103.95L206.7 83.84L206.91 84.05L208.75 85.83L227.4 103.95Z" fill="#1FA29E"/>
<path opacity="0.3" d="M208.75 82.22V96.56L190.04 115.26H185.99V104.98L206.91 84.05L208.75 82.22Z" fill="black"/>
<path d="M239.74 113.22H225.4L206.7 94.5099V80.1699L239.74 113.22Z" fill="#1FA29E"/>
<path d="M173.65 113.22H187.99L206.7 94.5099V80.1699L173.65 113.22Z" fill="#1FA29E"/>
<path d="M169 155.38C160.47 162.3 151.67 168.81 142.82 175.21C133.97 181.61 125 187.83 116 194C107 200.17 97.85 206.11 88.66 212C84.09 215 79.45 217.84 74.84 220.76C72.5662 222.327 70.0537 223.516 67.4 224.28C65.9614 224.668 64.4872 224.909 63 225C61.3288 225.138 59.6466 225.047 58 224.73C56.7109 224.468 55.4862 223.954 54.396 223.217C53.3059 222.481 52.3718 221.537 51.6472 220.439C50.9226 219.341 50.4218 218.11 50.1735 216.818C49.9252 215.527 49.9342 214.198 50.2 212.91C50.2 212.76 50.27 212.57 50.31 212.41C50.7587 210.791 51.4319 209.242 52.31 207.81C53.0488 206.534 53.9167 205.338 54.9 204.24C56.7524 202.191 58.9237 200.456 61.33 199.1C65.98 196.24 70.59 193.33 75.26 190.53C84.57 184.84 93.97 179.31 103.42 173.85C112.87 168.39 122.42 163.1 132.05 157.94C141.68 152.78 151.39 147.75 161.35 143.11C162.957 142.413 164.761 142.316 166.433 142.838C168.105 143.359 169.535 144.463 170.461 145.949C171.388 147.435 171.75 149.205 171.482 150.936C171.214 152.667 170.333 154.244 169 155.38Z" fill="#B0DCDA"/>
<path d="M169 155.38C160.47 162.3 151.67 168.81 142.82 175.21C133.97 181.61 125 187.83 116 194C107 200.17 97.85 206.11 88.66 212C84.09 215 79.45 217.84 74.84 220.76C72.5662 222.327 70.0537 223.516 67.4 224.28C65.9614 224.668 64.4872 224.909 63 225C61.3288 225.138 59.6466 225.047 58 224.73C56.7109 224.468 55.4862 223.954 54.396 223.217C53.3059 222.481 52.3718 221.537 51.6472 220.439C50.9226 219.341 50.4218 218.11 50.1735 216.818C49.9252 215.527 49.9342 214.198 50.2 212.91C50.2 212.76 50.27 212.57 50.31 212.41C50.7587 210.791 51.4319 209.242 52.31 207.81C53.0488 206.534 53.9167 205.338 54.9 204.24C56.7524 202.191 58.9237 200.456 61.33 199.1C65.98 196.24 70.59 193.33 75.26 190.53C84.57 184.84 93.97 179.31 103.42 173.85C112.87 168.39 122.42 163.1 132.05 157.94C141.68 152.78 151.39 147.75 161.35 143.11C162.957 142.413 164.761 142.316 166.433 142.838C168.105 143.359 169.535 144.463 170.461 145.949C171.388 147.435 171.75 149.205 171.482 150.936C171.214 152.667 170.333 154.244 169 155.38Z" fill="#B0DCDA"/>
<path opacity="0.5" d="M169 155.38C160.47 162.3 151.67 168.81 142.82 175.21C133.97 181.61 125 187.83 116 194C107 200.17 97.85 206.11 88.66 212C84.09 215 79.45 217.84 74.84 220.76C72.5662 222.327 70.0537 223.516 67.4 224.28C65.9614 224.668 64.4872 224.909 63 225C61.3288 225.138 59.6466 225.047 58 224.73C56.7109 224.468 55.4862 223.954 54.396 223.217C53.3059 222.481 52.3718 221.537 51.6472 220.439C50.9226 219.341 50.4218 218.11 50.1735 216.818C49.9252 215.527 49.9342 214.198 50.2 212.91C50.2 212.76 50.27 212.57 50.31 212.41C50.7587 210.791 51.4319 209.242 52.31 207.81C53.0488 206.534 53.9167 205.338 54.9 204.24C56.7524 202.191 58.9237 200.456 61.33 199.1C65.98 196.24 70.59 193.33 75.26 190.53C84.57 184.84 93.97 179.31 103.42 173.85C112.87 168.39 122.42 163.1 132.05 157.94C141.68 152.78 151.39 147.75 161.35 143.11C162.957 142.413 164.761 142.316 166.433 142.838C168.105 143.359 169.535 144.463 170.461 145.949C171.388 147.435 171.75 149.205 171.482 150.936C171.214 152.667 170.333 154.244 169 155.38Z" fill="white"/>
<path d="M132.1 370.63L140.26 368.74L136.44 349.71L128.28 351.6L132.1 370.63Z" fill="#EBB376"/>
<path d="M77.08 143.23C75.95 147.23 74.86 151.44 73.82 155.56C72.78 159.68 71.82 163.86 71.02 168.02C70.58 170.09 70.2 172.21 69.87 174.16C69.54 176.11 69.35 178.16 69.23 180.21C69.125 182.249 69.125 184.291 69.23 186.33C69.23 187.33 69.36 188.33 69.46 189.39C69.56 190.45 69.74 191.46 69.88 192.33L65.88 193.84C65.3551 192.765 64.9041 191.656 64.53 190.52C64.1388 189.428 63.805 188.317 63.53 187.19C62.9828 184.942 62.6084 182.655 62.41 180.35C62.2249 178.021 62.1915 175.683 62.31 173.35C62.47 170.99 62.75 168.82 63.06 166.62C63.69 162.23 64.5 157.88 65.46 153.62C66.42 149.36 67.46 145.07 68.81 140.76L77.08 143.23Z" fill="#EBB376"/>
<path d="M65.31 144.61L73.72 151.31L78.77 155.31C78.77 155.31 79.3 153.9 79.94 151.88C81.16 147.98 82.75 141.8 81.65 138.96C79.92 134.46 76.65 130.4 72.51 131.3C69 132.09 65.31 144.61 65.31 144.61Z" fill="#263238"/>
<path d="M76.93 370.69H85.3L84.65 351.29H76.27L76.93 370.69Z" fill="#EBB376"/>
<path d="M136.44 349.72L138.49 359.91L130.25 361.41L128.27 351.61L136.44 349.72Z" fill="#DA9D62"/>
<path d="M76.27 351.29H84.65L84.98 361.29H76.6L76.27 351.29Z" fill="#DA9D62"/>
<path d="M103.57 182.12C103.57 182.12 98.71 239.61 93.67 272.01C89.6 298.18 86.38 359.36 86.38 359.36H75C75 359.36 69.56 300.28 71.63 274.36C76.86 208.87 67.63 197.27 78.58 182.09L103.57 182.12Z" fill="#B0DCDA"/>
<path opacity="0.6" d="M103.57 182.12C103.57 182.12 98.71 239.61 93.67 272.01C89.6 298.18 86.38 359.36 86.38 359.36H75C75 359.36 69.56 300.28 71.63 274.36C76.86 208.87 67.63 197.27 78.58 182.09L103.57 182.12Z" fill="black"/>
<path d="M66.43 193.19L61.49 196.55L62.19 199.42C62.19 199.42 72.48 194.08 69.73 191.94L66.43 193.19Z" fill="#EBB376"/>
<path d="M88.83 371.18C88.0846 371.161 87.3435 371.061 86.62 370.88C86.5832 370.869 86.55 370.848 86.5236 370.82C86.4973 370.792 86.4788 370.757 86.47 370.72C86.4639 370.681 86.4692 370.642 86.4851 370.607C86.5011 370.571 86.5271 370.541 86.56 370.52C86.85 370.33 89.38 368.69 90.36 369.13C90.4711 369.178 90.567 369.256 90.6374 369.355C90.7078 369.453 90.7502 369.569 90.76 369.69C90.7991 369.879 90.7892 370.074 90.7315 370.258C90.6737 370.442 90.5699 370.608 90.43 370.74C89.9667 371.074 89.3989 371.23 88.83 371.18ZM87.18 370.59C88.64 370.89 89.74 370.83 90.18 370.45C90.2718 370.359 90.3392 370.246 90.3759 370.122C90.4127 369.998 90.4175 369.866 90.39 369.74C90.3863 369.687 90.3687 369.636 90.3388 369.592C90.3089 369.548 90.2679 369.513 90.22 369.49C89.69 369.26 88.22 370 87.18 370.59Z" fill="#B0DCDA"/>
<path d="M86.67 370.88C86.6375 370.891 86.6025 370.891 86.57 370.88C86.5407 370.862 86.5162 370.837 86.4988 370.807C86.4814 370.778 86.4715 370.744 86.47 370.71C86.47 370.6 86.47 368.19 87.39 367.38C87.5009 367.275 87.6343 367.198 87.7799 367.153C87.9255 367.108 88.0794 367.096 88.23 367.12C88.3877 367.121 88.5402 367.177 88.6622 367.277C88.7841 367.377 88.868 367.516 88.9 367.67C89.09 368.67 87.56 370.43 86.77 370.88C86.7373 370.889 86.7027 370.889 86.67 370.88ZM88.09 367.49C87.9281 367.494 87.7726 367.554 87.65 367.66C87.1254 368.439 86.8562 369.361 86.88 370.3C87.67 369.66 88.63 368.3 88.51 367.73C88.51 367.64 88.44 367.52 88.18 367.49H88.09Z" fill="#B0DCDA"/>
<path d="M141 367.48C140.963 367.478 140.927 367.466 140.896 367.445C140.864 367.424 140.839 367.396 140.823 367.362C140.807 367.328 140.8 367.291 140.803 367.254C140.806 367.216 140.819 367.181 140.84 367.15C141.11 366.83 143.44 364.09 144.63 364.09H144.71C144.819 364.098 144.923 364.134 145.013 364.196C145.102 364.257 145.174 364.341 145.22 364.44C145.301 364.594 145.343 364.766 145.343 364.94C145.343 365.114 145.301 365.286 145.22 365.44C144.7 366.54 142.35 367.16 140.99 367.44L141 367.48ZM144.62 364.48C143.97 364.48 142.53 365.84 141.54 366.95C143.37 366.52 144.61 365.95 144.9 365.3C144.959 365.198 144.99 365.083 144.99 364.965C144.99 364.847 144.959 364.732 144.9 364.63C144.883 364.59 144.855 364.554 144.82 364.528C144.785 364.502 144.744 364.485 144.7 364.48H144.62Z" fill="#B0DCDA"/>
<path d="M141 367.48C140.966 367.475 140.935 367.46 140.91 367.436C140.885 367.413 140.868 367.383 140.86 367.35C140.86 367.26 140.14 365.1 140.78 363.89C140.868 363.713 140.992 363.556 141.143 363.428C141.294 363.301 141.47 363.206 141.66 363.15C142.19 362.99 142.45 363.15 142.56 363.38C143.07 364.2 141.94 366.62 141.19 367.38C141.17 367.412 141.142 367.438 141.109 367.456C141.075 367.474 141.038 367.482 141 367.48ZM142 363.48C141.924 363.468 141.846 363.468 141.77 363.48C141.63 363.52 141.5 363.589 141.388 363.682C141.276 363.775 141.185 363.89 141.12 364.02C140.83 364.931 140.83 365.909 141.12 366.82C141.83 365.82 142.52 364.03 142.22 363.54C142.187 363.5 142.141 363.472 142.09 363.461C142.04 363.45 141.987 363.457 141.94 363.48H142Z" fill="#B0DCDA"/>
<path d="M87.4 111.07C88.4 116.07 90.4 126.07 86.95 129.42C86.95 129.42 88.31 134.42 97.55 134.42C107.7 134.42 102.4 129.42 102.4 129.42C96.86 128.1 97 123.99 97.97 120.12L87.4 111.07Z" fill="#EBB376"/>
<path d="M107.58 100.41C107.498 100.411 107.417 100.387 107.35 100.34C107.307 100.309 107.271 100.27 107.243 100.225C107.216 100.181 107.197 100.131 107.189 100.079C107.18 100.027 107.182 99.9734 107.194 99.9222C107.207 99.8709 107.229 99.8226 107.26 99.78C107.621 99.2661 108.098 98.8444 108.652 98.5491C109.206 98.2537 109.822 98.093 110.45 98.08C110.544 98.095 110.63 98.143 110.691 98.2154C110.753 98.2878 110.787 98.3798 110.787 98.475C110.787 98.5701 110.753 98.6622 110.691 98.7346C110.63 98.807 110.544 98.855 110.45 98.8699C109.951 98.8837 109.462 99.016 109.024 99.2559C108.585 99.4959 108.211 99.8366 107.93 100.25C107.89 100.305 107.837 100.348 107.776 100.376C107.715 100.404 107.647 100.416 107.58 100.41Z" fill="#263238"/>
<path d="M109.8 105.18C110.339 106.746 111.093 108.231 112.04 109.59C111.684 109.821 111.283 109.971 110.863 110.032C110.444 110.092 110.016 110.061 109.61 109.94L109.8 105.18Z" fill="#DE5753"/>
<path d="M109.24 104C109.24 104.68 109.55 105.24 109.99 105.25C110.43 105.26 110.81 104.74 110.84 104.06C110.87 103.38 110.53 102.83 110.09 102.81C109.65 102.79 109.27 103.33 109.24 104Z" fill="#263238"/>
<path d="M109.89 102.84L111.53 102.44C111.53 102.44 110.65 103.67 109.89 102.84Z" fill="#263238"/>
<path d="M86 369.72H76.59C76.4272 369.714 76.268 369.769 76.1439 369.874C76.0199 369.98 75.9399 370.128 75.92 370.29L74.85 377.73C74.8272 377.918 74.8449 378.11 74.9021 378.291C74.9592 378.472 75.0545 378.638 75.1814 378.779C75.3084 378.921 75.464 379.033 75.638 379.109C75.812 379.185 76.0002 379.223 76.19 379.22C79.47 379.17 81.05 378.97 85.19 378.97C87.74 378.97 91.45 379.24 94.97 379.24C98.49 379.24 98.67 375.76 97.21 375.45C90.65 374.03 89.61 372.09 87.4 370.23C87.0064 369.903 86.5116 369.723 86 369.72Z" fill="#263238"/>
<path d="M140.1 366.59L131.41 370.2C131.259 370.259 131.136 370.37 131.062 370.514C130.988 370.658 130.97 370.824 131.01 370.98L132.87 378.27C132.923 378.452 133.014 378.62 133.136 378.765C133.259 378.909 133.411 379.025 133.582 379.107C133.753 379.188 133.939 379.232 134.128 379.236C134.318 379.24 134.506 379.204 134.68 379.13C137.68 377.82 139.08 377.04 142.9 375.45C145.25 374.45 150.22 372.7 153.47 371.35C156.72 370 155.55 366.72 154.08 366.99C147.48 368.21 144.34 367.4 141.59 366.53C141.102 366.374 140.574 366.395 140.1 366.59Z" fill="#263238"/>
<path d="M121.18 139.79C122.81 143.63 124.57 147.56 126.35 151.38C127.25 153.3 128.187 155.187 129.16 157.04C130.16 158.9 131.16 160.72 132.16 162.46C132.69 163.32 133.22 164.18 133.77 164.97L134.59 166.11C134.758 166.348 134.949 166.569 135.16 166.77C136.251 167.717 137.611 168.298 139.05 168.43C142.46 168.92 146.74 168.23 150.57 167.2L152.35 171.05C151.338 171.658 150.289 172.202 149.21 172.68C148.148 173.174 147.056 173.602 145.94 173.96C143.588 174.76 141.124 175.182 138.64 175.21C137.255 175.222 135.875 175.041 134.54 174.67C133.058 174.262 131.665 173.584 130.43 172.67C129.798 172.189 129.212 171.65 128.68 171.06C128.23 170.55 127.9 170.12 127.5 169.64C126.75 168.7 126.08 167.75 125.41 166.8C122.918 163.05 120.673 159.142 118.69 155.1C116.69 151.1 114.89 147.1 113.23 142.96L121.18 139.79Z" fill="#EBB376"/>
<path d="M149.71 171.52L158.85 170.08L156.42 164.9C156.42 164.9 149.34 166.13 147.98 169.33L149.71 171.52Z" fill="#EBB376"/>
<path d="M158.84 166.04L157.84 163.83L156.42 164.9L158.84 170.08V166.04Z" fill="#EBB376"/>
<path d="M86.64 100.79C86.82 109.1 86.72 112.62 90.74 117.04C96.74 123.69 106.96 121.65 109.26 113.45C111.33 106.07 110.68 93.7199 102.7 90.0999C100.943 89.2943 99.0091 88.9511 97.0822 89.1031C95.1552 89.255 93.2991 89.897 91.69 90.968C90.081 92.0391 88.7724 93.5036 87.8885 95.2227C87.0047 96.9417 86.5749 98.8581 86.64 100.79Z" fill="#EBB376"/>
<path d="M79.94 85.78C88.48 79.59 98.02 83.1 103.24 87.38C108.7 91.86 107.83 100.47 104.49 104.03C104.836 104.557 105.066 105.151 105.162 105.774C105.259 106.397 105.221 107.033 105.05 107.64C105.472 110.304 104.886 113.03 103.407 115.285C101.928 117.541 99.6613 119.165 97.05 119.84L96.58 119.96C85.91 122.5 73.58 115.28 71.72 104.48C70.59 97.89 72.39 91.24 79.94 85.78Z" fill="#263238"/>
<path d="M102.58 104.64C102.717 106.207 103.387 107.679 104.48 108.81C105.96 110.34 107.48 109.46 107.75 107.65C107.98 106.02 107.49 103.26 105.69 102.39C103.89 101.52 102.45 102.79 102.58 104.64Z" fill="#EBB376"/>
<path opacity="0.3" d="M92 209C91.05 226.18 95.19 239.15 97.08 246.74C98.42 235.52 99.65 223.81 100.68 213.48C97.15 201.78 92.69 196.07 92 209Z" fill="black"/>
<path d="M87.95 359.58H73.4L72.63 354.48L88.03 353.96L87.95 359.58Z" fill="#B0DCDA"/>
<path opacity="0.3" d="M73.72 151.31L78.77 155.31C78.77 155.31 79.3 153.9 79.94 151.88L76.94 137.03L73.72 151.31Z" fill="black"/>
<path d="M84.7 87.1699C87.31 84.2799 96.18 79.8699 103.79 83.3299C105.961 84.3187 107.8 85.9125 109.088 87.9203C110.376 89.9281 111.057 92.2647 111.05 94.6499L104.19 99.2499L84.7 87.1699Z" fill="#263238"/>
<path d="M77.7 94.76C81.47 91.67 85.7 80.47 77.7 84.37C69.7 88.27 67.27 103.31 77.7 94.76Z" fill="#B0DCDA"/>
<path d="M78.55 87.5799C80.18 82.8199 69.43 73.3499 62.18 82.3499C54.93 91.3499 73.86 101.28 78.55 87.5799Z" fill="#263238"/>
<path d="M95.37 94.2199C89.12 91.5599 86.01 81.4799 96.74 81.7699C107.47 82.0599 107.16 99.2499 95.37 94.2199Z" fill="#B0DCDA"/>
<path d="M93.35 89C89.56 84.27 93.75 72.11 104.62 76C115.49 79.89 102.05 99.81 93.35 89Z" fill="#263238"/>
<path d="M112.56 182.12C112.56 182.12 122 246.62 125.32 272C128.77 298.35 138.85 357.43 138.85 357.43L127.65 359.14C127.65 359.14 109.95 302.79 105.02 277.14C99.64 249.19 89.02 182.14 89.02 182.14L112.56 182.12Z" fill="#B0DCDA"/>
<path opacity="0.6" d="M112.56 182.12C112.56 182.12 122 246.62 125.32 272C128.77 298.35 138.85 357.43 138.85 357.43L127.65 359.14C127.65 359.14 109.95 302.79 105.02 277.14C99.64 249.19 89.02 182.14 89.02 182.14L112.56 182.12Z" fill="black"/>
<path d="M116.56 131.57C120.72 132.57 125.85 144.01 125.85 144.01L115.94 156.71C115.94 156.71 105.7 142.22 107.07 137.8C108.49 133.19 111.51 130.34 116.56 131.57Z" fill="#263238"/>
<path d="M103 131.05C104.37 131.25 103.1 128.12 102.53 127.79C101.22 127.01 84.53 125.44 84.72 127.2C84.821 128.25 85.2717 129.236 86 130C86.75 130.5 91 129.12 103 131.05Z" fill="#B0DCDA"/>
<path opacity="0.6" d="M103 131.05C104.37 131.25 103.1 128.12 102.53 127.79C101.22 127.01 84.53 125.44 84.72 127.2C84.821 128.25 85.2717 129.236 86 130C86.75 130.5 91 129.12 103 131.05Z" fill="white"/>
<path d="M116.56 131.57C116.56 131.57 120.56 132.97 112.56 182.12H78.56C79.13 168.28 79.15 159.74 72.56 131.32C77.3209 130.337 82.147 129.702 87 129.42C92.1433 129.049 97.3067 129.049 102.45 129.42C109 130 116.56 131.57 116.56 131.57Z" fill="#263238"/>
<path d="M78 180.13L76.47 183.13C76.35 183.37 76.63 183.61 77.02 183.61H112.7C113 183.61 113.26 183.46 113.28 183.26L113.58 180.26C113.58 180.05 113.34 179.87 113 179.87H78.58C78.4687 179.855 78.3553 179.871 78.2528 179.917C78.1502 179.963 78.0626 180.037 78 180.13Z" fill="#B0DCDA"/>
<path opacity="0.6" d="M78 180.13L76.47 183.13C76.35 183.37 76.63 183.61 77.02 183.61H112.7C113 183.61 113.26 183.46 113.28 183.26L113.58 180.26C113.58 180.05 113.34 179.87 113 179.87H78.58C78.4687 179.855 78.3553 179.871 78.2528 179.917C78.1502 179.963 78.0626 180.037 78 180.13Z" fill="white"/>
<path d="M82.66 184H81.73C81.55 184 81.41 183.9 81.42 183.79L81.86 179.79C81.86 179.67 82.03 179.58 82.21 179.58H83.14C83.32 179.58 83.46 179.67 83.45 179.79L83.01 183.79C83 183.88 82.84 184 82.66 184Z" fill="#B0DCDA"/>
<path d="M105 184H104.08C103.89 184 103.75 183.9 103.77 183.79L104.2 179.79C104.2 179.67 104.37 179.58 104.56 179.58H105.48C105.66 179.58 105.8 179.67 105.79 179.79L105.36 183.79C105.36 183.88 105.2 184 105 184Z" fill="#B0DCDA"/>
<path opacity="0.6" d="M82.66 184H81.73C81.55 184 81.41 183.9 81.42 183.79L81.86 179.79C81.86 179.67 82.03 179.58 82.21 179.58H83.14C83.32 179.58 83.46 179.67 83.45 179.79L83.01 183.79C83 183.88 82.84 184 82.66 184Z" fill="black"/>
<path opacity="0.6" d="M105 184H104.08C103.89 184 103.75 183.9 103.77 183.79L104.2 179.79C104.2 179.67 104.37 179.58 104.56 179.58H105.48C105.66 179.58 105.8 179.67 105.79 179.79L105.36 183.79C105.36 183.88 105.2 184 105 184Z" fill="black"/>
<path d="M140.5 357.43L126.16 359.87L124.53 354.46L139.88 351.83L140.5 357.43Z" fill="#B0DCDA"/>
<path d="M283.41 78.26C275.782 66.0461 264.704 56.3682 251.577 50.4501C238.449 44.532 223.862 42.6394 209.658 45.0117C195.455 47.384 182.274 53.9146 171.783 63.7778C161.291 73.6409 153.959 86.3936 150.715 100.423C147.471 114.453 148.46 129.13 153.557 142.598C158.653 156.065 167.629 167.719 179.349 176.086C191.069 184.453 205.007 189.156 219.4 189.602C233.793 190.048 247.995 186.215 260.21 178.59C268.322 173.526 275.356 166.914 280.913 159.131C286.469 151.348 290.437 142.547 292.591 133.23C294.746 123.914 295.044 114.264 293.468 104.832C291.893 95.4 288.475 86.3708 283.41 78.26ZM172.92 147.26C166.903 137.621 163.88 126.415 164.232 115.058C164.584 103.701 168.296 92.704 174.898 83.4566C181.5 74.2092 190.696 67.1272 201.323 63.1062C211.95 59.0851 223.531 58.3055 234.601 60.8661C245.671 63.4266 255.733 69.2123 263.515 77.4914C271.297 85.7705 276.449 96.1713 278.32 107.379C280.191 118.586 278.697 130.096 274.026 140.454C269.355 150.812 261.718 159.552 252.08 165.57C245.68 169.565 238.555 172.261 231.112 173.502C223.67 174.744 216.056 174.507 208.705 172.806C201.355 171.105 194.411 167.972 188.271 163.587C182.131 159.203 176.914 153.651 172.92 147.25V147.26Z" fill="#B0DCDA"/>
<path d="M283.41 78.26C275.782 66.0461 264.704 56.3682 251.577 50.4501C238.449 44.532 223.862 42.6394 209.658 45.0117C195.455 47.384 182.274 53.9146 171.783 63.7778C161.291 73.6409 153.959 86.3936 150.715 100.423C147.471 114.453 148.46 129.13 153.557 142.598C158.653 156.065 167.629 167.719 179.349 176.086C191.069 184.453 205.007 189.156 219.4 189.602C233.793 190.048 247.995 186.215 260.21 178.59C268.322 173.526 275.356 166.914 280.913 159.131C286.469 151.348 290.437 142.547 292.591 133.23C294.746 123.914 295.044 114.264 293.468 104.832C291.893 95.4 288.475 86.3708 283.41 78.26ZM172.92 147.26C166.903 137.621 163.88 126.415 164.232 115.058C164.584 103.701 168.296 92.704 174.898 83.4566C181.5 74.2092 190.696 67.1272 201.323 63.1062C211.95 59.0851 223.531 58.3055 234.601 60.8661C245.671 63.4266 255.733 69.2123 263.515 77.4914C271.297 85.7705 276.449 96.1713 278.32 107.379C280.191 118.586 278.697 130.096 274.026 140.454C269.355 150.812 261.718 159.552 252.08 165.57C245.68 169.565 238.555 172.261 231.112 173.502C223.67 174.744 216.056 174.507 208.705 172.806C201.355 171.105 194.411 167.972 188.271 163.587C182.131 159.203 176.914 153.651 172.92 147.25V147.26Z" fill="#B0DCDA"/>
<path opacity="0.5" d="M283.41 78.26C275.782 66.0461 264.704 56.3682 251.577 50.4501C238.449 44.532 223.862 42.6394 209.658 45.0117C195.455 47.384 182.274 53.9146 171.783 63.7778C161.291 73.6409 153.959 86.3936 150.715 100.423C147.471 114.453 148.46 129.13 153.557 142.598C158.653 156.065 167.629 167.719 179.349 176.086C191.069 184.453 205.007 189.156 219.4 189.602C233.793 190.048 247.995 186.215 260.21 178.59C268.322 173.526 275.356 166.914 280.913 159.131C286.469 151.348 290.437 142.547 292.591 133.23C294.746 123.914 295.044 114.264 293.468 104.832C291.893 95.4 288.475 86.3708 283.41 78.26ZM172.92 147.26C166.903 137.621 163.88 126.415 164.232 115.058C164.584 103.701 168.296 92.704 174.898 83.4566C181.5 74.2092 190.696 67.1272 201.323 63.1062C211.95 59.0851 223.531 58.3055 234.601 60.8661C245.671 63.4266 255.733 69.2123 263.515 77.4914C271.297 85.7705 276.449 96.1713 278.32 107.379C280.191 118.586 278.697 130.096 274.026 140.454C269.355 150.812 261.718 159.552 252.08 165.57C245.68 169.565 238.555 172.261 231.112 173.502C223.67 174.744 216.056 174.507 208.705 172.806C201.355 171.105 194.411 167.972 188.271 163.587C182.131 159.203 176.914 153.651 172.92 147.25V147.26Z" fill="white"/>
<path opacity="0.2" d="M275.2 83.39C281.81 93.9815 285.131 106.295 284.743 118.774C284.356 131.253 280.276 143.337 273.022 153.497C265.767 163.658 255.662 171.44 243.985 175.858C232.308 180.276 219.583 181.133 207.42 178.32C195.256 175.507 184.199 169.15 175.648 160.054C167.096 150.957 161.434 139.53 159.377 127.215C157.32 114.901 158.96 102.253 164.09 90.8713C169.221 79.4893 177.611 69.884 188.2 63.2699C195.233 58.877 203.063 55.9127 211.242 54.5463C219.421 53.18 227.789 53.4384 235.868 55.3068C243.947 57.1753 251.579 60.617 258.328 65.4356C265.076 70.2542 270.81 76.3551 275.2 83.39Z" fill="#FAFAFA"/>
<path opacity="0.1" d="M284.17 107.89L186.17 169.07C178.178 163.647 171.538 156.463 166.76 148.07L273.76 81.26C279.22 89.2242 282.781 98.3343 284.17 107.89Z" fill="#E6E6E6"/>
</svg>
