<svg width="390" height="463" viewBox="0 0 390 463" fill="none" xmlns="http://www.w3.org/2000/svg">
<path d="M394.9 361.49H361.78V361.74H394.9V361.49Z" fill="#EBEBEB"/>
<path d="M276.22 364.21H267.53V364.46H276.22V364.21Z" fill="#EBEBEB"/>
<path d="M360.78 352.21H341.59V352.46H360.78V352.21Z" fill="#EBEBEB"/>
<path d="M40.65 353.89H-2.54001V354.14H40.65V353.89Z" fill="#EBEBEB"/>
<path d="M55.89 353.89H49.56V354.14H55.89V353.89Z" fill="#EBEBEB"/>
<path d="M170.15 358.11H76.47V358.36H170.15V358.11Z" fill="#EBEBEB"/>
<path d="M182 300.8H-11.09C-12.6027 300.797 -14.0525 300.195 -15.1211 299.124C-16.1898 298.053 -16.79 296.603 -16.79 295.09V23.66C-16.7768 22.156 -16.1708 20.718 -15.1036 19.6582C-14.0363 18.5985 -12.594 18.0026 -11.09 18H182C183.514 18 184.967 18.6016 186.038 19.6724C187.108 20.7433 187.71 22.1956 187.71 23.71V295.09C187.71 296.604 187.108 298.057 186.038 299.128C184.967 300.198 183.514 300.8 182 300.8ZM-11.09 18.2C-12.5364 18.2026 -13.9226 18.7791 -14.9443 19.8027C-15.9661 20.8264 -16.54 22.2136 -16.54 23.66V295.09C-16.54 296.536 -15.9661 297.924 -14.9443 298.947C-13.9226 299.971 -12.5364 300.547 -11.09 300.55H182C183.447 300.547 184.835 299.971 185.858 298.948C186.881 297.924 187.457 296.537 187.46 295.09V23.66C187.457 22.2127 186.881 20.8255 185.858 19.8021C184.835 18.7787 183.447 18.2026 182 18.2H-11.09Z" fill="#EBEBEB"/>
<path d="M398.31 300.8H205.21C203.696 300.797 202.246 300.195 201.175 299.125C200.105 298.054 199.503 296.604 199.5 295.09V23.66C199.516 22.1551 200.124 20.7171 201.193 19.6576C202.262 18.5981 203.705 18.0025 205.21 18H398.31C399.812 18.0052 401.252 18.6022 402.317 19.6617C403.382 20.7212 403.987 22.1578 404 23.66V295.09C404 296.601 403.401 298.05 402.335 299.121C401.268 300.191 399.821 300.795 398.31 300.8ZM205.21 18.2C203.763 18.2026 202.375 18.7787 201.352 19.8021C200.329 20.8255 199.753 22.2127 199.75 23.66V295.09C199.753 296.537 200.329 297.924 201.352 298.948C202.375 299.971 203.763 300.547 205.21 300.55H398.31C399.757 300.547 401.145 299.971 402.168 298.948C403.191 297.924 403.767 296.537 403.77 295.09V23.66C403.767 22.2127 403.191 20.8255 402.168 19.8021C401.145 18.7787 399.757 18.2026 398.31 18.2H205.21Z" fill="#EBEBEB"/>
<path d="M445 345.4H-55V345.65H445V345.4Z" fill="#EBEBEB"/>
<path d="M81.16 271.18H6.75V345.59H81.16V271.18Z" fill="#F0F0F0"/>
<path d="M73.68 278.66H14.22V338.12H73.68V278.66Z" fill="#E6E6E6"/>
<path d="M155.68 271.18H81.27V345.59H155.68V271.18Z" fill="#F0F0F0"/>
<path d="M148.21 278.66H88.75V338.12H148.21V278.66Z" fill="#E6E6E6"/>
<path d="M230.2 271.18H155.79V345.59H230.2V271.18Z" fill="#F0F0F0"/>
<path d="M222.73 278.66H163.27V338.12H222.73V278.66Z" fill="#E6E6E6"/>
<path d="M304.73 271.18H230.32V345.59H304.73V271.18Z" fill="#F0F0F0"/>
<path d="M297.26 278.66H237.8V338.12H297.26V278.66Z" fill="#E6E6E6"/>
<path d="M379.25 271.18H304.84V345.59H379.25V271.18Z" fill="#F0F0F0"/>
<path d="M371.78 278.66H312.32V338.12H371.78V278.66Z" fill="#E6E6E6"/>
<path d="M359.64 202.35C350.36 209.5 347.64 225.17 347.21 236.21C347.21 237.21 345.59 237.21 345.64 236.21C346.13 224.52 348.79 208.74 358.85 200.99C359.65 200.37 360.43 201.74 359.64 202.35Z" fill="#F5F5F5"/>
<path d="M338.09 194.34C340.46 194.06 342.45 196.48 343.48 198.26C348.82 207.49 346.75 221.42 345.74 231.33C345.64 232.33 344.07 232.33 344.17 231.33C345.17 221.69 346.95 209.13 342.59 199.97C341.84 198.4 340.25 195.66 338.09 195.91C337.09 196.02 337.09 194.45 338.09 194.34Z" fill="#E6E6E6"/>
<path d="M332.34 207C342.27 204.55 343.51 226.56 343.8 231.31C343.86 232.31 342.29 232.31 342.23 231.31C341.84 224.88 341.52 215.68 336.87 210.53C335.93 209.53 334.3 208.13 332.76 208.53C331.76 208.77 331.36 207.26 332.34 207.02V207Z" fill="#E6E6E6"/>
<path d="M361.76 217.7C353.56 211.62 350.89 227.59 350.43 232.2C350.33 233.2 348.76 233.2 348.86 232.2C349.38 226.97 350.17 217.51 356.21 215.32C357.271 214.967 358.402 214.874 359.507 215.048C360.611 215.222 361.658 215.658 362.56 216.32C363.36 216.92 362.56 218.32 361.76 217.68V217.7Z" fill="#E6E6E6"/>
<path d="M329.12 220.58C329.742 219.928 330.506 219.428 331.352 219.12C332.198 218.811 333.104 218.702 334 218.8C339 219.64 340.4 227.2 341.16 231.12C341.35 232.12 339.84 232.53 339.64 231.54C338.99 228.15 335.83 216.02 330.23 221.69C330.078 221.811 329.887 221.871 329.694 221.86C329.5 221.849 329.317 221.767 329.18 221.63C329.043 221.493 328.961 221.31 328.95 221.116C328.939 220.923 328.999 220.732 329.12 220.58Z" fill="#F5F5F5"/>
<path d="M358.68 272.07H334.94C332.801 270.264 331.083 268.013 329.905 265.474C328.727 262.935 328.118 260.169 328.12 257.37C328.12 250.64 331.9 230.44 331.9 230.44H361.71C361.71 230.44 365.5 250.64 365.5 257.37C365.502 260.169 364.893 262.935 363.715 265.474C362.537 268.013 360.819 270.264 358.68 272.07Z" fill="#EBEBEB"/>
<path d="M362.46 225.45C355.3 225.45 348.29 222.54 346.81 218.96C345.33 215.38 349.93 212.48 357.09 212.48C359.397 212.484 361.695 212.776 363.93 213.35C365.912 212.743 367.977 212.45 370.05 212.48C377.21 212.48 384.22 215.38 385.7 218.96C387.18 222.54 382.59 225.45 375.42 225.45H362.46Z" fill="#F5F5F5"/>
<path d="M315.74 211.57C309.88 211.57 307.51 209.19 310.44 206.26C313.37 203.33 320.49 200.96 326.34 200.96C327.902 200.911 329.459 201.155 330.93 201.68C332.898 201.226 334.91 200.984 336.93 200.96C342.79 200.96 345.16 203.34 342.23 206.26C339.3 209.18 332.18 211.57 326.32 211.57H315.74Z" fill="#F0F0F0"/>
<path d="M369.6 206.26C362.24 206.26 353.28 203.26 349.6 199.59C345.92 195.92 348.9 192.92 356.27 192.92C358.819 192.943 361.357 193.245 363.84 193.82C365.69 193.161 367.647 192.856 369.61 192.92C376.98 192.92 385.94 195.92 389.61 199.59C393.28 203.26 390.31 206.26 382.94 206.26H369.6Z" fill="#EBEBEB"/>
<path d="M328.64 197.65C324.95 197.65 322.59 196.16 323.35 194.32C324.11 192.48 327.72 190.98 331.35 190.98C332.417 190.966 333.48 191.118 334.5 191.43C335.65 191.136 336.833 190.985 338.02 190.98C341.71 190.98 344.08 192.47 343.31 194.32C342.54 196.17 338.94 197.65 335.26 197.65H328.64Z" fill="#F0F0F0"/>
<path d="M324.39 224.34C320.71 224.34 317.1 222.84 316.34 221C315.58 219.16 317.94 217.67 321.63 217.67C322.818 217.67 324.001 217.821 325.15 218.12C326.169 217.803 327.233 217.651 328.3 217.67C331.98 217.67 335.59 219.16 336.35 221C337.11 222.84 334.75 224.34 331.06 224.34H324.39Z" fill="#EBEBEB"/>
<path d="M331.23 234.18C331.63 231.91 331.9 230.44 331.9 230.44H361.71C361.71 230.44 361.99 231.91 362.39 234.18H331.23Z" fill="#F5F5F5"/>
<path d="M331.27 202.41C331.27 202.41 323.09 205.14 320.5 209.64C320.5 209.64 320.91 203.09 331.27 202.41Z" fill="#FAFAFA"/>
<path d="M335.11 191.72C333.795 192.479 332.634 193.48 331.69 194.67C331.914 193.901 332.357 193.212 332.964 192.689C333.57 192.165 334.316 191.829 335.11 191.72Z" fill="#FAFAFA"/>
<path d="M366.83 194.67C366.83 194.67 375.69 197.91 381.14 204.05C379.695 201.443 377.637 199.226 375.144 197.592C372.651 195.958 369.797 194.955 366.83 194.67Z" fill="#FAFAFA"/>
<path d="M366.83 214.4C370.513 215.934 373.715 218.431 376.1 221.63C376.1 221.63 374.46 215.49 366.83 214.4Z" fill="#E6E6E6"/>
<path d="M328.59 212.47C329.331 212.857 329.959 213.428 330.415 214.129C330.87 214.83 331.137 215.636 331.19 216.47C329.971 215.402 329.071 214.018 328.59 212.47Z" fill="#FAFAFA"/>
<path d="M198.4 331.79C197.238 332.771 195.958 333.605 194.59 334.27C192.66 335.238 190.539 335.768 188.38 335.82C185.247 335.158 182.282 333.862 179.668 332.011C177.054 330.161 174.846 327.795 173.18 325.06L173.59 325.4C173.92 325.65 174.25 325.9 174.59 326.13C176.563 327.435 178.716 328.445 180.98 329.13C185.206 330.356 189.58 330.996 193.98 331.03C195.467 331.196 196.943 331.449 198.4 331.79Z" fill="#FAFAFA"/>
<path d="M203.27 334.64C199.894 336.113 196.217 336.768 192.54 336.55C193.614 336.271 194.659 335.89 195.66 335.41C197.311 334.609 198.842 333.582 200.21 332.36C201.102 332.55 201.935 332.951 202.64 333.53C202.94 333.841 203.157 334.223 203.27 334.64Z" fill="#FAFAFA"/>
<path d="M211.25 328.85C209.262 330.995 206.887 332.746 204.25 334.01C204.091 333.512 203.825 333.054 203.47 332.67C202.798 332.065 201.993 331.626 201.12 331.39C201.45 331.08 201.77 330.74 202.12 330.39C202.868 329.576 203.563 328.714 204.2 327.81C206.446 328.667 208.852 329.022 211.25 328.85Z" fill="#FAFAFA"/>
<path d="M213.65 325.83C213.26 326.42 212.84 326.98 212.4 327.52V327.44C211.25 327.97 209.34 327.94 206.87 327.35C206.26 327.21 205.62 327.03 204.95 326.82C205.92 325.36 206.779 323.829 207.52 322.24C209.316 322.736 211.236 322.503 212.86 321.59C214.75 320.47 216.33 318.29 217.59 315.08C217.19 318.935 215.835 322.629 213.65 325.83Z" fill="#FAFAFA"/>
<path d="M212.69 320.26C212.019 320.648 211.277 320.9 210.509 321.001C209.74 321.102 208.959 321.051 208.21 320.85C208.35 320.53 208.49 320.197 208.63 319.85C210.457 315.665 211.508 311.182 211.73 306.62C211.859 303.49 211.363 300.366 210.27 297.43C209.64 295.776 208.789 294.215 207.74 292.79C212.04 295.7 215.246 299.962 216.85 304.9C217.522 306.884 217.767 308.989 217.567 311.074C217.367 313.16 216.727 315.18 215.69 317C214.981 318.322 213.949 319.444 212.69 320.26Z" fill="#FAFAFA"/>
<path d="M206.86 320.29C204.7 319.41 202.58 316.41 201.76 314.48C194.01 296.4 189.48 291 187.14 289.48C192.937 287.666 199.212 288.175 204.64 290.9C206.578 292.723 208.064 294.972 208.98 297.47C210.58 301.68 211.59 308.86 207.33 319.16C207.17 319.57 207 319.94 206.86 320.29Z" fill="#FAFAFA"/>
<path d="M203.59 326.16C201.712 325.508 199.876 324.743 198.09 323.87C191.784 320.872 186.011 316.862 181 312C176.55 307.44 174.71 304.31 173.95 302.49C173.728 301.968 173.557 301.425 173.44 300.87C173.74 300.33 174.07 299.81 174.44 299.29C177.148 295.269 181.042 292.193 185.58 290.49C186.05 290.6 187.05 291.08 188.71 293.08C191.94 296.98 195.94 304.48 200.61 315.37C201.604 317.62 203.152 319.581 205.11 321.07C205.446 321.294 205.8 321.488 206.17 321.65C205.432 323.22 204.569 324.728 203.59 326.16Z" fill="#FAFAFA"/>
<path d="M202.82 327.28C201.887 328.565 200.832 329.757 199.67 330.84C197.982 330.389 196.264 330.054 194.53 329.84C183.53 329.59 177.67 326.79 174.71 324.5C173.749 323.764 172.895 322.899 172.17 321.93C170.827 318.817 170.176 315.449 170.262 312.06C170.349 308.671 171.17 305.341 172.67 302.3C172.73 302.49 172.8 302.69 172.89 302.9C174 305.7 176.46 309.05 180.2 312.9C182.862 315.558 185.779 317.946 188.91 320.03C191.657 321.9 194.534 323.571 197.52 325.03C199.244 325.878 201.013 326.629 202.82 327.28Z" fill="#FAFAFA"/>
<path d="M49.88 204.69H38.94V270.74H49.88V204.69Z" fill="#F5F5F5"/>
<path d="M53.78 271.19H34.31L38.94 267.71H49.89L53.78 271.19Z" fill="#EBEBEB"/>
<path d="M79.15 271.25H75.64L75.68 268.23L79.15 271.25Z" fill="#E0E0E0"/>
<path d="M75.68 205.33L75.64 271.25L53.78 271.19L49.89 267.71V205.2L75.68 205.33Z" fill="#E0E0E0"/>
<path d="M40.31 252.88C40.31 254.308 39.8866 255.704 39.0932 256.891C38.2999 258.079 37.1723 259.004 35.853 259.55C34.5337 260.097 33.082 260.24 31.6815 259.961C30.2809 259.683 28.9944 258.995 27.9847 257.985C26.975 256.976 26.2873 255.689 26.0087 254.289C25.7301 252.888 25.8731 251.436 26.4196 250.117C26.9661 248.798 27.8915 247.67 29.0788 246.877C30.2661 246.083 31.662 245.66 33.09 245.66C35.0049 245.66 36.8413 246.421 38.1953 247.775C39.5493 249.129 40.31 250.965 40.31 252.88Z" fill="#EBEBEB"/>
<path d="M63.13 252.88C63.13 254.308 62.7066 255.704 61.9132 256.891C61.1199 258.079 59.9923 259.004 58.673 259.55C57.3537 260.097 55.902 260.24 54.5015 259.961C53.1009 259.683 51.8144 258.995 50.8047 257.985C49.795 256.976 49.1073 255.689 48.8287 254.289C48.5501 252.888 48.6931 251.436 49.2396 250.117C49.7861 248.798 50.7115 247.67 51.8988 246.877C53.0861 246.083 54.482 245.66 55.91 245.66C57.8249 245.66 59.6613 246.421 61.0153 247.775C62.3693 249.129 63.13 250.965 63.13 252.88Z" fill="#EBEBEB"/>
<path d="M51.98 250.01H37.14V257.22H51.98V250.01Z" fill="#EBEBEB"/>
<path d="M25.88 252.88V271.25H31.21L38.85 257.22L25.88 252.88Z" fill="#EBEBEB"/>
<path d="M63.13 252.88V271.25H57.8L50.16 257.22L63.13 252.88Z" fill="#EBEBEB"/>
<path d="M25.88 269.33H28.53C29.2038 269.33 29.8643 269.143 30.4381 268.79C31.0119 268.437 31.4764 267.931 31.78 267.33L38.23 254.63H50.16V257.22H38.85L32.41 269.05C32.045 269.717 31.5068 270.274 30.8522 270.661C30.1975 271.048 29.4506 271.252 28.69 271.25H25.88V269.33Z" fill="#E0E0E0"/>
<path d="M63.13 269.33H60.47C59.7975 269.33 59.1381 269.144 58.5658 268.79C57.9935 268.437 57.531 267.931 57.23 267.33L50.78 254.63H38.85V257.22H50.16L56.6 269.05C56.9625 269.717 57.4987 270.274 58.1519 270.661C58.805 271.048 59.5507 271.252 60.31 271.25H63.13V269.33Z" fill="#E0E0E0"/>
<path d="M57.63 248.62H55.32V254.89H57.63V248.62Z" fill="white"/>
<path d="M53.34 250.59V252.9H59.61V250.59H53.34Z" fill="white"/>
<path d="M30.05 251.34C30.6686 251.34 31.17 250.839 31.17 250.22C31.17 249.601 30.6686 249.1 30.05 249.1C29.4314 249.1 28.93 249.601 28.93 250.22C28.93 250.839 29.4314 251.34 30.05 251.34Z" fill="white"/>
<path d="M34.62 251.34C35.2386 251.34 35.74 250.839 35.74 250.22C35.74 249.601 35.2386 249.1 34.62 249.1C34.0014 249.1 33.5 249.601 33.5 250.22C33.5 250.839 34.0014 251.34 34.62 251.34Z" fill="white"/>
<path d="M30.05 255.36C30.6686 255.36 31.17 254.859 31.17 254.24C31.17 253.621 30.6686 253.12 30.05 253.12C29.4314 253.12 28.93 253.621 28.93 254.24C28.93 254.859 29.4314 255.36 30.05 255.36Z" fill="white"/>
<path d="M34.62 255.36C35.2386 255.36 35.74 254.859 35.74 254.24C35.74 253.621 35.2386 253.12 34.62 253.12C34.0014 253.12 33.5 253.621 33.5 254.24C33.5 254.859 34.0014 255.36 34.62 255.36Z" fill="white"/>
<path d="M64.7924 50.0208C66.602 38.8725 59.0315 28.368 47.8832 26.5583C36.7349 24.7487 26.2304 32.3192 24.4208 43.4675C22.6112 54.6158 30.1817 65.1203 41.33 66.9299C52.4783 68.7396 62.9828 61.1691 64.7924 50.0208Z" fill="#E0E0E0"/>
<path d="M63.721 50.0169C65.5306 38.8685 57.9601 28.3641 46.8118 26.5544C35.6635 24.7448 25.159 32.3153 23.3494 43.4636C21.5397 54.6119 29.1102 65.1164 40.2585 66.926C51.4069 68.7357 61.9113 61.1652 63.721 50.0169Z" fill="#EBEBEB"/>
<path opacity="0.8" d="M43.28 63.15C52.343 63.15 59.69 55.8029 59.69 46.74C59.69 37.677 52.343 30.33 43.28 30.33C34.217 30.33 26.87 37.677 26.87 46.74C26.87 55.8029 34.217 63.15 43.28 63.15Z" fill="#FAFAFA"/>
<path d="M44.9 48.1C44.902 48.4311 44.8055 48.7554 44.6227 49.0315C44.44 49.3077 44.1793 49.5233 43.8737 49.6509C43.5682 49.7785 43.2316 49.8125 42.9067 49.7483C42.5818 49.6842 42.2833 49.525 42.0492 49.2908C41.815 49.0567 41.6558 48.7582 41.5916 48.4333C41.5275 48.1084 41.5614 47.7718 41.6891 47.4663C41.8167 47.1607 42.0323 46.9 42.3085 46.7172C42.5846 46.5345 42.9089 46.438 43.24 46.44C43.6803 46.44 44.1025 46.6149 44.4138 46.9262C44.7251 47.2375 44.9 47.6597 44.9 48.1Z" fill="#E0E0E0"/>
<path d="M43.05 48.71L35.99 42.07L36.67 41.34L43.07 47.36L54.53 37.23L55.2 37.98L43.05 48.71Z" fill="#E0E0E0"/>
<path d="M200.92 241.57H186.83V270.19H200.92V241.57Z" fill="#E6E6E6"/>
<path d="M207.28 270.7H180.59L187.1 264.97H200.77L207.28 270.7Z" fill="#E6E6E6"/>
<path d="M254.25 173.84H132.82C131.55 173.84 130.52 174.87 130.52 176.14V250.61C130.52 251.88 131.55 252.91 132.82 252.91H254.25C255.52 252.91 256.55 251.88 256.55 250.61V176.14C256.55 174.87 255.52 173.84 254.25 173.84Z" fill="#F0F0F0"/>
<path d="M251.85 178.78H135.1V247.68H251.85V178.78Z" fill="#E0E0E0"/>
<path d="M200.92 252.91H186.83V257.16H200.92V252.91Z" fill="#E0E0E0"/>
<path d="M376.49 146.69L373.2 148.69L314.32 64.14C310.56 58.58 311.69 54.14 315.32 51.88C318.95 49.62 323.43 50.57 326.75 56.41L376.49 146.69Z" fill="#E6E6E6"/>
<path d="M375 145.06L372.47 146.64C371.01 147.54 370.35 149.11 370.99 150.13C371.62 151.13 373.32 151.25 374.77 150.35L377.3 148.77C378.76 147.87 379.42 146.31 378.79 145.28C378.11 144.26 376.41 144.16 375 145.06Z" fill="#E6E6E6"/>
<path d="M309.85 146.69L313.14 148.69L372 64.18C375.76 58.62 374.63 54.18 371 51.92C367.36 49.66 362.89 50.61 359.56 56.45L309.85 146.69Z" fill="#F5F5F5"/>
<path d="M311.38 145.06L313.91 146.64C315.37 147.54 316.03 149.11 315.39 150.13C314.76 151.13 313.06 151.25 311.61 150.35L309.07 148.77C307.62 147.87 306.96 146.31 307.59 145.28C308.23 144.26 309.92 144.16 311.38 145.06Z" fill="#F5F5F5"/>
<path d="M195 390.01C302.082 390.01 388.89 384.942 388.89 378.69C388.89 372.438 302.082 367.37 195 367.37C87.9175 367.37 1.10999 372.438 1.10999 378.69C1.10999 384.942 87.9175 390.01 195 390.01Z" fill="#F5F5F5"/>
<path d="M194.15 91.4401H194.1C193.987 91.4298 193.882 91.3817 193.8 91.3036C193.718 91.2255 193.665 91.122 193.65 91.0101C193.08 86.7801 190.44 82.7501 186.21 79.6601C183.666 77.7822 180.775 76.4274 177.705 75.6739C174.634 74.9203 171.444 74.7831 168.32 75.2701C168.212 75.2893 168.1 75.2722 168.003 75.2216C167.905 75.171 167.827 75.0896 167.78 74.9901C167.731 74.8924 167.717 74.7813 167.739 74.6745C167.76 74.5676 167.817 74.471 167.9 74.4001C169.655 72.9552 170.906 70.9902 171.472 68.7886C172.038 66.5869 171.89 64.2623 171.05 62.1501C169.28 57.8901 164.58 54.6401 159.35 54.0401C159.23 54.03 159.118 53.975 159.036 53.8861C158.955 53.7971 158.91 53.6807 158.91 53.5601C158.906 53.4385 158.946 53.3197 159.024 53.2258C159.101 53.1319 159.21 53.0695 159.33 53.0501C161.836 52.688 164.223 51.7501 166.305 50.31C168.387 48.8699 170.107 46.9668 171.33 44.7501C172.308 43.0741 172.878 41.1917 172.994 39.2549C173.11 37.3181 172.77 35.3811 172 33.6001C171.947 33.4841 171.94 33.3522 171.981 33.2314C172.022 33.1105 172.107 33.0099 172.22 32.9501C172.331 32.8897 172.461 32.8736 172.583 32.9052C172.706 32.9367 172.812 33.0135 172.88 33.1201C175.37 37.1201 180.88 39.4501 186.04 38.7601C191.2 38.0701 195.37 34.4101 196.1 30.0601C196.1 29.9275 196.153 29.8003 196.246 29.7065C196.34 29.6127 196.467 29.5601 196.6 29.5601C196.733 29.5601 196.86 29.6127 196.954 29.7065C197.047 29.8003 197.1 29.9275 197.1 30.0601C198.58 43.9301 212.56 48.1501 219.74 48.4501C219.851 48.4562 219.957 48.4987 220.042 48.5709C220.127 48.6431 220.186 48.7412 220.21 48.8501C220.234 48.9588 220.221 49.0725 220.172 49.1725C220.122 49.2724 220.041 49.3527 219.94 49.4001C219.67 49.5401 213.29 52.8001 214.23 59.8101C214.552 62.8955 215.607 65.8592 217.306 68.4545C219.006 71.0497 221.301 73.2013 224 74.7301C224.103 74.7871 224.182 74.8785 224.224 74.9882C224.266 75.0979 224.268 75.219 224.23 75.3301C224.192 75.4416 224.116 75.5364 224.016 75.5984C223.915 75.6604 223.797 75.6857 223.68 75.6701C211.3 73.8001 198 80.8701 194.63 91.0901C194.598 91.1921 194.534 91.2811 194.448 91.3441C194.361 91.4071 194.257 91.4407 194.15 91.4401ZM172 73.9401C177.332 73.9857 182.515 75.703 186.82 78.8501C190.429 81.3153 193.078 84.9495 194.32 89.1401C198.38 79.9701 210.14 73.6401 221.64 74.4401C219.316 72.745 217.369 70.5867 215.922 68.1013C214.474 65.6159 213.558 62.8575 213.23 60.0001C212.48 54.3601 216.12 50.8801 218.17 49.4001C210.83 48.6401 198.97 44.4001 196.45 32.4001C195.495 34.3922 194.051 36.1105 192.254 37.3955C190.457 38.6804 188.364 39.4904 186.17 39.7501C183.937 40.0267 181.67 39.812 179.528 39.1211C177.386 38.4302 175.421 37.2797 173.77 35.7501C174.396 38.9797 173.85 42.3267 172.23 45.1901C171.136 47.1836 169.66 48.942 167.885 50.3645C166.111 51.7869 164.074 52.8457 161.89 53.4801C166.46 54.7101 170.35 57.8301 171.97 61.7301C172.8 63.7871 173.025 66.0382 172.619 68.2189C172.214 70.3995 171.194 72.419 169.68 74.0401C170.451 73.9656 171.225 73.9323 172 73.9401Z" fill="#1FA29E"/>
<path d="M338 313.22L366.46 324.38C367.28 323.67 372.13 314.1 372.13 314.1L346.9 302.45L338 313.22Z" fill="#FFB573"/>
<path d="M364.11 330.74C363.39 332.23 362.47 333.56 361.59 333.66C361.355 333.695 361.116 333.656 360.904 333.549C360.692 333.441 360.52 333.27 360.41 333.06C360.298 332.885 360.224 332.69 360.191 332.485C360.158 332.28 360.168 332.071 360.22 331.87C360.64 329.69 364.92 326.81 365.1 326.69C365.152 326.656 365.213 326.638 365.275 326.638C365.337 326.638 365.398 326.656 365.45 326.69C365.501 326.726 365.54 326.777 365.561 326.836C365.583 326.895 365.586 326.959 365.57 327.02C365.201 328.303 364.712 329.549 364.11 330.74ZM360.96 331.44C360.877 331.624 360.81 331.815 360.76 332.01C360.729 332.13 360.724 332.255 360.745 332.378C360.766 332.5 360.812 332.617 360.88 332.72C361.13 333.08 361.32 333.1 361.46 333.09C362.46 332.91 363.93 330 364.68 327.73C363.217 328.723 361.961 329.989 360.98 331.46L360.96 331.44Z" fill="#1FA29E"/>
<path d="M365.53 327.11L365.44 327.21C364.13 328.29 360.28 329.81 359.09 328.95C358.891 328.783 358.756 328.553 358.706 328.298C358.657 328.043 358.697 327.779 358.82 327.55C358.913 327.263 359.063 326.997 359.26 326.769C359.458 326.54 359.699 326.354 359.97 326.22C361.91 325.35 365.14 326.58 365.28 326.62C365.334 326.629 365.385 326.652 365.427 326.688C365.469 326.723 365.501 326.768 365.52 326.82L365.53 327.11ZM359.47 327.59L359.34 327.74C359.16 328.25 359.34 328.37 359.39 328.42C360.05 328.98 362.99 328.02 364.55 327.03C363.178 326.51 361.679 326.43 360.26 326.8C359.904 326.951 359.621 327.234 359.47 327.59Z" fill="#1FA29E"/>
<path d="M364.32 324.19L369.25 312.78C369.354 312.547 369.536 312.358 369.763 312.243C369.991 312.128 370.251 312.096 370.5 312.15L380.91 314C381.91 314.25 382.26 316.55 382.21 316.66C379.87 323.93 373.7 339.06 371.46 343.97C369.22 348.88 364.07 347.3 364.55 345.1C366.68 335.19 365.55 330.55 364.24 326.51C363.97 325.755 363.999 324.925 364.32 324.19Z" fill="#263238"/>
<g opacity="0.2">
<path d="M355.76 306.52L346.94 302.44L338.04 313.23L351.06 318.33L355.76 306.52Z" fill="black"/>
</g>
<path d="M304.59 203.43C305.489 205.503 306.14 207.675 306.53 209.9C308.82 221.59 312 261.26 314.07 276.34C314.322 277.841 314.955 279.252 315.907 280.438C316.859 281.625 318.1 282.548 319.51 283.12C327.73 286.99 333.08 288.17 351.63 303.4C349.39 308.15 347.26 311.5 345.23 317.07C345.23 317.07 308 300.86 299.83 294.13C287.78 284.23 273.6 234.62 269.34 221.18C266.92 213.55 265.13 204.42 269.59 197.84C272.09 194.15 296.53 182.91 304.59 203.43Z" fill="#263238"/>
<path d="M212 69.09L208.08 60.92L202.29 52.54C202.29 52.54 196.59 57.33 195.77 58.09C194.95 58.85 196.22 67.63 201.23 70.83C204.088 72.7073 207.301 73.9769 210.67 74.56L212 69.09Z" fill="#FFB573"/>
<path d="M208.05 60.92L202.26 52.54C201.894 51.9423 201.309 51.5116 200.63 51.34L196.18 50.25C195.713 50.1254 195.221 50.1307 194.757 50.2654C194.293 50.4001 193.875 50.659 193.548 51.0142C193.22 51.3695 192.996 51.8075 192.9 52.2808C192.803 52.7542 192.838 53.245 193 53.7L196.05 62.38L208.05 60.92Z" fill="#FFB573"/>
<path d="M272.22 111.6C272.22 111.6 265.71 127.3 264.63 134.6C263.55 141.9 265.42 177.98 266.53 184.43C267.64 190.88 303.69 191.72 310.29 185.78L323.43 132.78C323.864 131.06 323.934 129.269 323.634 127.52C323.334 125.772 322.672 124.106 321.689 122.629C320.707 121.152 319.426 119.897 317.93 118.945C316.433 117.993 314.754 117.364 313 117.1C310 116.65 307.9 116.29 308.47 116.21L272.22 111.6Z" fill="#1FA29E"/>
<path d="M286.79 118.64C289.41 121.93 289.29 128.78 287.03 132.32C285.03 135.4 281.03 136.69 277.42 136.41C273.81 136.13 270.36 134.54 267.06 132.97C258.767 129.023 250.533 124.963 242.36 120.79C235.23 117.16 227.95 113.3 222.75 107.22C215.88 99.2201 203.29 76.4201 202.51 74.1201C201.73 71.8201 211.11 65.9501 212.92 67.9201C217.92 73.3901 233.28 96.5201 237.43 98.9801C242.17 101.77 280.65 111 286.79 118.64Z" fill="#1FA29E"/>
<path opacity="0.1" d="M286.79 118.64C289.41 121.93 289.29 128.78 287.03 132.32C285.03 135.4 281.03 136.69 277.42 136.41C273.81 136.13 270.36 134.54 267.06 132.97C258.767 129.023 250.533 124.963 242.36 120.79C235.23 117.16 227.95 113.3 222.75 107.22C215.88 99.2201 203.29 76.4201 202.51 74.1201C201.73 71.8201 211.11 65.9501 212.92 67.9201C217.92 73.3901 233.28 96.5201 237.43 98.9801C242.17 101.77 280.65 111 286.79 118.64Z" fill="black"/>
<path d="M272.22 111.6C272.22 111.6 264.31 119.1 264.63 134.6C264.78 141.93 265.42 177.98 266.53 184.43C267.64 190.88 303.69 191.72 310.29 185.78L321.53 133.34C323.33 126.06 320.37 118.24 312.96 117.14C309.96 116.69 307.86 116.33 308.43 116.25L272.22 111.6Z" fill="#1FA29E"/>
<path d="M250.54 169.33L236.73 169C236.73 169 235.62 158.55 235.93 157.56C235.93 157.56 241.75 156.41 246.16 158.74L250.06 161.23L250.54 169.33Z" fill="#FFB573"/>
<path d="M239 169.15L236.42 157.62L231.14 157.87C230.909 157.882 230.682 157.943 230.476 158.049C230.27 158.155 230.089 158.304 229.946 158.486C229.802 158.668 229.698 158.878 229.642 159.103C229.586 159.328 229.578 159.562 229.62 159.79L230.8 166.1C230.921 166.765 231.257 167.372 231.755 167.829C232.253 168.285 232.887 168.567 233.56 168.63L239 169.15Z" fill="#FFB573"/>
<path d="M320 139.3C313.24 150.01 307.94 160.67 297.22 166.51C286.98 172.08 261.17 172.86 249.77 170.44C251 171.19 248.52 158.2 248.52 158.2C251.65 156.2 276.67 154.28 286.66 152.69C293.43 151.61 300.73 122.43 307.43 119.69C324.45 112.56 324.45 132.19 320 139.3Z" fill="#1FA29E"/>
<path opacity="0.1" d="M320 139.3C313.24 150.01 307.94 160.67 297.22 166.51C286.98 172.08 261.17 172.86 249.77 170.44C251 171.19 248.52 158.2 248.52 158.2C251.65 156.2 276.67 154.28 286.66 152.69C293.43 151.61 300.73 122.43 307.43 119.69C324.45 112.56 324.45 132.19 320 139.3Z" fill="white"/>
<path d="M266.53 184.39L265.72 195.46C265.232 201.785 265.748 208.147 267.25 214.31C269.08 221.62 271.4 225.18 271.4 225.18C271.4 225.18 299.53 237.49 310.73 225.24C321.93 212.99 310.29 185.74 310.29 185.74C295.706 187.16 280.999 186.706 266.53 184.39Z" fill="#263238"/>
<path opacity="0.4" d="M307.6 215.27C304.51 216.19 276.97 245.42 276.97 245.42L283.41 263.86L309.53 233.55L307.6 215.27Z" fill="black"/>
<path d="M223.73 335.06L221.38 365.53C222.3 366.11 232.47 370.85 232.87 367.94C234.1 359.06 236.64 340.41 236.64 340.41L223.73 335.06Z" fill="#FFB573"/>
<path d="M214.59 365.1C212.96 364.85 211.43 364.36 211.07 363.55C210.967 363.337 210.934 363.096 210.975 362.863C211.017 362.63 211.13 362.415 211.3 362.25C211.432 362.089 211.596 361.958 211.782 361.865C211.969 361.772 212.172 361.719 212.38 361.71C214.59 361.48 218.59 364.71 218.76 364.86C218.808 364.901 218.844 364.954 218.861 365.015C218.879 365.075 218.879 365.14 218.86 365.2C218.84 365.26 218.803 365.313 218.753 365.353C218.704 365.392 218.643 365.415 218.58 365.42C217.243 365.439 215.907 365.331 214.59 365.1ZM213 362.3C212.804 362.28 212.606 362.28 212.41 362.3C212.286 362.306 212.164 362.338 212.052 362.393C211.94 362.448 211.841 362.525 211.76 362.62C211.48 362.97 211.53 363.15 211.58 363.28C212.04 364.2 215.25 364.74 217.64 364.8C216.267 363.69 214.691 362.858 213 362.35V362.3Z" fill="#1FA29E"/>
<path d="M218.48 365.4L218.36 365.34C216.94 364.4 214.36 361.17 214.85 359.78C214.948 359.538 215.128 359.338 215.358 359.216C215.588 359.093 215.855 359.056 216.11 359.11C216.411 359.115 216.707 359.18 216.982 359.302C217.257 359.424 217.505 359.6 217.71 359.82C219.11 361.42 218.88 364.88 218.88 365.02C218.889 365.073 218.883 365.128 218.861 365.178C218.84 365.227 218.805 365.27 218.76 365.3L218.48 365.4ZM216.25 359.74L216.07 359.67C215.54 359.67 215.47 359.84 215.44 359.92C215.09 360.71 216.87 363.23 218.27 364.44C218.377 362.977 218.028 361.516 217.27 360.26C217.007 359.965 216.643 359.78 216.25 359.74Z" fill="#1FA29E"/>
<path d="M220.92 363.39L233.27 364.77C233.528 364.793 233.769 364.905 233.952 365.088C234.135 365.271 234.247 365.512 234.27 365.77L235.55 376.27C235.61 377.33 233.55 378.27 233.38 378.27C225.75 378.16 209.47 376.67 204.12 375.97C198.77 375.27 198.78 369.88 201.03 369.69C211.12 368.84 215.22 366.36 218.71 363.96C219.349 363.5 220.138 363.296 220.92 363.39Z" fill="#263238"/>
<g opacity="0.2">
<path d="M235.38 349.63L236.64 340.41L223.73 335.06L222.92 347.54L235.38 349.63Z" fill="black"/>
</g>
<path d="M313.66 221.32C307.18 232.77 277.66 255.81 262.59 273.32C257.69 279 253.37 285.15 252.2 292.56C249.44 309.86 240.93 326.33 236.64 343.7C232.8 345.18 230.7 344.9 226.82 343.5C221.38 341.5 221.28 340.91 222.15 333.69C222.97 326.88 217.99 318.87 225.39 279.53C229.98 255.11 260.77 224.19 290.84 196.61C295.84 191.99 303.38 190.61 310.94 195.09C312.32 195.89 320 210.21 313.66 221.32Z" fill="#263238"/>
<path d="M299.35 102C303.55 98.68 307.35 94.55 308.98 89.46C310.61 84.37 309.76 78.23 305.81 74.63C305.49 74.34 305.07 74.05 304.67 74.21C304.522 74.2973 304.395 74.416 304.299 74.5577C304.202 74.6994 304.137 74.8607 304.11 75.03C301.24 83.82 302.92 93.41 299.35 102Z" fill="#263238"/>
<path d="M298.32 96.52C297.65 102.52 297.22 111.17 301.65 114.75C301.65 114.75 301.92 120.75 285.83 128.6C279.14 120.51 283.32 116.26 283.32 116.26C289.77 114.16 289.37 111.51 287.86 107.03L298.32 96.52Z" fill="#FFB573"/>
<path opacity="0.2" d="M294.07 100.76L287.93 107C288.3 108.037 288.578 109.104 288.76 110.19C291.25 109.63 295.01 107.19 295.33 104.41C295.218 103.108 294.785 101.854 294.07 100.76Z" fill="black"/>
<path d="M305.17 85.81C303.32 95.66 302.74 99.81 297.1 104.31C288.61 111.02 276.92 106.59 275.79 96.41C274.79 87.23 277.98 72.62 288.18 69.95C290.427 69.3378 292.793 69.3098 295.054 69.8688C297.315 70.4277 299.396 71.555 301.099 73.1438C302.802 74.7325 304.07 76.73 304.785 78.9467C305.499 81.1634 305.635 83.5259 305.18 85.81H305.17Z" fill="#FFB573"/>
<path d="M289 86.4301C288.89 87.2301 288.38 87.8401 287.85 87.7801C287.32 87.7201 286.98 87.0001 287.07 86.1901C287.16 85.3801 287.69 84.7801 288.21 84.8401C288.73 84.9001 289.09 85.6601 289 86.4301Z" fill="#263238"/>
<path d="M279.91 85.3101C279.81 86.1301 279.29 86.7101 278.77 86.6501C278.25 86.5901 277.9 85.8701 277.99 85.0701C278.08 84.2701 278.61 83.6601 279.13 83.7301C279.65 83.8001 280 84.5001 279.91 85.3101Z" fill="#263238"/>
<path d="M282.54 87.12C281.588 88.8737 280.4 90.4887 279.01 91.92C279.389 92.2624 279.836 92.5199 280.323 92.6751C280.809 92.8303 281.323 92.8797 281.83 92.82L282.54 87.12Z" fill="#ED893E"/>
<path d="M285.83 96.5201C285.429 96.5355 285.027 96.5154 284.63 96.4601C284.568 96.455 284.511 96.426 284.47 96.3794C284.429 96.3328 284.407 96.2721 284.41 96.2101C284.422 96.1472 284.458 96.0914 284.51 96.0542C284.562 96.017 284.627 96.0012 284.69 96.0101C285.691 96.1528 286.711 96.0599 287.669 95.7387C288.627 95.4176 289.498 94.877 290.21 94.1601C290.232 94.1377 290.259 94.1199 290.288 94.1078C290.317 94.0957 290.348 94.0895 290.38 94.0895C290.412 94.0895 290.443 94.0957 290.472 94.1078C290.501 94.1199 290.528 94.1377 290.55 94.1601C290.593 94.2063 290.617 94.267 290.617 94.3301C290.617 94.3931 290.593 94.4538 290.55 94.5001C289.936 95.1319 289.202 95.6357 288.392 95.9824C287.582 96.3291 286.711 96.5119 285.83 96.5201Z" fill="#263238"/>
<path d="M292.93 85.05C292.829 85.056 292.728 85.0291 292.643 84.9732C292.559 84.9173 292.494 84.8355 292.46 84.74C292.108 84.0459 291.615 83.433 291.012 82.9405C290.409 82.448 289.71 82.0868 288.96 81.88C288.838 81.8449 288.734 81.7638 288.671 81.6537C288.607 81.5437 288.589 81.4133 288.62 81.29C288.634 81.2296 288.66 81.1727 288.697 81.1226C288.733 81.0725 288.779 81.0303 288.833 80.9985C288.886 80.9668 288.945 80.9461 289.006 80.9378C289.068 80.9294 289.13 80.9336 289.19 80.95C290.093 81.1934 290.933 81.6296 291.651 82.2287C292.369 82.8277 292.949 83.5753 293.35 84.42C293.386 84.5382 293.377 84.6656 293.323 84.7769C293.269 84.8882 293.175 84.975 293.06 85.02C293.02 85.0411 292.975 85.0515 292.93 85.05Z" fill="#263238"/>
<path d="M277.7 80.7601C277.615 80.7598 277.531 80.7387 277.456 80.6986C277.381 80.6585 277.317 80.6006 277.27 80.5301C277.205 80.4204 277.184 80.2898 277.212 80.1653C277.24 80.0407 277.314 79.9315 277.42 79.8601C278.058 79.4306 278.792 79.1633 279.557 79.0814C280.322 78.9995 281.095 79.1055 281.81 79.3901C281.921 79.4385 282.008 79.5285 282.053 79.6408C282.098 79.7531 282.097 79.8786 282.05 79.9901C281.998 80.1048 281.902 80.1944 281.784 80.2393C281.666 80.2842 281.535 80.2809 281.42 80.2301C280.855 80.0264 280.251 79.9583 279.655 80.0313C279.059 80.1042 278.489 80.3162 277.99 80.6501C277.909 80.7185 277.806 80.7573 277.7 80.7601Z" fill="#263238"/>
<path d="M306.91 93.7801C306.066 95.4775 304.585 96.7718 302.79 97.3801C300.39 98.1601 299.08 96.0401 299.65 93.7101C300.18 91.6101 302.06 88.7101 304.51 88.8801C305.362 88.9756 306.142 89.405 306.678 90.0742C307.214 90.7433 307.463 91.5977 307.37 92.4501C307.313 92.921 307.156 93.3743 306.91 93.7801Z" fill="#FFB573"/>
<path d="M270.3 90.58C274.313 83.8117 280.224 78.3701 287.3 74.93C292.16 80.93 294.1 89.3 295.59 96.84C295.59 96.84 302.72 92.68 304.54 88.84C306.36 85 308.27 79.17 306.69 75.27C305.804 72.9348 304.15 70.9704 302 69.7C299.68 68.44 293.49 64.89 284 68.41C281.5 69.33 278.95 71.79 277.16 73.71C275.025 76.0083 273.33 78.6793 272.16 81.59C271.567 83.0716 271.111 84.6048 270.8 86.17C270.5 87.32 270.79 89.6 270.3 90.58Z" fill="#263238"/>
<path d="M219.6 334.79C219.49 334.79 219.37 343.67 219.37 343.67L239.82 346.36L240.96 338.36L219.6 334.79Z" fill="#1FA29E"/>
<path opacity="0.6" d="M219.6 334.79C219.49 334.79 219.37 343.67 219.37 343.67L239.82 346.36L240.96 338.36L219.6 334.79Z" fill="white"/>
<path d="M338.32 317.65C338.32 317.75 345.99 320.65 345.99 320.65L355.18 300.2L348.53 296.6L338.32 317.65Z" fill="#1FA29E"/>
<path opacity="0.6" d="M338.32 317.65C338.32 317.75 345.99 320.65 345.99 320.65L355.18 300.2L348.53 296.6L338.32 317.65Z" fill="white"/>
<path d="M174.47 298.52C172.61 291.12 170.64 282.34 168.01 274.19L152.43 280.35C152.573 282.06 152.82 283.76 153.17 285.44C157.61 304.04 160.55 306.38 174.73 335.82C172.03 335.06 181.18 339.35 183.34 332.27C183.34 332.27 176.44 306.32 174.47 298.52Z" fill="#FF8B7B"/>
<path opacity="0.2" d="M152.43 280.35L155.19 293.78L171.72 287.37L168 274.19C166.53 272.8 152.43 280.35 152.43 280.35Z" fill="black"/>
<path d="M170.78 280.48L152.1 286.22L146.41 274.28C145.8 273.002 144.844 271.921 143.65 271.16C134.07 265.04 89.72 236.49 80.87 226.62C70.43 214.99 75.87 201.41 77.08 200.46C83.59 195.24 93.08 197.85 99.08 200.37C104.86 202.79 152.08 239.85 163.44 259.37C167.87 265 170.78 280.48 170.78 280.48Z" fill="#1FA29E"/>
<path opacity="0.1" d="M170.78 280.48L152.1 286.22L146.41 274.28C145.8 273.002 144.844 271.921 143.65 271.16C134.07 265.04 89.72 236.49 80.87 226.62C70.43 214.99 75.87 201.41 77.08 200.46C83.59 195.24 93.08 197.85 99.08 200.37C104.86 202.79 152.08 239.85 163.44 259.37C167.87 265 170.78 280.48 170.78 280.48Z" fill="black"/>
<path d="M185.88 333.78C185.829 333.788 185.776 333.779 185.731 333.754C185.685 333.728 185.65 333.688 185.63 333.64C185.605 333.592 185.593 333.539 185.593 333.485C185.593 333.431 185.605 333.378 185.63 333.33C185.75 333.18 188.51 329.72 190.25 329.58C190.414 329.56 190.58 329.578 190.736 329.632C190.892 329.685 191.033 329.774 191.15 329.89C191.306 330.024 191.42 330.2 191.478 330.397C191.537 330.593 191.537 330.803 191.48 331C191.29 331.76 190.15 332.42 188.9 332.89C187.929 333.296 186.916 333.594 185.88 333.78ZM189.88 330.21C188.588 330.94 187.45 331.915 186.53 333.08C188.39 332.66 190.83 331.68 191.09 330.81C191.09 330.69 191.09 330.52 190.87 330.26C190.8 330.19 190.715 330.138 190.621 330.107C190.527 330.075 190.428 330.066 190.33 330.08C190.173 330.101 190.019 330.138 189.87 330.19L189.88 330.21Z" fill="#1FA29E"/>
<path d="M185.73 333.71C185.689 333.688 185.655 333.654 185.632 333.614C185.609 333.573 185.598 333.527 185.6 333.48C185.6 333.36 185.01 330.37 185.92 328.75C186.046 328.532 186.216 328.341 186.419 328.192C186.622 328.042 186.854 327.936 187.1 327.88C187.292 327.8 187.507 327.795 187.702 327.868C187.897 327.94 188.057 328.084 188.15 328.27C188.68 329.41 187.04 332.64 186.04 333.68L185.95 333.75L185.73 333.71ZM186.34 329.06C185.877 330.278 185.762 331.601 186.01 332.88C187.01 331.61 188.07 329.12 187.71 328.48C187.71 328.42 187.6 328.26 187.18 328.36L187.05 328.46C186.746 328.562 186.492 328.777 186.34 329.06Z" fill="#1FA29E"/>
<path d="M183.82 332.37L174.35 335.47C174.152 335.548 173.985 335.687 173.871 335.867C173.758 336.047 173.705 336.258 173.72 336.47L173.89 345.86C173.97 346.8 175.72 347.33 175.81 347.3C181.74 346.03 194.26 342.23 198.35 340.79C202.44 339.35 201.83 334.63 200.06 334.79C192.06 335.59 188.63 334.06 185.64 332.49C185.362 332.343 185.056 332.256 184.743 332.235C184.429 332.215 184.115 332.261 183.82 332.37Z" fill="#263238"/>
<path d="M148.25 283C148.15 283 152.33 291.12 152.33 291.12L173.9 282.78L171.06 275L148.25 283Z" fill="#1FA29E"/>
<path opacity="0.6" d="M148.25 283C148.15 283 152.33 291.12 152.33 291.12L173.9 282.78L171.06 275L148.25 283Z" fill="white"/>
<path d="M97.74 100.51C96.28 105.71 95.92 111.29 103.37 113.32C103.37 113.32 110.37 120.37 96.58 119.94C84.05 119.56 82.42 112.67 82.42 112.67C87.28 108.31 86.42 95.93 85.23 89.14L97.74 100.51Z" fill="#FF8B7B"/>
<path d="M108.87 89.7701C108.87 90.0501 108.87 90.3301 108.82 90.6001C108.77 90.8701 108.82 91.0401 108.82 91.2601C108.82 91.4801 108.74 91.8101 108.69 92.0801C108.584 92.6846 108.43 93.2798 108.23 93.8601C107.461 96.2078 106.013 98.2749 104.069 99.8002C102.125 101.326 99.7734 102.241 97.31 102.43C94.6312 102.583 91.9839 101.79 89.83 100.19C88.7877 99.4524 87.8493 98.5778 87.04 97.5901C86.7033 97.1707 86.3895 96.7334 86.1 96.2801C83.92 92.8301 83.1 88.3501 81.63 82.1101C81.1603 80.2076 81.1398 78.2219 81.57 76.3101C82.318 73.1119 84.2995 70.3389 87.0829 68.5951C89.8662 66.8513 93.2259 66.278 96.43 67.0001C100.16 67.8101 102.97 70.3801 104.97 73.6901L105.06 73.8601C105.23 74.1301 105.38 74.4101 105.53 74.6901C106.098 75.7757 106.592 76.8982 107.01 78.0501C107.29 78.8501 107.54 79.6701 107.76 80.4901C107.99 81.3301 108.18 82.1801 108.33 83.0301C108.621 84.5852 108.798 86.1593 108.86 87.7401C108.88 88.4401 108.88 89.1201 108.87 89.7701Z" fill="#FF8B7B"/>
<path d="M99 60.18C100 58.64 98.29 56.65 96.4 56.25C93.45 55.62 90.16 57.66 89.65 60.43C88.29 57.35 83.65 56.01 80.65 57.82C79.9412 58.2666 79.3395 58.8639 78.8877 59.5695C78.436 60.2751 78.1454 61.0716 78.0365 61.9023C77.9277 62.733 78.0033 63.5774 78.258 64.3756C78.5127 65.1737 78.9401 65.9059 79.51 66.52C78.5725 65.9232 77.4608 65.6607 76.3554 65.7751C75.2499 65.8895 74.2155 66.374 73.42 67.15C72.7134 67.9407 72.3387 68.9733 72.3741 70.0331C72.4095 71.0929 72.8522 72.0983 73.61 72.84C69.61 73.08 66.05 76.28 65.67 80C65.29 83.72 68.13 87.48 72.02 88.42C71.3645 89.181 70.9884 90.1429 70.9538 91.1466C70.9193 92.1504 71.2284 93.1358 71.83 93.94C72.5109 94.7431 73.418 95.3224 74.4329 95.6024C75.4479 95.8825 76.5236 95.8503 77.52 95.51C77.1452 96.266 77.04 97.1273 77.2219 97.9512C77.4038 98.7751 77.8618 99.5121 78.52 100.04C79.2326 100.578 80.091 100.889 80.983 100.932C81.875 100.975 82.7591 100.747 83.52 100.28C84.4054 100.768 85.3859 101.057 86.394 101.13C87.4021 101.202 88.414 101.056 89.36 100.7C90.2705 100.351 91.0862 99.7922 91.7411 99.0696C92.396 98.3469 92.8717 97.4804 93.13 96.54C94.1043 96.4628 95.0471 96.1596 95.8838 95.6544C96.7205 95.1493 97.4279 94.4562 97.95 93.63C98.423 92.8247 98.6798 91.9107 98.6956 90.9769C98.7113 90.043 98.4855 89.1209 98.04 88.3C99.5 87.06 101.04 85.74 101.58 83.98C102.12 82.22 101.28 79.98 99.36 79.54C99.8698 79.1787 100.285 78.7006 100.572 78.1455C100.859 77.5905 101.009 76.9748 101.009 76.35C101.009 75.7252 100.859 75.1095 100.572 74.5545C100.285 73.9995 99.8698 73.5213 99.36 73.16C101.64 72.9 104.1 72.55 105.69 71.01C107.28 69.47 107.12 66.33 104.92 65.72C105.387 65.419 105.782 65.019 106.078 64.5484C106.373 64.0777 106.561 63.5478 106.629 62.9963C106.696 62.4448 106.642 61.8852 106.47 61.357C106.297 60.8289 106.01 60.3451 105.63 59.94C104.752 59.1737 103.611 58.7778 102.447 58.8357C101.284 58.8935 100.188 59.4005 99.39 60.25C99.23 59.35 99.06 58.46 98.9 57.57L99 60.18Z" fill="#263238"/>
<path d="M97.11 79.2601C99.82 79.6301 101.74 83.26 102.21 85.7C102.74 88.37 101.21 90.34 98.57 88.88C96.5973 87.7379 95.0521 85.982 94.17 83.88C93.16 81.36 94.39 78.8801 97.11 79.2601Z" fill="#FF8B7B"/>
<path d="M108.87 89.81C108.87 90.09 108.87 90.37 108.82 90.64C108.77 90.91 108.82 91.08 108.82 91.3C108.82 91.52 108.74 91.85 108.69 92.12C108.584 92.7246 108.43 93.3198 108.23 93.9H108.18L107.83 93.75C106.763 93.3321 105.836 92.6196 105.158 91.6955C104.48 90.7713 104.078 89.6736 104 88.53L104.37 88.61C106.1 89 107.62 89.45 108.87 89.81Z" fill="#263238"/>
<path d="M108.64 92.12C108.534 92.7245 108.38 93.3197 108.18 93.9H108.13L107.78 93.75C106.918 93.3561 106.137 92.8031 105.48 92.12C106.326 91.8044 107.251 91.7659 108.12 92.01C108.295 92.0361 108.469 92.0728 108.64 92.12Z" fill="#A02724"/>
<path d="M104.31 88.5701C104.405 88.9263 104.586 89.2538 104.837 89.524C105.088 89.7942 105.402 89.9988 105.75 90.1201C106.75 90.5501 107.75 90.9301 108.75 91.2701C108.75 91.0501 108.75 90.8401 108.75 90.6101C108.75 90.3801 108.75 90.0601 108.8 89.7801C107.37 89.3101 105.84 88.9101 104.31 88.5701Z" fill="white"/>
<path d="M79.48 210.38L88 221.29C88 221.29 97 215.93 97.65 215.09C97.65 215.09 95.1 209.74 90.6 207.59L86.23 206L79.48 210.38Z" fill="#FF8B7B"/>
<path d="M86.55 219.56L97.33 214.74L101.33 220.67L93.9 224.32C93.2954 224.618 92.61 224.711 91.9477 224.585C91.2854 224.459 90.6824 224.12 90.23 223.62L86.55 219.56Z" fill="#FF8B7B"/>
<path d="M69.59 117.16C66.25 119.82 64.13 123.72 62.59 127.72C58.47 138.62 47.83 164.78 51.79 175.72C55.75 186.66 73.95 207.97 84.08 213.72C88.77 214.25 91.18 213.22 89.86 208.72C88.54 204.22 83 198 75.3 186.74C71.3 180.82 66.09 174.92 66.66 167.74C67.1 162.19 77.4 137.51 79.81 132.49C83.86 124.06 82.37 107 69.59 117.16Z" fill="#FF8B7B"/>
<path d="M100.76 220.14L103.88 223.56L102.1 224.44L97.01 220.24L99.82 218.87L100.76 220.14Z" fill="#FF8B7B"/>
<path d="M90.75 208.08C93.2553 208.6 95.7955 208.934 98.35 209.08C100.1 209.01 98.67 211.4 98.67 211.4L93 212L90.75 208.08Z" fill="#FF8B7B"/>
<path d="M119.49 110.18C111.818 108.418 103.876 108.173 96.11 109.46C84.01 111.68 67.75 110.02 67.82 129.62C67.82 139.69 70.44 151.75 72.82 160.62C75.2935 170.024 76.4975 179.717 76.4 189.44V191.2C76.4 191.2 94.13 207.38 120.51 190.47L119.49 110.18Z" fill="#263238"/>
<path d="M126.31 314.73C128.697 311.28 130.887 307.697 132.87 304C143.48 284.18 132.58 233.65 130.36 219.29C129.1 211.14 126.52 201.98 119.1 198.39C114.93 196.39 109.96 196.62 105.56 198.05L105.07 198.2C100.023 199.747 95.6142 202.89 92.5055 207.156C89.3969 211.422 87.7563 216.582 87.83 221.86C87.8904 224.884 88.2252 227.896 88.83 230.86C90.83 240.86 95.46 250.17 99.96 259.35C104.46 268.53 108.96 277.89 110.77 287.95C111.428 290.894 111.462 293.942 110.87 296.9C110.224 299.082 108.951 301.025 107.21 302.49L126.31 314.73Z" fill="#1FA29E"/>
<path d="M76.35 191.2C76.35 191.2 72.65 209.91 75.62 217.73C80.86 231.53 87.45 229.62 92.51 230.31C97.57 231 127.69 224.59 128.81 211.23C128.81 211.23 124.42 194.42 120.46 190.47C118.09 188.09 93.81 196.8 76.35 191.2Z" fill="#1FA29E"/>
<path d="M106.93 78.06C107.41 77.98 107.93 78.52 108.03 79.24C108.13 79.96 107.88 80.64 107.39 80.72C106.9 80.8 106.39 80.27 106.29 79.54C106.19 78.81 106.46 78.14 106.93 78.06Z" fill="#263238"/>
<path d="M108 87.7701C108.624 87.8163 109.251 87.7257 109.836 87.5046C110.422 87.2835 110.952 86.9373 111.39 86.4901C109.612 84.8109 108.069 82.9005 106.8 80.8101L108 87.7701Z" fill="#ED847E"/>
<path d="M102.91 75.86C102.806 75.8522 102.707 75.81 102.63 75.74C102.588 75.6999 102.555 75.6518 102.532 75.5985C102.51 75.5452 102.498 75.4879 102.498 75.43C102.498 75.3721 102.51 75.3148 102.532 75.2616C102.555 75.2083 102.588 75.1602 102.63 75.12C103.11 74.6233 103.701 74.2487 104.356 74.0277C105.01 73.8067 105.707 73.7458 106.39 73.85C106.446 73.8618 106.499 73.8845 106.546 73.9168C106.593 73.9491 106.633 73.9903 106.664 74.0381C106.695 74.086 106.717 74.1395 106.727 74.1955C106.738 74.2516 106.737 74.3092 106.725 74.365C106.713 74.4208 106.69 74.4738 106.658 74.5208C106.626 74.5679 106.585 74.6081 106.537 74.6392C106.489 74.6703 106.436 74.6917 106.379 74.7021C106.323 74.7126 106.266 74.7118 106.21 74.7C105.667 74.6406 105.118 74.7081 104.607 74.8973C104.095 75.0864 103.634 75.3921 103.26 75.79C103.215 75.8346 103.162 75.8699 103.104 75.8939C103.046 75.9179 102.983 75.9302 102.92 75.93L102.91 75.86Z" fill="#263238"/>
<path d="M111.24 306.31C110.283 307.183 109.381 308.115 108.54 309.1C99.47 320.35 85.75 345.58 74.7 367.65C73.91 365.65 78.32 374.91 83.55 372.93C86.31 371.88 121.22 319.93 124.87 314.55L111.24 306.31Z" fill="#FF8B7B"/>
<path opacity="0.2" d="M111.24 304.92L105.94 312.64L119.47 322.38L124.87 314.55C125 313 111.24 304.92 111.24 304.92Z" fill="black"/>
<path d="M108.08 298.35C107.97 298.28 103.84 307.67 103.84 307.67L126.43 320.72L131.25 312.72L108.08 298.35Z" fill="#1FA29E"/>
<path opacity="0.6" d="M108.08 298.35C107.97 298.28 103.84 307.67 103.84 307.67L126.43 320.72L131.25 312.72L108.08 298.35Z" fill="white"/>
<path d="M90.85 365.34C90.7883 365.326 90.7322 365.294 90.6893 365.248C90.6464 365.201 90.6187 365.143 90.61 365.08C90.6027 365.016 90.615 364.951 90.6453 364.894C90.6757 364.837 90.7226 364.79 90.78 364.76C90.98 364.65 95.6 362.18 97.78 362.84C97.9908 362.886 98.1893 362.977 98.3618 363.106C98.5344 363.235 98.677 363.4 98.78 363.59C98.9238 363.786 99.0013 364.022 99.0013 364.265C99.0013 364.508 98.9238 364.744 98.78 364.94C98.27 365.68 96.64 365.86 94.96 365.8C93.5783 365.782 92.2016 365.628 90.85 365.34ZM97.03 363.34C95.2396 363.523 93.5012 364.049 91.91 364.89C94.31 365.3 97.63 365.37 98.26 364.55C98.34 364.43 98.42 364.25 98.26 363.86C98.1303 363.636 97.9188 363.471 97.67 363.4C97.4723 363.358 97.2718 363.331 97.07 363.32L97.03 363.34Z" fill="#1FA29E"/>
<path d="M90.7 365.2C90.6605 365.16 90.633 365.11 90.6206 365.055C90.6082 365 90.6115 364.943 90.63 364.89C90.63 364.75 91.09 361.25 92.8 359.89C93.0492 359.712 93.3316 359.586 93.6305 359.519C93.9294 359.452 94.2386 359.445 94.54 359.5C94.8047 359.497 95.0623 359.586 95.2685 359.752C95.4746 359.918 95.6166 360.151 95.67 360.41C95.88 361.89 92.67 364.62 91.08 365.28H90.95L90.7 365.2ZM93.18 360.46C92.1648 361.568 91.5245 362.968 91.35 364.46C92.98 363.53 95.25 361.35 95.05 360.46C95.05 360.38 95.05 360.17 94.47 360.09H94.28C93.88 360.071 93.4874 360.203 93.18 360.46Z" fill="#1FA29E"/>
<path d="M88.9 362.87L76.3 361.87C76.0404 361.852 75.7825 361.925 75.5708 362.076C75.3591 362.228 75.2068 362.448 75.14 362.7L71.83 372.93C71.57 373.93 73.49 375.36 73.6 375.37C81.25 376.74 97.79 378.37 103.27 378.74C108.75 379.11 109.79 373.69 107.58 373.06C97.66 370.26 94.05 366.99 91.03 363.92C90.481 363.31 89.7184 362.934 88.9 362.87Z" fill="#263238"/>
<path d="M188.24 71.9401C187.35 74.1201 172.55 99.1001 165.42 106.45C160.01 112.04 155.9 113.33 148.77 116.45C140.597 119.99 132.373 123.427 124.1 126.76C121.446 127.947 118.66 128.809 115.8 129.33C115.8 129.57 115.75 129.82 115.72 130.05C115.45 132.36 114.8 135.05 112.63 135.92C110.46 136.79 108.32 135.32 106.79 133.73C104.665 131.412 103.162 128.592 102.422 125.535C101.682 122.478 101.73 119.284 102.56 116.25C102.878 114.998 103.531 113.857 104.45 112.95C104.8 112.419 105.283 111.988 105.85 111.7C117.94 105.7 146.92 100.04 151.69 97.6101C155.86 95.4801 175.26 71.9801 180.46 66.9801C182.34 65.1501 189.14 69.7601 188.24 71.9401Z" fill="#FF8B7B"/>
<path d="M179.63 68.72L185.87 56.78C185.87 56.78 195.42 58.49 196.15 59.28C196.88 60.07 195.01 68.49 189.92 71.21C187.015 72.8114 183.812 73.7985 180.51 74.11L179.63 68.72Z" fill="#FF8B7B"/>
<path d="M185.87 56.78C185.87 56.78 190.26 47.78 192.22 46.78C192.59 46.58 194.56 48.54 196.05 49.97C196.677 50.5626 197.147 51.3009 197.419 52.1191C197.691 52.9374 197.757 53.8103 197.61 54.66C197.11 57.6 196.17 61.3 196.17 61.3L185.87 56.78Z" fill="#FF8B7B"/>
</svg>
