<svg xmlns="http://www.w3.org/2000/svg" viewBox="0 0 500 500"><g id="freepik--background-complete--inject-3"><rect x="416.78" y="398.49" width="33.12" height="0.25" style="fill:#ebebeb"></rect><rect x="322.53" y="401.21" width="8.69" height="0.25" style="fill:#ebebeb"></rect><rect x="396.59" y="389.21" width="19.19" height="0.25" style="fill:#ebebeb"></rect><rect x="52.46" y="390.89" width="43.19" height="0.25" style="fill:#ebebeb"></rect><rect x="104.56" y="390.89" width="6.33" height="0.25" style="fill:#ebebeb"></rect><rect x="131.47" y="395.11" width="93.68" height="0.25" style="fill:#ebebeb"></rect><path d="M237,337.8H43.91a5.71,5.71,0,0,1-5.7-5.71V60.66A5.71,5.71,0,0,1,43.91,55H237a5.71,5.71,0,0,1,5.71,5.71V332.09A5.71,5.71,0,0,1,237,337.8ZM43.91,55.2a5.46,5.46,0,0,0-5.45,5.46V332.09a5.46,5.46,0,0,0,5.45,5.46H237a5.47,5.47,0,0,0,5.46-5.46V60.66A5.47,5.47,0,0,0,237,55.2Z" style="fill:#ebebeb"></path><path d="M453.31,337.8H260.21a5.72,5.72,0,0,1-5.71-5.71V60.66A5.72,5.72,0,0,1,260.21,55h193.1A5.71,5.71,0,0,1,459,60.66V332.09A5.71,5.71,0,0,1,453.31,337.8ZM260.21,55.2a5.47,5.47,0,0,0-5.46,5.46V332.09a5.47,5.47,0,0,0,5.46,5.46h193.1a5.47,5.47,0,0,0,5.46-5.46V60.66a5.47,5.47,0,0,0-5.46-5.46Z" style="fill:#ebebeb"></path><rect y="382.4" width="500" height="0.25" style="fill:#ebebeb"></rect><rect x="61.75" y="308.18" width="74.41" height="74.41" style="fill:#f0f0f0"></rect><rect x="69.22" y="315.66" width="59.46" height="59.46" style="fill:#e6e6e6"></rect><rect x="136.27" y="308.18" width="74.41" height="74.41" style="fill:#f0f0f0"></rect><rect x="143.75" y="315.66" width="59.46" height="59.46" style="fill:#e6e6e6"></rect><rect x="210.79" y="308.18" width="74.41" height="74.41" style="fill:#f0f0f0"></rect><rect x="218.27" y="315.66" width="59.46" height="59.46" style="fill:#e6e6e6"></rect><rect x="285.32" y="308.18" width="74.41" height="74.41" style="fill:#f0f0f0"></rect><rect x="292.8" y="315.66" width="59.46" height="59.46" style="fill:#e6e6e6"></rect><rect x="359.84" y="308.18" width="74.41" height="74.41" style="fill:#f0f0f0"></rect><rect x="367.32" y="315.66" width="59.46" height="59.46" style="fill:#e6e6e6"></rect><path d="M414.64,239.35c-9.28,7.15-12,22.82-12.43,33.86,0,1-1.62,1-1.57,0,.49-11.69,3.15-27.47,13.21-35.22.8-.62,1.58.75.79,1.36Z" style="fill:#f5f5f5"></path><path d="M393.09,231.34c2.37-.28,4.36,2.14,5.39,3.92,5.34,9.23,3.27,23.16,2.26,33.07-.1,1-1.67,1-1.57,0,1-9.64,2.78-22.2-1.58-31.36-.75-1.57-2.34-4.31-4.5-4.06-1,.11-1-1.46,0-1.57Z" style="fill:#e6e6e6"></path><path d="M387.34,244c9.93-2.45,11.17,19.56,11.46,24.31.06,1-1.51,1-1.57,0-.39-6.43-.71-15.63-5.36-20.78-.94-1-2.57-2.4-4.11-2-1,.24-1.4-1.27-.42-1.51Z" style="fill:#e6e6e6"></path><path d="M416.76,254.7c-8.2-6.08-10.87,9.89-11.33,14.5-.1,1-1.67,1-1.57,0,.52-5.23,1.31-14.69,7.35-16.88a7,7,0,0,1,6.35,1c.8.6,0,2-.8,1.36Z" style="fill:#e6e6e6"></path><path d="M384.12,257.58A5.86,5.86,0,0,1,389,255.8c5,.84,6.4,8.4,7.16,12.32.19,1-1.32,1.41-1.52.42-.65-3.39-3.81-15.52-9.41-9.85a.79.79,0,0,1-1.11-1.11Z" style="fill:#f5f5f5"></path><path d="M413.68,309.07H389.94a19.22,19.22,0,0,1-6.82-14.7c0-6.73,3.78-26.93,3.78-26.93h29.81s3.79,20.2,3.79,26.93A19.22,19.22,0,0,1,413.68,309.07Z" style="fill:#ebebeb"></path><path d="M417.46,262.45c-7.16,0-14.17-2.91-15.65-6.49s3.12-6.48,10.28-6.48a27.68,27.68,0,0,1,6.84.87,19.91,19.91,0,0,1,6.12-.87c7.16,0,14.17,2.9,15.65,6.48s-3.11,6.49-10.28,6.49Z" style="fill:#f5f5f5"></path><path d="M370.74,248.57c-5.86,0-8.23-2.38-5.3-5.31s10.05-5.3,15.9-5.3a12.48,12.48,0,0,1,4.59.72,28.17,28.17,0,0,1,6-.72c5.86,0,8.23,2.38,5.3,5.3s-10.05,5.31-15.91,5.31Z" style="fill:#f0f0f0"></path><path d="M424.6,243.26c-7.36,0-16.32-3-20-6.67s-.7-6.67,6.67-6.67a35,35,0,0,1,7.57.9,15.66,15.66,0,0,1,5.77-.9c7.37,0,16.33,3,20,6.67s.7,6.67-6.67,6.67Z" style="fill:#ebebeb"></path><path d="M383.64,234.65c-3.69,0-6.05-1.49-5.29-3.33s4.37-3.34,8-3.34a10.29,10.29,0,0,1,3.15.45,14.44,14.44,0,0,1,3.52-.45c3.69,0,6.06,1.49,5.29,3.34s-4.37,3.33-8.05,3.33Z" style="fill:#f0f0f0"></path><path d="M379.39,261.34c-3.68,0-7.29-1.5-8.05-3.34s1.6-3.33,5.29-3.33a14,14,0,0,1,3.52.45,10,10,0,0,1,3.15-.45c3.68,0,7.29,1.49,8.05,3.33s-1.6,3.34-5.29,3.34Z" style="fill:#ebebeb"></path><path d="M386.23,271.18c.4-2.27.67-3.74.67-3.74h29.81s.28,1.47.68,3.74Z" style="fill:#f5f5f5"></path><path d="M386.27,239.41s-8.18,2.73-10.77,7.23C375.5,246.64,375.91,240.09,386.27,239.41Z" style="fill:#fafafa"></path><path d="M390.11,228.72a12.07,12.07,0,0,0-3.42,2.95A4.15,4.15,0,0,1,390.11,228.72Z" style="fill:#fafafa"></path><path d="M421.83,231.67s8.86,3.24,14.31,9.38A18.37,18.37,0,0,0,421.83,231.67Z" style="fill:#fafafa"></path><path d="M421.83,251.4a22.22,22.22,0,0,1,9.27,7.23S429.46,252.49,421.83,251.4Z" style="fill:#e6e6e6"></path><path d="M383.59,249.47a4.86,4.86,0,0,1,2.6,4A8.78,8.78,0,0,1,383.59,249.47Z" style="fill:#fafafa"></path><path d="M253.4,368.79a18.34,18.34,0,0,1-3.81,2.48,14.64,14.64,0,0,1-6.21,1.55,23.48,23.48,0,0,1-15.2-10.76l.41.34c.33.25.66.5,1,.73a24.37,24.37,0,0,0,6.39,3,48,48,0,0,0,13,1.9A37.78,37.78,0,0,1,253.4,368.79Z" style="fill:#fafafa"></path><path d="M258.27,371.64a23.37,23.37,0,0,1-10.73,1.91,17.22,17.22,0,0,0,3.12-1.14,19.81,19.81,0,0,0,4.55-3.05,5.69,5.69,0,0,1,2.43,1.17A2.56,2.56,0,0,1,258.27,371.64Z" style="fill:#fafafa"></path><path d="M266.25,365.85a23.23,23.23,0,0,1-7,5.16,3.57,3.57,0,0,0-.78-1.34,5.76,5.76,0,0,0-2.35-1.28c.33-.31.65-.65,1-1a25.74,25.74,0,0,0,2.08-2.58A16.47,16.47,0,0,0,266.25,365.85Z" style="fill:#fafafa"></path><path d="M268.65,362.83c-.39.59-.81,1.15-1.25,1.69l0-.08c-1.15.53-3.06.5-5.53-.09-.61-.14-1.25-.32-1.92-.53a35,35,0,0,0,2.57-4.58,7.06,7.06,0,0,0,5.34-.65c1.89-1.12,3.47-3.3,4.73-6.51A23.34,23.34,0,0,1,268.65,362.83Z" style="fill:#fafafa"></path><path d="M267.69,357.26a5.9,5.9,0,0,1-4.48.59q.21-.48.42-1a37.64,37.64,0,0,0,3.1-13.23,23.55,23.55,0,0,0-1.46-9.19,19.61,19.61,0,0,0-2.53-4.64,23.32,23.32,0,0,1,9.11,12.11A14.83,14.83,0,0,1,270.69,354,8.89,8.89,0,0,1,267.69,357.26Z" style="fill:#fafafa"></path><path d="M261.86,357.29c-2.16-.88-4.28-3.88-5.1-5.81-7.75-18.08-12.28-23.48-14.62-25a23.42,23.42,0,0,1,17.5,1.42,17.1,17.1,0,0,1,4.34,6.57c1.6,4.21,2.61,11.39-1.65,21.69C262.17,356.57,262,356.94,261.86,357.29Z" style="fill:#fafafa"></path><path d="M258.59,363.16a49.55,49.55,0,0,1-5.5-2.29A64,64,0,0,1,236,349c-4.45-4.56-6.29-7.69-7.05-9.51a8.69,8.69,0,0,1-.51-1.62c.3-.54.63-1.06,1-1.58a23.3,23.3,0,0,1,11.14-8.8c.47.11,1.47.59,3.13,2.59,3.23,3.9,7.23,11.4,11.9,22.29a14.54,14.54,0,0,0,4.5,5.7,6.94,6.94,0,0,0,1.06.58A32.49,32.49,0,0,1,258.59,363.16Z" style="fill:#fafafa"></path><path d="M257.82,364.28a24.69,24.69,0,0,1-3.15,3.56,37.92,37.92,0,0,0-5.14-1h0c-11-.25-16.86-3.05-19.82-5.34a13.19,13.19,0,0,1-2.54-2.57,23.41,23.41,0,0,1,.5-19.63c.06.19.13.39.22.6,1.11,2.8,3.57,6.15,7.31,10a57.14,57.14,0,0,0,8.71,7.13,69.63,69.63,0,0,0,8.61,5A51.89,51.89,0,0,0,257.82,364.28Z" style="fill:#fafafa"></path><rect x="93.94" y="241.69" width="10.94" height="66.05" style="fill:#f5f5f5"></rect><polygon points="108.78 308.19 89.31 308.19 93.94 304.71 104.89 304.71 108.78 308.19" style="fill:#ebebeb"></polygon><polygon points="134.15 308.25 130.64 308.25 130.68 305.23 134.15 308.25" style="fill:#e0e0e0"></polygon><polygon points="130.68 242.33 130.64 308.25 108.78 308.19 104.89 304.71 104.89 242.2 130.68 242.33" style="fill:#e0e0e0"></polygon><path d="M95.31,289.88a7.22,7.22,0,1,1-7.22-7.22A7.22,7.22,0,0,1,95.31,289.88Z" style="fill:#ebebeb"></path><path d="M118.13,289.88a7.22,7.22,0,1,1-7.22-7.22A7.22,7.22,0,0,1,118.13,289.88Z" style="fill:#ebebeb"></path><rect x="92.14" y="287.01" width="14.84" height="7.21" style="fill:#ebebeb"></rect><polygon points="80.88 289.88 80.88 308.25 86.21 308.25 93.85 294.22 80.88 289.88" style="fill:#ebebeb"></polygon><polygon points="118.13 289.88 118.13 308.25 112.8 308.25 105.16 294.22 118.13 289.88" style="fill:#ebebeb"></polygon><path d="M80.88,306.33h2.65a3.64,3.64,0,0,0,3.25-2l6.45-12.7h11.93v2.59H93.85l-6.44,11.83a4.23,4.23,0,0,1-3.72,2.2H80.88Z" style="fill:#e0e0e0"></path><path d="M118.13,306.33h-2.66a3.62,3.62,0,0,1-3.24-2l-6.45-12.7H93.85v2.59h11.31l6.44,11.83a4.21,4.21,0,0,0,3.71,2.2h2.82Z" style="fill:#e0e0e0"></path><rect x="110.32" y="285.62" width="2.31" height="6.27" style="fill:#fff"></rect><rect x="110.32" y="285.62" width="2.31" height="6.27" transform="translate(-177.28 400.22) rotate(-90)" style="fill:#fff"></rect><circle cx="85.05" cy="287.22" r="1.12" style="fill:#fff"></circle><circle cx="89.62" cy="287.22" r="1.12" style="fill:#fff"></circle><circle cx="85.05" cy="291.24" r="1.12" style="fill:#fff"></circle><circle cx="89.62" cy="291.24" r="1.12" style="fill:#fff"></circle><circle cx="99.6" cy="83.74" r="20.45" transform="translate(0.99 168.64) rotate(-80.78)" style="fill:#e0e0e0"></circle><circle cx="98.53" cy="83.74" r="20.45" transform="translate(0.09 167.58) rotate(-80.78)" style="fill:#ebebeb"></circle><circle cx="98.28" cy="83.74" r="16.41" style="fill:#fafafa;opacity:0.8"></circle><path d="M99.9,85.1a1.67,1.67,0,1,1-1.66-1.66A1.66,1.66,0,0,1,99.9,85.1Z" style="fill:#e0e0e0"></path><polygon points="98.05 85.71 90.99 79.07 91.67 78.34 98.07 84.36 109.53 74.23 110.2 74.98 98.05 85.71" style="fill:#e0e0e0"></polygon><rect x="241.83" y="278.57" width="14.09" height="28.62" style="fill:#e6e6e6"></rect><polygon points="262.28 307.7 235.59 307.7 242.1 301.97 255.77 301.97 262.28 307.7" style="fill:#e6e6e6"></polygon><rect x="185.52" y="210.84" width="126.03" height="79.07" rx="2.3" style="fill:#f0f0f0"></rect><rect x="190.1" y="215.78" width="116.75" height="68.9" style="fill:#e0e0e0"></rect><rect x="241.83" y="289.91" width="14.09" height="4.25" style="fill:#e0e0e0"></rect><path d="M431.49,183.69l-3.29,2-58.88-84.55c-3.76-5.56-2.63-10,1-12.26h0c3.63-2.26,8.11-1.31,11.43,4.53Z" style="fill:#e6e6e6"></path><path d="M430,182.06l-2.53,1.58c-1.46.9-2.12,2.47-1.48,3.49h0c.63,1,2.33,1.12,3.78.22l2.53-1.58c1.46-.9,2.12-2.46,1.49-3.49h0C433.11,181.26,431.41,181.16,430,182.06Z" style="fill:#e6e6e6"></path><path d="M364.85,183.69l3.29,2L427,101.18c3.76-5.56,2.63-10-1-12.26h0c-3.64-2.26-8.11-1.31-11.44,4.53Z" style="fill:#f5f5f5"></path><path d="M366.38,182.06l2.53,1.58c1.46.9,2.12,2.47,1.48,3.49h0c-.63,1-2.33,1.12-3.78.22l-2.54-1.58c-1.45-.9-2.11-2.46-1.48-3.49h0C363.23,181.26,364.92,181.16,366.38,182.06Z" style="fill:#f5f5f5"></path></g><g id="freepik--Shadow--inject-3"><ellipse id="freepik--path--inject-3" cx="250" cy="415.69" rx="193.89" ry="11.32" style="fill:#f5f5f5"></ellipse></g><g id="freepik--slap-effect--inject-3"><path d="M249.15,128.44h-.05a.5.5,0,0,1-.45-.43c-.57-4.23-3.21-8.26-7.44-11.35a23.92,23.92,0,0,0-17.89-4.39.5.5,0,0,1-.54-.28.49.49,0,0,1,.12-.59,10.73,10.73,0,0,0,3.15-12.25c-1.77-4.26-6.47-7.51-11.7-8.11a.48.48,0,0,1-.44-.48.5.5,0,0,1,.42-.51,16.38,16.38,0,0,0,12-8.3A12.38,12.38,0,0,0,227,70.6a.5.5,0,0,1,.22-.65.5.5,0,0,1,.66.17c2.49,4,8,6.33,13.16,5.64s9.33-4.35,10.06-8.7a.5.5,0,0,1,1,0c1.48,13.87,15.46,18.09,22.64,18.39a.51.51,0,0,1,.47.4.49.49,0,0,1-.27.55c-.27.14-6.65,3.4-5.71,10.41A19.47,19.47,0,0,0,279,111.73a.5.5,0,0,1,.23.6.51.51,0,0,1-.55.34c-12.38-1.87-25.68,5.2-29.05,15.42A.5.5,0,0,1,249.15,128.44ZM227,110.94a25.48,25.48,0,0,1,14.82,4.91,19,19,0,0,1,7.5,10.29c4.06-9.17,15.82-15.5,27.32-14.7A20.81,20.81,0,0,1,268.23,97c-.75-5.64,2.89-9.12,4.94-10.6-7.34-.76-19.2-5-21.72-17a13.11,13.11,0,0,1-10.28,7.35,15.45,15.45,0,0,1-12.4-4,13.83,13.83,0,0,1-1.54,9.44,17.3,17.3,0,0,1-10.34,8.29c4.57,1.23,8.46,4.35,10.08,8.25a11.65,11.65,0,0,1-2.29,12.31A21.86,21.86,0,0,1,227,110.94Z" style="fill:#407BFF"></path></g><g id="freepik--character-2--inject-3"><path d="M393,350.22l28.46,11.16c.82-.71,5.67-10.28,5.67-10.28l-25.23-11.65Z" style="fill:#ffb573"></path><path d="M419.11,367.74c-.72,1.49-1.64,2.82-2.52,2.92a1.14,1.14,0,0,1-1.18-.6,1.51,1.51,0,0,1-.19-1.19c.42-2.18,4.7-5.06,4.88-5.18a.32.32,0,0,1,.35,0,.31.31,0,0,1,.12.33A21.29,21.29,0,0,1,419.11,367.74Zm-3.15.7a3.49,3.49,0,0,0-.2.57.89.89,0,0,0,.12.71c.25.36.44.38.58.37,1-.18,2.47-3.09,3.22-5.36a13.68,13.68,0,0,0-3.7,3.73Z" style="fill:#407BFF"></path><path d="M420.53,364.11l-.09.1c-1.31,1.08-5.16,2.6-6.35,1.74a1.13,1.13,0,0,1-.27-1.4,2.26,2.26,0,0,1,1.15-1.33c1.94-.87,5.17.36,5.31.4a.31.31,0,0,1,.24.2Zm-6.06.48-.13.15c-.18.51,0,.63.05.68.66.56,3.6-.4,5.16-1.39a7.07,7.07,0,0,0-4.29-.23A1.49,1.49,0,0,0,414.47,364.59Z" style="fill:#407BFF"></path><path d="M419.32,361.19l4.93-11.41a1.11,1.11,0,0,1,1.25-.63L435.91,351c1,.25,1.35,2.55,1.3,2.66-2.34,7.27-8.51,22.4-10.75,27.31s-7.39,3.33-6.91,1.13c2.13-9.91,1-14.55-.31-18.59A3.15,3.15,0,0,1,419.32,361.19Z" style="fill:#263238"></path><g style="opacity:0.2"><polygon points="410.76 343.52 401.94 339.44 393.04 350.23 406.06 355.33 410.76 343.52"></polygon></g><path d="M359.59,240.43a28.71,28.71,0,0,1,1.94,6.47c2.29,11.69,5.47,51.36,7.54,66.44a8.91,8.91,0,0,0,5.44,6.78c8.22,3.87,13.57,5.05,32.12,20.28-2.24,4.75-4.37,8.1-6.4,13.67,0,0-37.23-16.21-45.4-22.94-12.05-9.9-26.23-59.51-30.49-72.95-2.42-7.63-4.21-16.76.25-23.34C327.09,231.15,351.53,219.91,359.59,240.43Z" style="fill:#263238"></path><path d="M267,106.09l-3.92-8.17-5.79-8.38s-5.7,4.79-6.52,5.55.45,9.54,5.46,12.74a24.94,24.94,0,0,0,9.44,3.73Z" style="fill:#ffb573"></path><path d="M263.05,97.92l-5.79-8.38a2.68,2.68,0,0,0-1.63-1.2l-4.45-1.09A2.65,2.65,0,0,0,248,90.7l3.05,8.68Z" style="fill:#ffb573"></path><path d="M327.22,148.6s-6.51,15.7-7.59,23,.79,43.38,1.9,49.83,37.16,7.29,43.76,1.35l13.14-53A12.71,12.71,0,0,0,368,154.1c-3-.45-5.1-.81-4.53-.89Z" style="fill:#407BFF"></path><path d="M341.79,155.64c2.62,3.29,2.5,10.14.24,13.68-2,3.08-6,4.37-9.61,4.09s-7.06-1.87-10.36-3.44q-12.44-5.92-24.7-12.18c-7.13-3.63-14.41-7.49-19.61-13.57-6.87-8-19.46-30.8-20.24-33.1s8.6-8.17,10.41-6.2c5,5.47,20.36,28.6,24.51,31.06C297.17,138.77,335.65,148,341.79,155.64Z" style="fill:#407BFF"></path><path d="M341.79,155.64c2.62,3.29,2.5,10.14.24,13.68-2,3.08-6,4.37-9.61,4.09s-7.06-1.87-10.36-3.44q-12.44-5.92-24.7-12.18c-7.13-3.63-14.41-7.49-19.61-13.57-6.87-8-19.46-30.8-20.24-33.1s8.6-8.17,10.41-6.2c5,5.47,20.36,28.6,24.51,31.06C297.17,138.77,335.65,148,341.79,155.64Z" style="opacity:0.1"></path><path d="M327.22,148.6s-7.91,7.5-7.59,23c.15,7.33.79,43.38,1.9,49.83s37.16,7.29,43.76,1.35l11.24-52.44c1.8-7.28-1.16-15.1-8.57-16.2-3-.45-5.1-.81-4.53-.89Z" style="fill:#407BFF"></path><path d="M305.54,206.33,291.73,206s-1.11-10.45-.8-11.44c0,0,5.82-1.15,10.23,1.18l3.9,2.49Z" style="fill:#ffb573"></path><path d="M294,206.15l-2.58-11.53-5.28.25a1.63,1.63,0,0,0-1.52,1.92l1.18,6.31a3.1,3.1,0,0,0,2.76,2.53Z" style="fill:#ffb573"></path><path d="M375,176.3c-6.76,10.71-12.06,21.37-22.78,27.21-10.24,5.57-36.05,6.35-47.45,3.93,1.23.75-1.25-12.24-1.25-12.24,3.13-2,28.15-3.92,38.14-5.51,6.77-1.08,14.07-30.26,20.77-33C379.45,149.56,379.45,169.19,375,176.3Z" style="fill:#407BFF"></path><path d="M375,176.3c-6.76,10.71-12.06,21.37-22.78,27.21-10.24,5.57-36.05,6.35-47.45,3.93,1.23.75-1.25-12.24-1.25-12.24,3.13-2,28.15-3.92,38.14-5.51,6.77-1.08,14.07-30.26,20.77-33C379.45,149.56,379.45,169.19,375,176.3Z" style="fill:#fff;opacity:0.1"></path><path d="M321.53,221.39l-.81,11.07a60.09,60.09,0,0,0,1.53,18.85c1.83,7.31,4.15,10.87,4.15,10.87h0s28.13,12.31,39.33.06-.44-39.5-.44-39.5A171.66,171.66,0,0,1,321.53,221.39Z" style="fill:#263238"></path><path d="M362.6,252.27c-3.09.92-30.63,30.15-30.63,30.15l6.44,18.44,26.12-30.31Z" style="opacity:0.4"></path><path d="M278.73,372.06l-2.35,30.47c.92.58,11.09,5.32,11.49,2.41,1.23-8.88,3.77-27.53,3.77-27.53Z" style="fill:#ffb573"></path><path d="M269.59,402.1c-1.63-.25-3.16-.74-3.52-1.55a1.13,1.13,0,0,1,.23-1.3,1.48,1.48,0,0,1,1.08-.54c2.21-.23,6.21,3,6.38,3.15a.32.32,0,0,1,.1.34.32.32,0,0,1-.28.22A21.34,21.34,0,0,1,269.59,402.1ZM268,399.3a2.88,2.88,0,0,0-.59,0,.91.91,0,0,0-.65.32c-.28.35-.23.53-.18.66.46.92,3.67,1.46,6.06,1.52a13.62,13.62,0,0,0-4.64-2.45Z" style="fill:#407BFF"></path><path d="M273.48,402.4l-.12-.06c-1.42-.94-4-4.17-3.51-5.56a1.11,1.11,0,0,1,1.26-.67,2.24,2.24,0,0,1,1.6.71c1.4,1.6,1.17,5.06,1.17,5.2a.28.28,0,0,1-.12.28Zm-2.23-5.66-.18-.07c-.53,0-.6.17-.63.25-.35.79,1.43,3.31,2.83,4.52a7.09,7.09,0,0,0-1-4.18A1.58,1.58,0,0,0,271.25,396.74Z" style="fill:#407BFF"></path><path d="M275.92,400.39l12.35,1.38a1.1,1.1,0,0,1,1,1l1.28,10.5c.06,1.06-2,2-2.17,2-7.63-.11-23.91-1.6-29.26-2.3s-5.34-6.09-3.09-6.28c10.09-.85,14.19-3.33,17.68-5.73A3.14,3.14,0,0,1,275.92,400.39Z" style="fill:#263238"></path><g style="opacity:0.2"><polygon points="290.38 386.63 291.64 377.41 278.73 372.06 277.92 384.54 290.38 386.63"></polygon></g><path d="M368.66,258.32c-6.48,11.45-36,34.49-51.07,52-4.9,5.68-9.22,11.83-10.39,19.24-2.76,17.3-11.27,33.77-15.56,51.14-3.84,1.48-5.94,1.2-9.82-.2-5.44-2-5.54-2.59-4.67-9.81.82-6.81-4.16-14.82,3.24-54.16,4.59-24.42,35.38-55.34,65.45-82.92,5-4.62,12.54-6,20.1-1.52C367.32,232.89,375,247.21,368.66,258.32Z" style="fill:#263238"></path><path d="M354.35,139c4.2-3.32,8-7.45,9.63-12.54s.78-11.23-3.17-14.83c-.32-.29-.74-.58-1.14-.42a1.17,1.17,0,0,0-.56.82C356.24,120.82,357.92,130.41,354.35,139Z" style="fill:#263238"></path><path d="M353.32,133.52c-.67,6-1.1,14.65,3.33,18.23,0,0,.27,6-15.82,13.85-6.69-8.09-2.51-12.34-2.51-12.34,6.45-2.1,6.05-4.75,4.54-9.23Z" style="fill:#ffb573"></path><path d="M349.07,137.76,342.93,144a18.71,18.71,0,0,1,.83,3.19c2.49-.56,6.25-3,6.57-5.78A7.9,7.9,0,0,0,349.07,137.76Z" style="opacity:0.2;isolation:isolate"></path><path d="M360.17,122.81c-1.85,9.85-2.43,14-8.07,18.5-8.49,6.71-20.18,2.28-21.31-7.9-1-9.18,2.19-23.79,12.39-26.46a13.67,13.67,0,0,1,17,15.86Z" style="fill:#ffb573"></path><path d="M344,123.43c-.11.8-.62,1.41-1.15,1.35s-.87-.78-.78-1.59.62-1.41,1.14-1.35S344.09,122.66,344,123.43Z" style="fill:#263238"></path><path d="M334.91,122.31c-.1.82-.62,1.4-1.14,1.34s-.87-.78-.78-1.58.62-1.41,1.14-1.34S335,121.5,334.91,122.31Z" style="fill:#263238"></path><path d="M337.54,124.12a21.85,21.85,0,0,1-3.53,4.8,3.58,3.58,0,0,0,2.82.9Z" style="fill:#ed893e"></path><path d="M340.83,133.52a6.8,6.8,0,0,1-1.2-.06.24.24,0,0,1-.22-.25h0a.25.25,0,0,1,.28-.2,6.49,6.49,0,0,0,5.52-1.85.24.24,0,0,1,.34,0,.25.25,0,0,1,0,.34A6.67,6.67,0,0,1,340.83,133.52Z" style="fill:#263238"></path><path d="M347.93,122.05a.47.47,0,0,1-.47-.31,5.59,5.59,0,0,0-3.5-2.86.49.49,0,0,1-.34-.59.46.46,0,0,1,.57-.34h0a6.47,6.47,0,0,1,4.16,3.47.49.49,0,0,1-.29.6h0A.26.26,0,0,1,347.93,122.05Z" style="fill:#263238"></path><path d="M332.7,117.76a.52.52,0,0,1-.43-.23.5.5,0,0,1,.15-.67,4.73,4.73,0,0,1,4.39-.47.46.46,0,0,1,.24.6s0,0,0,0a.48.48,0,0,1-.63.24h0a3.83,3.83,0,0,0-3.43.42A.47.47,0,0,1,332.7,117.76Z" style="fill:#263238"></path><path d="M361.91,130.78a7.17,7.17,0,0,1-4.12,3.6c-2.4.78-3.71-1.34-3.14-3.67.53-2.1,2.41-5,4.86-4.83a3.24,3.24,0,0,1,2.86,3.57A3.35,3.35,0,0,1,361.91,130.78Z" style="fill:#ffb573"></path><path d="M325.3,127.58a40.19,40.19,0,0,1,17-15.65c4.86,6,6.8,14.37,8.29,21.91,0,0,7.13-4.16,8.95-8s3.73-9.67,2.15-13.57A11,11,0,0,0,357,106.7c-2.32-1.26-8.51-4.81-18-1.29-2.5.92-5.05,3.38-6.84,5.3a25.61,25.61,0,0,0-5,7.88,25.93,25.93,0,0,0-1.36,4.58C325.5,124.32,325.79,126.6,325.3,127.58Z" style="fill:#263238"></path><path d="M274.6,371.79c-.11,0-.23,8.88-.23,8.88l20.45,2.69,1.14-8Z" style="fill:#407BFF"></path><path d="M274.6,371.79c-.11,0-.23,8.88-.23,8.88l20.45,2.69,1.14-8Z" style="fill:#fff;opacity:0.6000000000000001"></path><path d="M393.32,354.65c0,.1,7.67,3,7.67,3l9.19-20.45-6.65-3.6Z" style="fill:#407BFF"></path><path d="M393.32,354.65c0,.1,7.67,3,7.67,3l9.19-20.45-6.65-3.6Z" style="fill:#fff;opacity:0.6000000000000001"></path></g><g id="freepik--character-1--inject-3"><path d="M229.47,335.52c-1.86-7.4-3.83-16.18-6.46-24.33l-15.58,6.16a42.23,42.23,0,0,0,.74,5.09c4.44,18.6,7.38,20.94,21.56,50.38-2.7-.76,6.45,3.53,8.61-3.55C238.34,369.27,231.44,343.32,229.47,335.52Z" style="fill:#ff8b7b"></path><path d="M207.43,317.35l2.76,13.43,16.53-6.41L223,311.19C221.53,309.8,207.43,317.35,207.43,317.35Z" style="opacity:0.2"></path><path d="M225.78,317.48l-18.68,5.74-5.69-11.94a7.57,7.57,0,0,0-2.76-3.12c-9.58-6.12-53.93-34.67-62.78-44.54-10.44-11.63-5-25.21-3.79-26.16,6.51-5.22,16-2.61,22-.09,5.78,2.42,53,39.48,64.36,59C222.87,302,225.78,317.48,225.78,317.48Z" style="fill:#407BFF"></path><path d="M225.78,317.48l-18.68,5.74-5.69-11.94a7.57,7.57,0,0,0-2.76-3.12c-9.58-6.12-53.93-34.67-62.78-44.54-10.44-11.63-5-25.21-3.79-26.16,6.51-5.22,16-2.61,22-.09,5.78,2.42,53,39.48,64.36,59C222.87,302,225.78,317.48,225.78,317.48Z" style="opacity:0.1"></path><path d="M240.88,370.78a.23.23,0,0,1-.25-.14.34.34,0,0,1,0-.31c.12-.15,2.88-3.61,4.62-3.75a1.09,1.09,0,0,1,.9.31,1.07,1.07,0,0,1,.33,1.11c-.19.76-1.33,1.42-2.58,1.89A14.46,14.46,0,0,1,240.88,370.78Zm4-3.57a11.43,11.43,0,0,0-3.35,2.87c1.86-.42,4.3-1.4,4.56-2.27,0-.12,0-.29-.22-.55a.64.64,0,0,0-.54-.18,2.37,2.37,0,0,0-.46.11Z" style="fill:#407BFF"></path><path d="M240.73,370.71a.25.25,0,0,1-.13-.23c0-.12-.59-3.11.32-4.73a1.83,1.83,0,0,1,1.18-.87.82.82,0,0,1,1.05.39c.53,1.14-1.11,4.37-2.11,5.41l-.09.07Zm.61-4.65a7,7,0,0,0-.33,3.82c1-1.27,2.06-3.76,1.7-4.4,0-.06-.11-.22-.53-.12l-.13.1A1.26,1.26,0,0,0,241.34,366.06Z" style="fill:#407BFF"></path><path d="M238.82,369.37l-9.47,3.1a1,1,0,0,0-.63,1l.17,9.39c.08.94,1.83,1.47,1.92,1.44,5.93-1.27,18.45-5.07,22.54-6.51s3.48-6.16,1.71-6c-8,.8-11.43-.73-14.42-2.3A2.23,2.23,0,0,0,238.82,369.37Z" style="fill:#263238"></path><path d="M203.25,320c-.1,0,4.08,8.12,4.08,8.12l21.57-8.34L226.06,312Z" style="fill:#407BFF"></path><path d="M203.25,320c-.1,0,4.08,8.12,4.08,8.12l21.57-8.34L226.06,312Z" style="fill:#fff;opacity:0.6000000000000001"></path><path d="M152.74,137.51c-1.46,5.2-1.82,10.78,5.63,12.81,0,0,7,7.05-6.79,6.62-12.53-.38-14.16-7.27-14.16-7.27,4.86-4.36,4-16.74,2.81-23.53Z" style="fill:#ff8b7b"></path><path d="M163.87,126.77s0,0,0,0c0,.28,0,.56-.05.83s0,.44,0,.66-.08.55-.13.82a11.62,11.62,0,0,1-.46,1.78h0a12.5,12.5,0,0,1-10.92,8.57,11.45,11.45,0,0,1-7.48-2.24,14.25,14.25,0,0,1-2.79-2.6,14.92,14.92,0,0,1-.94-1.31c-2.18-3.45-3-7.93-4.47-14.17a12.63,12.63,0,0,1-.06-5.8A12.45,12.45,0,0,1,151.43,104c3.73.81,6.54,3.38,8.54,6.69l.09.17c.17.27.32.55.47.83a27.36,27.36,0,0,1,1.48,3.36c.28.8.53,1.62.75,2.44h0c.23.84.42,1.69.57,2.54a32.66,32.66,0,0,1,.53,4.71C163.88,125.44,163.88,126.12,163.87,126.77Z" style="fill:#ff8b7b"></path><path d="M154,97.18c1-1.54-.71-3.53-2.6-3.93-2.95-.63-6.24,1.41-6.75,4.18-1.36-3.08-6-4.42-9-2.61a5.7,5.7,0,0,0-1.14,8.7,4.93,4.93,0,0,0-6.09.63,4.12,4.12,0,0,0,.19,5.69c-4,.24-7.56,3.44-7.94,7.16s2.46,7.48,6.35,8.42a4.41,4.41,0,0,0-.19,5.52,5.24,5.24,0,0,0,5.69,1.57,3.7,3.7,0,0,0,1,4.53,4.44,4.44,0,0,0,5,.24,7,7,0,0,0,5.84.42,6.22,6.22,0,0,0,3.77-4.16,6.29,6.29,0,0,0,4.82-2.91,5.42,5.42,0,0,0,.09-5.33c1.46-1.24,3-2.56,3.54-4.32s-.3-4-2.22-4.44a3.91,3.91,0,0,0,0-6.38c2.28-.26,4.74-.61,6.33-2.15s1.43-4.68-.77-5.29a3.79,3.79,0,0,0,.71-5.78,4.5,4.5,0,0,0-6.24.31c-.16-.9-.33-1.79-.49-2.68Z" style="fill:#263238"></path><path d="M152.11,116.26c2.71.37,4.63,4,5.1,6.44.53,2.67-1,4.64-3.64,3.18a10.45,10.45,0,0,1-4.4-5C148.16,118.36,149.39,115.88,152.11,116.26Z" style="fill:#ff8b7b"></path><path d="M163.87,126.81c0,.28,0,.56-.05.83s0,.44,0,.66-.08.55-.13.82a11.62,11.62,0,0,1-.46,1.78h0l-.05,0-.35-.15a6.05,6.05,0,0,1-3.83-5.22l.37.08C161.1,126,162.62,126.45,163.87,126.81Z" style="fill:#263238"></path><path d="M163.64,129.12a11.62,11.62,0,0,1-.46,1.78h-.05l-.35-.15a7.54,7.54,0,0,1-2.3-1.63,4.26,4.26,0,0,1,2.64-.11A4.37,4.37,0,0,1,163.64,129.12Z" style="fill:#a02724"></path><path d="M159.31,125.57s0,0,0,0a2.26,2.26,0,0,0,1.44,1.55c1,.43,2,.81,3,1.15,0-.22,0-.43,0-.66s0-.55.05-.83v0C162.37,126.31,160.84,125.91,159.31,125.57Z" style="fill:#fff"></path><path d="M134.48,247.38,143,258.29s9-5.36,9.65-6.2c0,0-2.55-5.35-7.05-7.5L141.23,243Z" style="fill:#ff8b7b"></path><path d="M141.55,256.56l10.78-4.82,4,5.93-7.43,3.65a3.1,3.1,0,0,1-3.67-.7Z" style="fill:#ff8b7b"></path><path d="M124.59,154.16c-3.34,2.66-5.46,6.56-7,10.56-4.12,10.9-14.76,37.06-10.8,48s22.16,32.25,32.29,38c4.69.53,7.1-.5,5.78-5S138,235,130.3,223.74c-4-5.92-9.21-11.82-8.64-19,.44-5.55,10.74-30.23,13.15-35.25C138.86,161.06,137.37,144,124.59,154.16Z" style="fill:#ff8b7b"></path><polygon points="155.76 257.14 158.88 260.56 157.1 261.44 152.01 257.24 154.82 255.87 155.76 257.14" style="fill:#ff8b7b"></polygon><path d="M145.75,245.08a52.08,52.08,0,0,0,7.6,1c1.75-.07.32,2.32.32,2.32L148,249Z" style="fill:#ff8b7b"></path><path d="M174.49,147.18a60.37,60.37,0,0,0-23.38-.72c-12.1,2.22-28.36.56-28.29,20.16,0,10.07,2.62,22.13,5,31a109,109,0,0,1,3.58,28.82v1.76s17.73,16.18,44.11-.73Z" style="fill:#263238"></path><path d="M181.31,351.73A111.54,111.54,0,0,0,187.87,341c10.61-19.82-.29-70.35-2.51-84.71-1.26-8.15-3.84-17.31-11.26-20.9-4.17-2-9.14-1.77-13.54-.34l-.49.15a24.39,24.39,0,0,0-17.24,23.66,50,50,0,0,0,1,9c2,10,6.63,19.31,11.13,28.49s9,18.54,10.81,28.6a21.61,21.61,0,0,1,.1,8.95,11.62,11.62,0,0,1-3.66,5.59Z" style="fill:#407BFF"></path><path d="M131.35,228.2s-3.7,18.71-.73,26.53c5.24,13.8,11.83,11.89,16.89,12.58s35.18-5.72,36.3-19.08c0,0-4.39-16.81-8.35-20.76C173.09,225.09,148.81,233.8,131.35,228.2Z" style="fill:#407BFF"></path><path d="M161.93,115.06c.48-.08,1,.46,1.1,1.18s-.15,1.4-.64,1.48-1-.45-1.1-1.18S161.46,115.14,161.93,115.06Z" style="fill:#263238"></path><path d="M163,124.77a4.3,4.3,0,0,0,3.39-1.28,27.29,27.29,0,0,1-4.59-5.68Z" style="fill:#ed847e"></path><path d="M157.91,112.86a.47.47,0,0,1-.28-.12.43.43,0,0,1,0-.62,4.32,4.32,0,0,1,3.76-1.27.43.43,0,1,1-.18.85,3.52,3.52,0,0,0-2.95,1.09.48.48,0,0,1-.34.14Z" style="fill:#263238"></path><path d="M166.24,343.31a31.25,31.25,0,0,0-2.7,2.79c-9.07,11.25-22.79,36.48-33.84,58.55-.79-2,3.62,7.26,8.85,5.28,2.76-1.05,37.67-53,41.32-58.38Z" style="fill:#ff8b7b"></path><path d="M166.24,341.92l-5.3,7.72,13.53,9.74,5.4-7.83C180,350,166.24,341.92,166.24,341.92Z" style="opacity:0.2"></path><path d="M163.08,335.35c-.11-.07-4.24,9.32-4.24,9.32l22.59,13.05,4.82-8Z" style="fill:#407BFF"></path><path d="M163.08,335.35c-.11-.07-4.24,9.32-4.24,9.32l22.59,13.05,4.82-8Z" style="fill:#fff;opacity:0.6000000000000001"></path><path d="M145.85,402.34a.31.31,0,0,1-.24-.26.32.32,0,0,1,.17-.32c.2-.11,4.82-2.58,7-1.92a1.5,1.5,0,0,1,1,.75,1.14,1.14,0,0,1,0,1.35c-.51.74-2.14.92-3.82.86A21.11,21.11,0,0,1,145.85,402.34Zm6.18-2a14,14,0,0,0-5.12,1.55c2.4.41,5.72.48,6.35-.34.08-.12.16-.3,0-.69a1,1,0,0,0-.59-.46,3.94,3.94,0,0,0-.6-.08Z" style="fill:#407BFF"></path><path d="M145.7,402.2a.3.3,0,0,1-.07-.31c0-.14.46-3.64,2.17-5a2.29,2.29,0,0,1,1.74-.39,1.14,1.14,0,0,1,1.13.91c.21,1.48-3,4.21-4.59,4.87l-.13,0Zm2.48-4.74a7.15,7.15,0,0,0-1.83,4c1.63-.93,3.9-3.11,3.7-4,0-.08,0-.29-.58-.37l-.19,0A1.6,1.6,0,0,0,148.18,397.46Z" style="fill:#407BFF"></path><path d="M143.9,399.87l-12.6-1a1.12,1.12,0,0,0-1.16.83l-3.31,10.23c-.26,1,1.66,2.43,1.77,2.44,7.65,1.37,24.19,3,29.67,3.37s6.52-5.05,4.31-5.68c-9.92-2.8-13.53-6.07-16.55-9.14A3.2,3.2,0,0,0,143.9,399.87Z" style="fill:#263238"></path><path d="M243.24,108.94c-.89,2.18-15.69,27.16-22.82,34.51-5.41,5.59-9.52,6.88-16.65,10q-12.26,5.31-24.67,10.31a36.24,36.24,0,0,1-8.3,2.57c0,.24-.05.49-.08.72-.27,2.31-.92,5-3.09,5.87s-4.31-.6-5.84-2.19a18.6,18.6,0,0,1-4.23-17.48,7.09,7.09,0,0,1,1.89-3.3,3.66,3.66,0,0,1,1.4-1.25c12.09-6,41.07-11.66,45.84-14.09,4.17-2.13,23.57-25.63,28.77-30.63C237.34,102.15,244.14,106.76,243.24,108.94Z" style="fill:#ff8b7b"></path><path d="M234.63,105.72l6.24-11.94s9.55,1.71,10.28,2.5-1.14,9.21-6.23,11.93a24.2,24.2,0,0,1-9.41,2.9Z" style="fill:#ff8b7b"></path><path d="M240.87,93.78s4.39-9,6.35-10c.37-.2,2.34,1.76,3.83,3.19a5.23,5.23,0,0,1,1.56,4.69c-.5,2.94-1.44,6.64-1.44,6.64Z" style="fill:#ff8b7b"></path></g></svg>