<svg width="390" height="463" viewBox="0 0 390 463" fill="none" xmlns="http://www.w3.org/2000/svg">
<path d="M445 345.4H-55V345.65H445V345.4Z" fill="#EBEBEB"/>
<path d="M307 353.34H273.88V353.59H307V353.34Z" fill="#EBEBEB"/>
<path d="M385.92 353.47H344.78V353.72H385.92V353.47Z" fill="#EBEBEB"/>
<path d="M320.95 360H301.76V360.25H320.95V360Z" fill="#EBEBEB"/>
<path d="M170.67 358.11H119V358.36H170.67V358.11Z" fill="#EBEBEB"/>
<path d="M110.1 358.11H75.71V358.36H110.1V358.11Z" fill="#EBEBEB"/>
<path d="M55.13 353.89H8.28998V354.14H55.13V353.89Z" fill="#EBEBEB"/>
<path d="M182 300.8H-11.09C-12.6026 300.797 -14.0524 300.195 -15.1211 299.124C-16.1898 298.053 -16.79 296.603 -16.79 295.09V23.66C-16.7768 22.156 -16.1708 20.718 -15.1035 19.6582C-14.0363 18.5985 -12.594 18.0026 -11.09 18H182C183.514 18 184.967 18.6016 186.038 19.6724C187.108 20.7433 187.71 22.1956 187.71 23.71V295.09C187.71 296.604 187.108 298.057 186.038 299.128C184.967 300.198 183.514 300.8 182 300.8ZM-11.09 18.2C-12.5363 18.2026 -13.9225 18.7791 -14.9443 19.8027C-15.9661 20.8264 -16.54 22.2136 -16.54 23.66V295.09C-16.54 296.536 -15.9661 297.924 -14.9443 298.947C-13.9225 299.971 -12.5363 300.547 -11.09 300.55H182C183.447 300.547 184.835 299.971 185.858 298.948C186.881 297.924 187.457 296.537 187.46 295.09V23.66C187.457 22.2127 186.881 20.8255 185.858 19.8021C184.835 18.7787 183.447 18.2026 182 18.2H-11.09Z" fill="#EBEBEB"/>
<path d="M398.31 300.8H205.21C203.696 300.797 202.246 300.195 201.175 299.125C200.105 298.054 199.503 296.604 199.5 295.09V23.66C199.516 22.1551 200.124 20.7171 201.193 19.6576C202.262 18.5981 203.705 18.0025 205.21 18H398.31C399.812 18.0052 401.252 18.6022 402.317 19.6617C403.382 20.7212 403.987 22.1578 404 23.66V295.09C404 296.601 403.401 298.05 402.335 299.121C401.268 300.191 399.821 300.795 398.31 300.8ZM205.21 18.2C203.763 18.2026 202.375 18.7787 201.352 19.8021C200.329 20.8255 199.753 22.2127 199.75 23.66V295.09C199.753 296.537 200.329 297.924 201.352 298.948C202.375 299.971 203.763 300.547 205.21 300.55H398.31C399.757 300.547 401.145 299.971 402.168 298.948C403.191 297.924 403.767 296.537 403.77 295.09V23.66C403.767 22.2127 403.191 20.8255 402.168 19.8021C401.145 18.7787 399.757 18.2026 398.31 18.2H205.21Z" fill="#EBEBEB"/>
<path d="M119.07 1.14001H-20.22V272.88H119.07V1.14001Z" fill="#F5F5F5"/>
<path d="M47 272.89H10.67V110.53L47 98.66V272.89Z" fill="#EBEBEB"/>
<path d="M77.33 272.89H41V149.42L77.33 137.55V272.89Z" fill="#E6E6E6"/>
<path d="M72.99 145.97H64.32V116.51L72.99 113.68V145.97Z" fill="#E6E6E6"/>
<path d="M264.35 1.14001H125.06V272.88H264.35V1.14001Z" fill="#F5F5F5"/>
<path d="M165.95 176.37H125.06V272.89H165.95V176.37Z" fill="#E6E6E6"/>
<path d="M410.23 1.14001H270.94V272.88H410.23V1.14001Z" fill="#F5F5F5"/>
<path d="M379.89 272.89H350.33V77.52L379.89 65.64V272.89Z" fill="#EBEBEB"/>
<path d="M410.22 272.89H373.89V149.42L410.22 137.55V272.89Z" fill="#E6E6E6"/>
<path d="M280 272.88H352.66V176.89L280 167.66V272.88Z" fill="#E6E6E6"/>
<path d="M391.71 153.06H387.38V123.6L391.71 120.76V153.06Z" fill="#E6E6E6"/>
<path d="M1.56003 192.22H18.11V272.89H-9.21997V203C-9.21997 200.141 -8.08422 197.399 -6.06258 195.377C-4.04094 193.356 -1.299 192.22 1.56003 192.22Z" fill="#EBEBEB"/>
<path d="M119.07 195.05H82.76V272.89H119.07V195.05Z" fill="#EBEBEB"/>
<path d="M202.26 207.11L165.95 195.05V272.89H202.26V207.11Z" fill="#EBEBEB"/>
<path d="M216.01 207.11L179.7 195.05V272.89H216.01V207.11Z" fill="#E6E6E6"/>
<path d="M216.01 194.75L252.32 182.69V272.89H216.01V194.75Z" fill="#F0F0F0"/>
<path opacity="0.5" d="M55.85 272.88H18.42L95.57 1.14001H133L55.85 272.88Z" fill="white"/>
<path opacity="0.5" d="M168.05 272.88H130.62L207.76 1.14001H245.2L168.05 272.88Z" fill="white"/>
<path opacity="0.5" d="M214.9 272.88H177.47L254.62 1.14001H292.05L214.9 272.88Z" fill="white"/>
<path opacity="0.5" d="M305 272.88H286.29L363.44 1.14001H382.15L305 272.88Z" fill="white"/>
<path d="M55.84 296C66.64 238.08 95.1 210.9 119.32 197.06C96.12 219 80.34 294.91 55.84 296Z" fill="#FAFAFA"/>
<path d="M32.17 291.44C24.17 247.78 4.93997 230.7 -11.34 223.44C4.36997 237.18 15.87 294.19 32.17 291.44Z" fill="#FAFAFA"/>
<path d="M46.15 303C43.07 240.2 19.15 212.63 -2.35999 199.39C17.16 221.65 22.74 303.85 46.15 303Z" fill="#FAFAFA"/>
<path d="M46.15 297.61C51.15 234.51 77.83 204.98 101.55 189.99C79.77 213.83 71.55 296.55 46.15 297.61Z" fill="#FAFAFA"/>
<path d="M50.09 307.48C58.09 242.66 40.4 203.6 22.46 180.12C37 211.74 27.92 297.32 50.09 307.48Z" fill="#FAFAFA"/>
<path d="M75 287.76C95.19 250 120.52 241 140 240.08C119.39 247.24 91.78 296.18 75 287.76Z" fill="#FAFAFA"/>
<path d="M70.81 289.19C83.54 246.4 107.64 228.19 127.44 219.77C107.81 234.43 89.88 290.39 70.81 289.19Z" fill="#FAFAFA"/>
<path d="M48.47 307.69C70.23 240.58 60.4 199.2 47.06 174C55.19 207.53 28 296.2 48.47 307.69Z" fill="#FAFAFA"/>
<path d="M11.55 283.56V325.78C11.55 336.57 31.02 345.4 54.83 345.4C78.63 345.4 98.11 336.57 98.11 325.78V283.56H11.55Z" fill="#F5F5F5"/>
<path d="M345 311.46C342.61 271.63 325.46 252.94 310.07 243.46C324.11 258.51 328.35 310.73 345 311.46Z" fill="#E0E0E0"/>
<path d="M361.64 308.35C370.86 278.35 385.54 266.57 397.32 261.57C385.37 271 372.57 310.23 361.64 308.35Z" fill="#E0E0E0"/>
<path d="M351.07 316.3C358.6 273.12 377.36 254.16 393.24 245.06C378 260.35 367 316.87 351.07 316.3Z" fill="#E0E0E0"/>
<path d="M351.54 312.59C353.54 269.19 337.84 248.89 322.89 238.59C335.75 255 334.23 311.86 351.54 312.59Z" fill="#E0E0E0"/>
<path d="M348 319.37C348.11 274.8 363.61 247.94 377.93 231.79C365.25 253.54 364.05 312.38 348 319.37Z" fill="#E0E0E0"/>
<path d="M332.65 305.81C322.06 279.81 305.49 273.65 292.23 273.02C305.72 277.94 320.41 311.6 332.65 305.81Z" fill="#E0E0E0"/>
<path d="M335.37 306.8C330.37 277.37 315.42 264.88 302.59 259.06C314.76 269.14 322.21 307.62 335.37 306.8Z" fill="#E0E0E0"/>
<path d="M349.08 319.52C339.97 273.37 350.28 244.92 361.59 227.6C353.13 250.64 364.06 311.61 349.08 319.52Z" fill="#E0E0E0"/>
<path d="M374.26 303V332C374.26 339.41 360.89 345.47 344.55 345.47C328.21 345.47 314.85 339.41 314.85 332V303H374.26Z" fill="#F5F5F5"/>
<path d="M195 390.56C302.082 390.56 388.89 385.492 388.89 379.24C388.89 372.988 302.082 367.92 195 367.92C87.9175 367.92 1.10999 372.988 1.10999 379.24C1.10999 385.492 87.9175 390.56 195 390.56Z" fill="#F5F5F5"/>
<path d="M212 91.89V105C211.997 105.925 211.629 106.811 210.975 107.465C210.321 108.119 209.435 108.487 208.51 108.49H176.34C175.415 108.487 174.529 108.119 173.875 107.465C173.221 106.811 172.853 105.925 172.85 105V57.47C172.858 56.5487 173.229 55.6676 173.882 55.018C174.535 54.3684 175.419 54.0026 176.34 54H208.46C208.92 53.9947 209.377 54.0803 209.805 54.252C210.232 54.4237 210.621 54.6779 210.95 55.0003C211.279 55.3226 211.541 55.7067 211.721 56.1305C211.901 56.5543 211.996 57.0095 212 57.47V78.21" fill="white"/>
<path d="M208.46 109.06H176.34C175.279 109.06 174.262 108.639 173.512 107.888C172.761 107.138 172.34 106.121 172.34 105.06V57.47C172.34 56.4091 172.761 55.3917 173.512 54.6415C174.262 53.8914 175.279 53.47 176.34 53.47H208.46C209.521 53.47 210.538 53.8914 211.288 54.6415C212.039 55.3917 212.46 56.4091 212.46 57.47V78.21H211.4V57.47C211.4 56.6743 211.084 55.9113 210.521 55.3486C209.959 54.786 209.196 54.47 208.4 54.47H176.34C175.544 54.47 174.781 54.786 174.219 55.3486C173.656 55.9113 173.34 56.6743 173.34 57.47V105C173.34 105.796 173.656 106.559 174.219 107.121C174.781 107.684 175.544 108 176.34 108H208.46C209.256 108 210.019 107.684 210.581 107.121C211.144 106.559 211.46 105.796 211.46 105V91.89H212.52V105C212.528 105.535 212.429 106.067 212.227 106.563C212.026 107.059 211.727 107.51 211.349 107.889C210.97 108.267 210.519 108.566 210.023 108.767C209.527 108.969 208.995 109.068 208.46 109.06Z" fill="#1FA29E"/>
<path d="M190 102C190.659 101.587 191.344 101.216 192.05 100.89C192.376 100.742 192.71 100.612 193.05 100.5C193.426 100.347 193.825 100.255 194.23 100.23L193.82 99.9999C193.75 99.8899 193.71 100.17 193.69 100.24L193.55 100.59C193.432 100.838 193.348 101.1 193.3 101.37C193.274 101.466 193.271 101.567 193.293 101.664C193.314 101.762 193.358 101.852 193.422 101.929C193.486 102.005 193.567 102.066 193.659 102.104C193.751 102.142 193.851 102.158 193.95 102.15C194.999 101.962 196.001 101.571 196.9 101H196.53C196.64 101 196.77 101.15 196.88 101.19C197.044 101.249 197.216 101.283 197.39 101.29C197.78 101.29 198.17 101.23 198.56 101.29C199.17 101.35 199.16 100.4 198.56 100.35C198.15 100.35 197.72 100.44 197.32 100.35C196.92 100.26 196.8 99.9799 196.38 100.17C195.96 100.36 195.62 100.61 195.21 100.78C195.021 100.86 194.827 100.93 194.63 100.99L194.25 101.1C194.14 101.1 193.94 101.1 194.1 101.26L194.24 101.59C194.24 100.95 194.92 100.35 194.74 99.6899C194.56 99.0299 193.74 99.3199 193.25 99.4399C191.922 99.8249 190.658 100.405 189.5 101.16C189.391 101.222 189.312 101.325 189.279 101.446C189.246 101.567 189.263 101.696 189.325 101.805C189.387 101.914 189.49 101.993 189.611 102.026C189.732 102.059 189.861 102.042 189.97 101.98L190 102Z" fill="#E0E0E0"/>
<path d="M208.22 61.09H176.57V62.14H208.22V61.09Z" fill="#E0E0E0"/>
<path d="M204.64 68.5399H176.57V69.5899H204.64V68.5399Z" fill="#E0E0E0"/>
<path d="M208.22 76H176.57V77.05H208.22V76Z" fill="#E0E0E0"/>
<path d="M185.27 83.46H176.57V84.51H185.27V83.46Z" fill="#E0E0E0"/>
<path d="M200.49 83.46H188.92V84.51H200.49V83.46Z" fill="#E0E0E0"/>
<path d="M208.22 90.9099H176.57V91.9599H208.22V90.9099Z" fill="#E0E0E0"/>
<path d="M180.92 104.23C179.955 104.23 179.011 103.944 178.209 103.408C177.406 102.871 176.781 102.109 176.411 101.217C176.042 100.326 175.945 99.3446 176.134 98.3979C176.322 97.4513 176.787 96.5818 177.469 95.8993C178.152 95.2168 179.021 94.752 179.968 94.5637C180.915 94.3754 181.896 94.4721 182.787 94.8414C183.679 95.2108 184.441 95.8363 184.978 96.6388C185.514 97.4413 185.8 98.3848 185.8 99.35C185.8 100.644 185.286 101.885 184.371 102.801C183.455 103.716 182.214 104.23 180.92 104.23ZM180.92 95.53C180.162 95.53 179.421 95.7549 178.791 96.1762C178.161 96.5974 177.67 97.1962 177.381 97.8966C177.091 98.597 177.016 99.3676 177.164 100.111C177.313 100.854 177.679 101.537 178.215 102.072C178.752 102.607 179.435 102.971 180.179 103.118C180.923 103.264 181.693 103.187 182.393 102.896C183.092 102.604 183.69 102.112 184.109 101.481C184.529 100.849 184.752 100.108 184.75 99.35C184.747 98.3359 184.343 97.3643 183.625 96.6482C182.907 95.9321 181.934 95.53 180.92 95.53Z" fill="#1FA29E"/>
<path d="M183.8 99.35C183.802 99.92 183.635 100.478 183.319 100.953C183.004 101.428 182.555 101.798 182.029 102.018C181.503 102.237 180.924 102.296 180.364 102.186C179.805 102.076 179.291 101.802 178.887 101.4C178.483 100.998 178.208 100.484 178.096 99.9255C177.984 99.3666 178.041 98.787 178.258 98.2602C178.476 97.7333 178.845 97.283 179.319 96.966C179.793 96.6491 180.35 96.48 180.92 96.48C181.682 96.48 182.413 96.782 182.953 97.32C183.493 97.8579 183.797 98.5879 183.8 99.35Z" fill="#1FA29E"/>
<path d="M200.08 98.49C200.249 97.1203 200.735 95.809 201.5 94.66C202.22 93.57 203.09 92.66 203.89 91.59C205.5 89.59 207.17 87.59 208.89 85.59C212.27 81.66 215.7 77.77 219.44 74.12C219.535 74.0384 219.656 73.9925 219.781 73.9902C219.907 73.9879 220.029 74.0294 220.127 74.1075C220.226 74.1855 220.293 74.2954 220.32 74.4181C220.346 74.5408 220.328 74.6688 220.27 74.78C217.57 79.25 214.56 83.48 211.5 87.67C209.96 89.75 208.4 91.82 206.8 93.86C205.99 94.86 205.25 95.94 204.35 96.86C203.408 97.8677 202.244 98.6416 200.95 99.12C200.793 99.172 200.623 99.1615 200.474 99.0907C200.325 99.0199 200.209 98.8943 200.15 98.74C200.111 98.662 200.087 98.5771 200.08 98.49Z" fill="#1FA29E"/>
<path d="M202.667 133.898L196.095 139.63L196.785 140.421L203.358 134.69L202.667 133.898Z" fill="#1FA29E"/>
<path d="M194.84 125.025L192.061 137.428L193.086 137.657L195.865 125.255L194.84 125.025Z" fill="#1FA29E"/>
<path d="M185.052 134.529L184.286 135.247L187.943 139.152L188.709 138.434L185.052 134.529Z" fill="#1FA29E"/>
<path d="M262.06 371.29H253.55L252.51 351.59H261.01L262.06 371.29Z" fill="#7F3E3B"/>
<path d="M304.96 371.29H296.45L293.12 351.59H301.62L304.96 371.29Z" fill="#7F3E3B"/>
<path d="M295.9 370.3H305.45C305.617 370.298 305.779 370.355 305.907 370.461C306.035 370.567 306.121 370.716 306.15 370.88L307.47 378.44C307.497 378.629 307.484 378.822 307.43 379.005C307.376 379.188 307.283 379.358 307.158 379.502C307.033 379.646 306.878 379.762 306.704 379.841C306.53 379.92 306.341 379.961 306.15 379.96C302.82 379.9 301.21 379.7 297 379.7C294.42 379.7 287.45 379.97 283.88 379.97C280.31 379.97 280.01 376.44 281.48 376.12C288.11 374.69 292.3 372.71 294.48 370.83C294.874 370.488 295.378 370.3 295.9 370.3Z" fill="#263238"/>
<path d="M253.34 370.3H262.62C262.787 370.298 262.949 370.355 263.077 370.461C263.205 370.567 263.291 370.716 263.32 370.88L264.64 378.44C264.671 378.628 264.66 378.82 264.608 379.004C264.557 379.187 264.466 379.357 264.342 379.501C264.219 379.646 264.065 379.762 263.892 379.841C263.719 379.921 263.53 379.961 263.34 379.96C260 379.9 255.16 379.7 250.95 379.7C246.03 379.7 244.78 379.97 239 379.97C235.51 379.97 234.71 376.44 236.19 376.12C242.91 374.67 245.34 374.51 251.25 370.97C251.873 370.561 252.595 370.329 253.34 370.3Z" fill="#263238"/>
<path d="M253.07 106.41L241.45 103C241.45 103 229.61 131.13 225.6 133C220.15 135.5 205.6 143.17 199.44 146.79C199.02 148.18 199.01 151.99 199.68 153.09C209.77 152.29 230.47 145.44 234.45 141.62C243.53 132.9 253.07 106.41 253.07 106.41Z" fill="#7F3E3B"/>
<path d="M256.59 101.1C259.89 108.46 237.23 140.74 237.23 140.74L226.23 129.32C226.23 129.32 235.96 104.89 241.23 95.5201C246.61 85.8901 253 93.0001 256.59 101.1Z" fill="#1FA29E"/>
<path opacity="0.4" d="M256.59 101.1C259.89 108.46 237.23 140.74 237.23 140.74L226.23 129.32C226.23 129.32 235.96 104.89 241.23 95.5201C246.61 85.8901 253 93.0001 256.59 101.1Z" fill="white"/>
<path d="M225.43 128.31C224.74 128.72 223.26 131.41 222.93 132.75C222.6 134.09 230.34 144.43 233.35 144.01C236.36 143.59 239.8 140.66 240.42 139.08C241.04 137.5 226.88 127.46 225.43 128.31Z" fill="#1FA29E"/>
<path d="M200.73 146.15L193.73 144.87L194.15 154.87C194.15 154.87 196.61 155.87 201.91 152.59L200.73 146.15Z" fill="#7F3E3B"/>
<path d="M185.27 148.2L186.55 154.35L194.1 154.91L193.68 144.88L185.27 148.2Z" fill="#7F3E3B"/>
<path opacity="0.2" d="M252.51 351.6L253.05 361.75H261.55L261.02 351.6H252.51Z" fill="black"/>
<path opacity="0.2" d="M301.63 351.6H293.12L294.84 361.75H303.35L301.63 351.6Z" fill="black"/>
<path d="M245.78 91.06C245.78 91.06 234.43 120.28 241.69 168.11H287.18C287.82 161.11 285.18 123.52 293.45 90.62C288.451 89.6452 283.394 89.0005 278.31 88.69C271.869 88.3198 265.411 88.3198 258.97 88.69C254.519 89.1428 250.11 89.9351 245.78 91.06Z" fill="#1FA29E"/>
<path opacity="0.2" d="M245.78 91.06C245.78 91.06 234.43 120.28 241.69 168.11H287.18C287.82 161.11 285.18 123.52 293.45 90.62C288.451 89.6452 283.394 89.0005 278.31 88.69C271.869 88.3198 265.411 88.3198 258.97 88.69C254.519 89.1428 250.11 89.9351 245.78 91.06Z" fill="black"/>
<path opacity="0.2" d="M283.18 98.74C282.18 104.16 283.25 117.11 287.7 132.08C288.242 119.228 289.915 106.448 292.7 93.89V93.83C289.68 93.52 284.15 93.66 283.18 98.74Z" fill="black"/>
<path d="M276.65 70.6101C275.13 76.8301 274.16 84.5401 278.31 88.6901C278.31 88.6901 275.51 95.0101 263.95 95.0101C253.38 95.0101 258.95 88.6901 258.95 88.6901C265.95 87.0401 266.02 78.4601 265.04 73.6201L276.65 70.6101Z" fill="#7F3E3B"/>
<path d="M264 95.0001C270.81 97.1301 272.16 99.3101 272.16 99.3101C272.16 99.3101 280.65 95.8601 280.33 88.3801C279.299 87.6177 278.185 86.9736 277.01 86.4601C277.01 86.4601 276.29 92.0001 264 95.0001Z" fill="#1FA29E"/>
<path d="M264 95C260.18 95.36 257 98.63 257 98.63C257 98.63 254.57 96.08 256.9 88.68C256.9 88.68 259.17 87.91 261.05 87.51C261 87.52 259.47 93.4 264 95Z" fill="#1FA29E"/>
<path opacity="0.2" d="M265.06 73.6301C265.64 76.4601 265.86 80.6301 264.52 83.8401C265.613 83.661 266.674 83.3241 267.67 82.8401C271.67 81.0001 273.73 78.0901 275.95 73.8401C276.15 72.7301 276.39 71.6501 276.65 70.6101L265.06 73.6301Z" fill="black"/>
<path d="M263.71 50.7301C260.99 51.6201 254.91 56.8401 260.71 59.4701C266.51 62.1001 268.45 49.1901 263.71 50.7301Z" fill="#263238"/>
<path d="M282.06 63.0001C279.41 71.1601 278.27 76.0001 273.06 79.4001C265.23 84.4001 256.18 78.4001 256.39 69.7801C256.57 61.9701 260.87 49.9401 269.68 48.3901C278.49 46.8401 284.71 54.8701 282.06 63.0001Z" fill="#7F3E3B"/>
<path d="M269.28 54.07C264.78 54.83 261.03 54.59 259.67 50.85C258.31 47.11 264.5 43.19 268.77 44.95C271.92 41.67 280.52 44.19 281.63 47.34C286.63 47.02 291.36 52.78 287.97 55.73C288.737 56.2064 289.385 56.8513 289.865 57.6156C290.345 58.3799 290.645 59.2436 290.741 60.1411C290.838 61.0386 290.728 61.9462 290.421 62.7951C290.114 63.644 289.618 64.4117 288.97 65.04C290.43 69.38 285.17 73.71 281.02 71.95C276.93 70.73 274.7 71.73 274.13 69.09C273.56 66.45 275 63.9 278.48 63.39C276.72 61.29 276.29 57.97 277.48 56.54C273.27 58.45 269.82 56.05 269.28 54.07Z" fill="#263238"/>
<path d="M263.88 71.6601C264.676 71.7269 265.476 71.6358 266.237 71.3921C266.997 71.1484 267.702 70.7569 268.31 70.2401C268.347 70.201 268.368 70.1491 268.368 70.0951C268.368 70.0411 268.347 69.9892 268.31 69.9501C268.292 69.9307 268.271 69.9152 268.246 69.9046C268.222 69.894 268.196 69.8885 268.17 69.8885C268.144 69.8885 268.118 69.894 268.094 69.9046C268.069 69.9152 268.048 69.9307 268.03 69.9501C267.363 70.5035 266.579 70.8989 265.737 71.1067C264.896 71.3145 264.018 71.3294 263.17 71.1501C263.117 71.1411 263.063 71.1526 263.018 71.1824C262.974 71.2121 262.942 71.2578 262.93 71.3101C262.923 71.3351 262.921 71.3615 262.924 71.3874C262.928 71.4132 262.937 71.438 262.952 71.4598C262.966 71.4817 262.985 71.5002 263.007 71.5141C263.029 71.528 263.054 71.5368 263.08 71.5401C263.344 71.5936 263.612 71.6336 263.88 71.6601Z" fill="#263238"/>
<path d="M282.53 74.27C280.828 75.5991 278.678 76.2189 276.53 76C273.74 75.69 273.53 72.94 275.28 70.86C276.86 68.98 280.22 66.86 282.55 68.24C284.88 69.62 284.62 72.61 282.53 74.27Z" fill="#7F3E3B"/>
<path d="M271.59 168.11C271.59 168.11 270.43 178.81 268.95 193.3C267.25 209.73 265.14 231.06 263.8 247.3C263.8 247.38 263.8 247.45 263.8 247.52C263.54 250.61 263.31 253.52 263.12 256.14C261.22 282.65 264.62 359.77 264.62 359.77H250.2C250.2 359.77 236.92 281.07 237.25 254.09C237.56 228.16 241.68 168.09 241.68 168.09L271.59 168.11Z" fill="#1FA29E"/>
<path d="M265.8 354.14C265.87 354.14 265.55 360.08 265.55 360.08H248.94L248.52 353.56L265.8 354.14Z" fill="#263238"/>
<path opacity="0.2" d="M269 193.3C267.3 209.73 265.19 231.06 263.85 247.3C263.85 247.38 263.85 247.45 263.85 247.52C260.68 232.11 259.69 212.95 260.92 181.4L269 193.3Z" fill="black"/>
<path d="M257.82 168.11C257.82 168.11 264.46 229.57 268.59 253.92C273.12 280.59 291 359.78 291 359.78H306.58C306.58 359.78 296.08 282.78 294.02 256.34C291.8 227.68 287.21 168.11 287.21 168.11H257.82Z" fill="#1FA29E"/>
<path d="M306.77 354.5C306.84 354.5 307.31 360.08 307.31 360.08H290.19L288.94 353.85L306.77 354.5Z" fill="#263238"/>
<path d="M267.93 62.6401C267.75 63.3101 267.26 63.7801 266.83 63.6401C266.4 63.5001 266.19 62.9201 266.36 62.2501C266.53 61.5801 267.03 61.1101 267.46 61.2501C267.89 61.3901 268.1 62.0001 267.93 62.6401Z" fill="#263238"/>
<path d="M260.45 61.0001C260.27 61.6701 259.78 62.1401 259.35 62.0001C258.92 61.8601 258.71 61.2901 258.88 60.6101C259.05 59.9301 259.55 59.4701 259.98 59.6101C260.41 59.7501 260.62 60.3301 260.45 61.0001Z" fill="#263238"/>
<path d="M263.94 61.8601C262.616 63.7445 261.053 65.4488 259.29 66.9301C260.17 68.2901 262.29 68.2201 262.29 68.2201L263.94 61.8601Z" fill="#630F0F"/>
<path d="M272 60.68C271.941 60.6643 271.886 60.6355 271.839 60.5957C271.792 60.5559 271.755 60.5061 271.73 60.45C271.554 59.9876 271.267 59.5758 270.894 59.2512C270.52 58.9267 270.072 58.6996 269.59 58.59C269.538 58.583 269.488 58.5652 269.443 58.5377C269.398 58.5102 269.359 58.4737 269.329 58.4304C269.299 58.3872 269.278 58.3381 269.268 58.2864C269.258 58.2347 269.258 58.1814 269.27 58.13C269.29 58.0238 269.349 57.9292 269.437 57.8658C269.524 57.8025 269.633 57.7754 269.74 57.79C270.355 57.9159 270.928 58.1943 271.407 58.5997C271.885 59.0052 272.255 59.5245 272.48 60.11C272.518 60.2112 272.516 60.3229 272.476 60.423C272.435 60.5231 272.358 60.6041 272.26 60.65C272.179 60.6889 272.088 60.6995 272 60.68Z" fill="#263238"/>
<path d="M259 57.5801C258.946 57.5575 258.895 57.5272 258.85 57.4901C258.812 57.4528 258.782 57.4085 258.762 57.3595C258.741 57.3106 258.731 57.2581 258.731 57.2051C258.731 57.152 258.741 57.0995 258.762 57.0506C258.782 57.0016 258.812 56.9573 258.85 56.9201C259.273 56.4297 259.806 56.047 260.406 55.8036C261.006 55.5601 261.655 55.4629 262.3 55.5201C262.352 55.5271 262.402 55.5449 262.447 55.5724C262.492 55.5999 262.531 55.6364 262.561 55.6797C262.591 55.7229 262.612 55.772 262.622 55.8237C262.632 55.8754 262.632 55.9286 262.62 55.9801C262.598 56.0852 262.538 56.1783 262.451 56.2412C262.364 56.3042 262.257 56.3323 262.15 56.3201C261.637 56.2821 261.123 56.3656 260.649 56.5637C260.174 56.7617 259.753 57.0688 259.42 57.4601C259.367 57.5149 259.3 57.5548 259.226 57.5759C259.152 57.5969 259.074 57.5984 259 57.5801Z" fill="#263238"/>
<path d="M298.49 102.23L287.75 108.73C287.75 108.73 299.75 134.73 299.68 139.1C299.48 147.26 302.99 164.95 302.04 174.27C303.36 174.74 307.04 174.85 308.2 174.2C310.33 165.77 313.28 143.62 312.43 138.07C310.57 126 298.49 102.23 298.49 102.23Z" fill="#7F3E3B"/>
<path d="M293.45 90.62C301.45 91.79 312.85 132.39 312.85 132.39L298.05 138C298.05 138 285.16 116 282 106.11C278.6 95.79 284.88 89.36 293.45 90.62Z" fill="#1FA29E"/>
<path opacity="0.4" d="M293.45 90.62C301.45 91.79 312.85 132.39 312.85 132.39L298.05 138C298.05 138 285.16 116 282 106.11C278.6 95.79 284.88 89.36 293.45 90.62Z" fill="white"/>
<path d="M293 371.79C292.428 371.84 291.857 371.684 291.39 371.35C291.241 371.221 291.129 371.055 291.064 370.869C290.999 370.683 290.984 370.484 291.02 370.29C291.026 370.171 291.064 370.056 291.129 369.955C291.194 369.855 291.284 369.774 291.39 369.72C292.39 369.24 295.02 370.92 295.32 371.12C295.353 371.14 295.379 371.171 295.393 371.207C295.408 371.243 295.41 371.283 295.4 371.32C295.39 371.359 295.37 371.394 295.342 371.422C295.314 371.45 295.279 371.47 295.24 371.48C294.508 371.67 293.756 371.774 293 371.79ZM291.83 370C291.74 369.994 291.651 370.012 291.57 370.05C291.528 370.072 291.493 370.105 291.468 370.145C291.443 370.186 291.43 370.233 291.43 370.28C291.405 370.414 291.413 370.551 291.455 370.681C291.497 370.81 291.571 370.927 291.67 371.02C292.11 371.41 293.22 371.46 294.67 371.17C293.812 370.592 292.846 370.194 291.83 370Z" fill="#1FA29E"/>
<path d="M295.2 371.49C295.171 371.499 295.139 371.499 295.11 371.49C294.25 371.02 292.64 369.15 292.87 368.2C292.907 368.053 292.992 367.922 293.112 367.828C293.231 367.734 293.378 367.682 293.53 367.68C293.681 367.66 293.835 367.672 293.982 367.715C294.128 367.758 294.264 367.831 294.38 367.93C295.33 368.74 295.38 371.2 295.38 371.3C295.38 371.337 295.371 371.374 295.354 371.407C295.336 371.441 295.311 371.469 295.28 371.49C295.254 371.494 295.227 371.494 295.2 371.49ZM293.65 368H293.56C293.3 368 293.27 368.15 293.26 368.2C293.12 368.76 294.14 370.2 294.98 370.83C294.977 369.874 294.672 368.943 294.11 368.17C293.983 368.059 293.819 367.998 293.65 368Z" fill="#1FA29E"/>
<path d="M249.73 371.79C249.007 371.858 248.283 371.674 247.68 371.27C247.548 371.143 247.449 370.985 247.391 370.811C247.334 370.637 247.32 370.451 247.35 370.27C247.362 370.158 247.401 370.05 247.464 369.956C247.526 369.862 247.611 369.784 247.71 369.73C248.77 369.15 252.11 370.89 252.49 371.09C252.526 371.111 252.554 371.142 252.57 371.18C252.586 371.218 252.59 371.26 252.58 371.3C252.572 371.342 252.552 371.381 252.522 371.412C252.491 371.442 252.452 371.463 252.41 371.47C251.528 371.657 250.631 371.765 249.73 371.79ZM248.27 370C248.14 369.993 248.009 370.017 247.89 370.07C247.851 370.093 247.818 370.125 247.794 370.163C247.77 370.202 247.755 370.245 247.75 370.29C247.73 370.408 247.739 370.529 247.778 370.643C247.816 370.756 247.882 370.859 247.97 370.94C248.47 371.4 249.86 371.48 251.76 371.17C250.673 370.58 249.492 370.185 248.27 370Z" fill="#1FA29E"/>
<path d="M252.38 371.49H252.29C251.29 371.03 249.29 369.19 249.54 368.23C249.54 368 249.77 367.72 250.32 367.67C250.517 367.645 250.717 367.662 250.907 367.721C251.097 367.779 251.272 367.878 251.42 368.01C252.42 368.9 252.58 371.19 252.59 371.29C252.589 371.326 252.58 371.361 252.562 371.392C252.545 371.424 252.52 371.45 252.49 371.47C252.457 371.491 252.418 371.498 252.38 371.49ZM250.46 368H250.34C249.98 368 249.95 368.18 249.94 368.22C249.82 368.8 251.13 370.22 252.15 370.87C252.099 369.914 251.749 368.997 251.15 368.25C250.96 368.082 250.713 367.993 250.46 368Z" fill="#1FA29E"/>
<path d="M327.649 182.488L276.532 189.155C274.292 189.447 272.713 191.499 273.005 193.739L277.358 227.116C277.65 229.356 279.703 230.935 281.943 230.643L333.06 223.977C335.3 223.685 336.879 221.632 336.586 219.393L332.234 186.015C331.942 183.775 329.889 182.196 327.649 182.488Z" fill="#263238"/>
<path opacity="0.3" d="M327.649 182.488L276.532 189.155C274.292 189.447 272.713 191.499 273.005 193.739L277.358 227.116C277.65 229.356 279.703 230.935 281.943 230.643L333.06 223.977C335.3 223.685 336.879 221.632 336.586 219.393L332.234 186.015C331.942 183.775 329.889 182.196 327.649 182.488Z" fill="black"/>
<path d="M299.69 193.52C298.835 193.52 298.005 193.235 297.33 192.71C296.513 192.08 295.978 191.153 295.84 190.13L294.94 183.19C294.874 182.684 294.908 182.171 295.041 181.678C295.174 181.186 295.402 180.725 295.713 180.321C296.024 179.917 296.412 179.578 296.854 179.324C297.296 179.07 297.784 178.905 298.29 178.84L309.84 177.33C310.862 177.197 311.896 177.475 312.713 178.103C313.531 178.731 314.066 179.658 314.2 180.68L315.11 187.62C315.238 188.641 314.958 189.672 314.331 190.488C313.704 191.305 312.78 191.841 311.76 191.98L300.2 193.48C300.031 193.503 299.861 193.517 299.69 193.52ZM310.35 179.52H310.14L298.58 181.03C298.368 181.057 298.164 181.126 297.979 181.232C297.794 181.338 297.632 181.48 297.502 181.649C297.372 181.818 297.276 182.011 297.221 182.218C297.166 182.424 297.152 182.639 297.18 182.85L298.08 189.79C298.139 190.219 298.366 190.607 298.71 190.87C298.879 191 299.072 191.095 299.278 191.15C299.484 191.205 299.699 191.219 299.91 191.19L311.46 189.69C311.888 189.63 312.275 189.405 312.539 189.063C312.802 188.721 312.921 188.289 312.87 187.86L312 181C311.973 180.788 311.904 180.583 311.798 180.398C311.692 180.213 311.55 180.05 311.38 179.92C311.089 179.683 310.725 179.553 310.35 179.55V179.52Z" fill="#263238"/>
<path d="M332.517 181.855L281.4 188.521C279.16 188.813 277.581 190.866 277.873 193.106L282.226 226.483C282.518 228.723 284.57 230.302 286.81 230.01L337.927 223.344C340.167 223.052 341.746 220.999 341.454 218.759L337.102 185.382C336.809 183.142 334.757 181.563 332.517 181.855Z" fill="#263238"/>
<path d="M302.52 172.87L299.26 179.22L308.82 179.66C309.51 178.273 309.761 176.709 309.539 175.177C309.318 173.644 308.634 172.215 307.58 171.08L302.52 172.87Z" fill="#7F3E3B"/>
<path d="M302.91 184.14L308.61 183.36L308.82 179.66L299.26 179.22L299.41 181.29C299.439 181.712 299.554 182.124 299.749 182.5C299.944 182.876 300.213 183.207 300.542 183.474C300.87 183.742 301.249 183.939 301.657 184.053C302.064 184.168 302.491 184.197 302.91 184.14Z" fill="#7F3E3B"/>
<path d="M295.82 135.69C295.67 136.47 296.73 139.36 297.51 140.48C298.29 141.6 311.19 142.59 312.85 140.05C314.51 137.51 314.58 132.99 313.79 131.48C313 129.97 296.13 134 295.82 135.69Z" fill="#1FA29E"/>
<path d="M107.38 104.48C105.77 106.59 104.02 108.9 102.38 111.17C100.74 113.44 99.16 115.75 97.65 118.09C94.6216 122.58 92.0075 127.337 89.84 132.3C89.59 132.89 89.36 133.48 89.16 134.07C89.0533 134.363 88.9533 134.653 88.86 134.94L88.72 135.38L88.66 135.59V135.65C88.4769 136.416 88.4396 137.21 88.55 137.99C88.895 140.506 89.4879 142.981 90.32 145.38C92.03 150.55 94.32 155.88 96.57 161.05L91.46 164.29C87.6262 159.559 84.3075 154.434 81.56 149C80.0464 146.067 78.8947 142.961 78.13 139.75C77.6334 137.673 77.5519 135.519 77.89 133.41L77.97 132.93L78.05 132.61L78.2 131.99C78.29 131.58 78.39 131.17 78.51 130.77C78.73 129.96 78.97 129.18 79.23 128.4C81.3215 122.516 84.0511 116.879 87.37 111.59C88.97 109 90.61 106.46 92.37 104.01C94.13 101.56 95.87 99.18 97.9 96.74L107.38 104.48Z" fill="#263238"/>
<path d="M95.22 159.2L100.48 161.99L94.48 169.08C94.48 169.08 90.7 166.52 90.48 162.62L95.22 159.2Z" fill="#FFC3BD"/>
<path d="M107.56 166.36L101.08 171.51L94.43 169.08L100.48 161.99L107.56 166.36Z" fill="#FFC3BD"/>
<path d="M186.18 144L192.4 147.21L191.85 149.45L186.85 154.45C186.85 154.45 183.25 151.65 183.33 147.75L186.18 144Z" fill="#FFC3BD"/>
<path d="M187.08 144.88L192.78 143.81L196.44 145.37L194 145.78L192.4 147.23L187.08 144.88Z" fill="#FFC3BD"/>
<path d="M198.63 155.19L192.45 156.52C191.802 156.657 191.127 156.576 190.53 156.29L186.82 154.49L191.82 149.49L195.13 148.49L199.27 153.24C199.399 153.399 199.486 153.587 199.523 153.788C199.56 153.989 199.546 154.196 199.482 154.39C199.419 154.584 199.307 154.759 199.158 154.899C199.009 155.038 198.828 155.139 198.63 155.19Z" fill="#FFC3BD"/>
<path d="M130.17 63.9399C130.31 64.6099 130.77 65.0799 131.17 64.9399C131.57 64.7999 131.85 64.2299 131.72 63.5599C131.59 62.8899 131.11 62.4199 130.72 62.5599C130.33 62.6999 130 63.2699 130.17 63.9399Z" fill="#263238"/>
<path d="M130.71 65.09C131.927 66.9787 133.397 68.6913 135.08 70.18C134.08 71.53 132 71.43 132 71.43L130.71 65.09Z" fill="#FF5652"/>
<path d="M127 60.7099C126.9 60.7058 126.804 60.6669 126.73 60.5999C126.656 60.5235 126.615 60.4213 126.615 60.3149C126.615 60.2086 126.656 60.1064 126.73 60.0299C127.153 59.5514 127.684 59.181 128.278 58.9496C128.873 58.7182 129.515 58.6326 130.15 58.6999C130.243 58.7301 130.322 58.7927 130.374 58.8763C130.425 58.9599 130.444 59.059 130.428 59.1557C130.413 59.2524 130.363 59.3402 130.288 59.4034C130.213 59.4665 130.118 59.5008 130.02 59.4999C129.517 59.4531 129.009 59.5266 128.54 59.7144C128.07 59.9021 127.652 60.1988 127.32 60.5799C127.28 60.6247 127.231 60.6597 127.175 60.6823C127.12 60.7048 127.06 60.7143 127 60.7099Z" fill="#263238"/>
<path d="M112 75.7899C113.16 81.6899 113.85 89.8599 109.73 93.7899C109.73 93.7899 111.34 99.7899 122.3 99.7899C134.36 99.7899 128.1 94.5299 128.1 94.5299C123.1 92.9799 123.1 87.2699 124.28 82.6899L112 75.7899Z" fill="#FFC3BD"/>
<path d="M108 97.8299C107 96.2499 107.33 91.4599 108.53 90.6799C110.45 89.4199 118.37 89.5599 128.88 92.6299C127.46 97.2099 129.77 99.7899 129.77 99.7899L108 97.8299Z" fill="#1FA29E"/>
<path opacity="0.2" d="M99.2 106.32C95.45 110.02 94.36 117.6 94.77 122.77C95.69 121.2 96.67 119.63 97.68 118.1C99.19 115.75 100.8 113.46 102.42 111.16C102.87 110.53 103.33 109.89 103.8 109.25C103.89 108.84 103.97 108.43 104.05 108.03L99.2 106.32Z" fill="black"/>
<path d="M72.64 370C73.2951 370.229 74.0139 370.189 74.64 369.89C74.7608 369.78 74.8442 369.635 74.8782 369.476C74.9123 369.316 74.8955 369.15 74.83 369C74.793 368.877 74.7301 368.764 74.6456 368.667C74.5611 368.57 74.4569 368.493 74.34 368.44C73.25 367.92 70.74 368.94 70.64 368.98C70.6056 368.994 70.576 369.017 70.5546 369.047C70.5333 369.077 70.5213 369.113 70.52 369.15C70.5185 369.187 70.5281 369.225 70.5477 369.257C70.5673 369.289 70.5959 369.314 70.63 369.33C71.2744 369.624 71.9482 369.848 72.64 370ZM73.96 368.71L74.18 368.78C74.2495 368.81 74.3114 368.856 74.3615 368.913C74.4116 368.97 74.4487 369.037 74.47 369.11C74.57 369.45 74.47 369.56 74.4 369.6C73.97 369.97 72.4 369.6 71.23 369.17C72.1038 368.797 73.0514 368.63 74 368.68L73.96 368.71Z" fill="#1FA29E"/>
<path d="M70.68 369.32H70.77C71.69 369.06 73.64 367.67 73.66 366.76C73.6632 366.616 73.616 366.475 73.5266 366.362C73.4371 366.249 73.311 366.17 73.17 366.14C73.0319 366.088 72.8841 366.068 72.7372 366.08C72.5902 366.092 72.4477 366.136 72.32 366.21C71.25 366.76 70.57 368.99 70.54 369.08C70.5251 369.109 70.5173 369.142 70.5173 369.175C70.5173 369.208 70.5251 369.241 70.54 369.27C70.579 369.303 70.6288 369.321 70.68 369.32ZM72.96 366.46H73.05C73.28 366.54 73.28 366.66 73.28 366.71C73.28 367.25 71.98 368.33 71.03 368.77C71.285 367.887 71.7967 367.101 72.5 366.51C72.5756 366.468 72.659 366.442 72.7449 366.434C72.8308 366.425 72.9176 366.434 73 366.46H72.96Z" fill="#1FA29E"/>
<path d="M132.19 371.32C133.19 371.32 134.19 371.18 134.56 370.71C134.646 370.588 134.692 370.444 134.692 370.295C134.692 370.146 134.646 370.001 134.56 369.88C134.424 369.656 134.204 369.494 133.95 369.43C132.61 369.07 129.79 370.67 129.67 370.74C129.635 370.759 129.607 370.788 129.591 370.825C129.575 370.861 129.571 370.901 129.58 370.94C129.585 370.979 129.603 371.015 129.63 371.044C129.656 371.072 129.691 371.092 129.73 371.1C130.542 371.243 131.365 371.317 132.19 371.32ZM133.47 369.76C133.593 369.744 133.717 369.744 133.84 369.76C133.917 369.776 133.99 369.809 134.054 369.855C134.118 369.902 134.171 369.961 134.21 370.03C134.35 370.27 134.3 370.38 134.21 370.45C133.84 370.97 131.8 370.98 130.3 370.77C131.282 370.233 132.358 369.89 133.47 369.76Z" fill="#1FA29E"/>
<path d="M129.75 371.1H129.83C130.83 370.67 132.73 368.92 132.59 368.01C132.59 367.79 132.4 367.53 131.88 367.47C131.69 367.453 131.499 367.473 131.317 367.529C131.135 367.586 130.966 367.678 130.82 367.8C129.82 368.65 129.57 370.8 129.56 370.91C129.559 370.943 129.566 370.975 129.58 371.004C129.594 371.034 129.614 371.06 129.64 371.08C129.674 371.097 129.712 371.104 129.75 371.1ZM131.75 367.83H131.87C132.21 367.83 132.23 368 132.24 368.04C132.33 368.59 131.02 369.96 130.03 370.55C130.119 369.634 130.489 368.767 131.09 368.07C131.266 367.919 131.489 367.835 131.72 367.83H131.75Z" fill="#1FA29E"/>
<path d="M120.89 370.91H128.95L129.75 352.23H121.69L120.89 370.91Z" fill="#FFC3BD"/>
<path d="M61.83 367.46L69.61 369.11L76.67 351.24L68.89 349.59L61.83 367.46Z" fill="#FFC3BD"/>
<path d="M70.33 368.09L61.47 366.17C61.315 366.137 61.1535 366.158 61.0118 366.229C60.8702 366.3 60.7567 366.416 60.69 366.56L57.61 373.23C57.5357 373.393 57.4992 373.571 57.5034 373.75C57.5075 373.93 57.5521 374.106 57.6338 374.265C57.7156 374.425 57.8323 374.564 57.9754 374.672C58.1185 374.78 58.2841 374.855 58.46 374.89C61.57 375.5 63.11 375.65 67 376.49C69.4 377.01 74.81 378.33 78.12 379.04C81.43 379.75 82.56 376.58 81.27 375.99C75.49 373.35 73.07 370.99 71.5 368.85C71.2177 368.46 70.8007 368.189 70.33 368.09Z" fill="#263238"/>
<path d="M128.9 370H120.09C119.93 370.002 119.776 370.057 119.651 370.157C119.526 370.256 119.438 370.395 119.4 370.55L117.81 377.72C117.771 377.893 117.771 378.073 117.812 378.247C117.852 378.42 117.931 378.582 118.042 378.72C118.154 378.859 118.295 378.97 118.456 379.046C118.616 379.122 118.792 379.161 118.97 379.16C122.15 379.1 126.74 378.92 130.73 378.92C135.4 378.92 137.06 379.17 142.53 379.17C145.84 379.17 146.76 375.83 145.38 375.52C139.07 374.14 136.29 373.99 130.84 370.63C130.263 370.247 129.592 370.029 128.9 370Z" fill="#263238"/>
<path opacity="0.2" d="M129.75 352.24L129.34 361.86H121.27L121.68 352.24H129.75Z" fill="black"/>
<path opacity="0.2" d="M68.89 349.59L76.67 351.24L73.03 360.45L65.25 358.81L68.89 349.59Z" fill="black"/>
<path d="M126.66 165.75C126.66 165.75 117.5 227.39 112.48 250.48C106.98 275.77 77.48 359.48 77.48 359.48L63 356.3C63 356.3 83.64 288.12 88.25 252.77C91.8 225.62 98.79 165.77 98.79 165.77L126.66 165.75Z" fill="#263238"/>
<path opacity="0.1" d="M126.66 165.75C126.66 165.75 117.5 227.39 112.48 250.48C106.98 275.77 77.48 359.48 77.48 359.48L63 356.3C63 356.3 83.64 288.12 88.25 252.77C91.8 225.62 98.79 165.77 98.79 165.77L126.66 165.75Z" fill="white"/>
<path d="M80.93 354.61C80.99 354.61 78.24 359.83 78.24 359.83L62 356.31L63.37 351.43L80.93 354.61Z" fill="#263238"/>
<path opacity="0.3" d="M120.87 187.71C110.29 189.79 111.41 229.26 112.68 249.56C115.68 235.21 120.2 207.56 123.26 188C122.518 187.639 121.677 187.537 120.87 187.71Z" fill="black"/>
<path d="M142 165.75C142 165.75 143.11 226.05 142.23 250.65C141.32 276.23 132.39 360 132.39 360H118.68C118.68 360 118.18 277.73 117.57 252.6C116.91 225.21 113.57 165.75 113.57 165.75H142Z" fill="#263238"/>
<path opacity="0.1" d="M142 165.75C142 165.75 143.11 226.05 142.23 250.65C141.32 276.23 132.39 360 132.39 360H118.68C118.68 360 118.18 277.73 117.57 252.6C116.91 225.21 113.57 165.75 113.57 165.75H142Z" fill="white"/>
<path d="M135 354.56C135.06 354.56 134.22 360.23 134.22 360.23H117.58L117.13 355.17L135 354.56Z" fill="#263238"/>
<path d="M143.06 103.71C144.71 112.43 147.77 136.79 142.99 172.23L96.31 171.51C96.04 165.32 100.96 131.72 96.41 101.89C96.2832 101.044 96.3262 100.181 96.5365 99.3516C96.7469 98.5223 97.1204 97.7432 97.6352 97.0599C98.1501 96.3765 98.7959 95.8026 99.535 95.3717C100.274 94.9407 101.092 94.6614 101.94 94.5499C104.3 94.2299 107.04 93.9299 109.74 93.7999C115.845 93.4497 121.965 93.4497 128.07 93.7999C130.07 93.9899 132.07 94.2799 133.85 94.5899C136.129 94.9976 138.229 96.088 139.874 97.7167C141.519 99.3454 142.63 101.436 143.06 103.71Z" fill="#263238"/>
<path opacity="0.2" d="M144.34 112.37L136.48 114.32C135.88 121.66 140.72 129.97 145.56 136.32C145.609 128.32 145.202 120.324 144.34 112.37Z" fill="black"/>
<path d="M141.11 99.7899C142.44 102.18 143.88 104.79 145.36 107.22C146.84 109.65 148.36 112.14 149.89 114.54C152.838 119.256 156.184 123.712 159.89 127.86C160.35 128.33 160.8 128.81 161.26 129.25L161.6 129.58L161.87 129.82C162.02 129.98 162.28 130.16 162.47 130.33C163.39 131.05 164.47 131.81 165.66 132.54C168.01 133.99 170.53 135.41 173.09 136.78C178.21 139.53 183.51 142.23 188.74 144.96L186.67 150.65C180.752 149.233 174.924 147.46 169.22 145.34C166.36 144.27 163.49 143.11 160.62 141.7C159.094 140.973 157.614 140.151 156.19 139.24C155.8 138.96 155.43 138.74 155.01 138.41L154.41 137.95L153.92 137.54C153.25 137 152.64 136.44 152.02 135.88C149.658 133.677 147.452 131.311 145.42 128.8C143.42 126.37 141.55 123.8 139.78 121.31C138.01 118.82 136.33 116.18 134.78 113.53C133.23 110.88 131.69 108.28 130.25 105.4L141.11 99.7899Z" fill="#263238"/>
<path d="M107.49 67.0599C109.67 75.1999 110.49 80.0599 115.56 83.4599C123.12 88.5599 132.56 82.7099 132.82 74.0799C133.08 66.3199 129.47 54.3099 120.74 52.6699C118.815 52.2964 116.827 52.4216 114.964 53.0336C113.102 53.6457 111.426 54.7242 110.098 56.1665C108.77 57.6089 107.833 59.3671 107.377 61.2738C106.92 63.1806 106.959 65.1725 107.49 67.0599Z" fill="#FFC3BD"/>
<path d="M124.4 67.1599C126.34 64.3099 127.08 59.9299 125.72 57.8199C126.99 58.3499 136.15 58.9799 132.56 52.4599C128.97 45.9399 121.77 44.1399 115.5 45.9399L118.55 46.8199C118.55 46.8199 109.98 46.1999 105.81 49.6699C107.08 49.7399 108.18 49.6699 108.18 49.6699C108.18 49.6699 99 53.9999 103 57.2899C96.55 62.1999 100.92 68.9999 111.54 79.1399C113.39 80.8099 118.63 80.1999 119.79 79.1999C119.05 74.7799 123.31 68.7799 124.4 67.1599Z" fill="#263238"/>
<path d="M125.48 61.61C127.38 63 129.73 67.09 130.82 69.13C131.91 71.17 133.06 70.91 133.61 71.72C134.16 72.53 136.41 86.23 134 88.42C131.59 90.61 124.34 87.15 123.39 84.63C122.44 82.11 124.18 75.93 124.65 74.52C125.144 72.0846 125 69.5628 124.23 67.2C123.39 64.81 125.48 61.61 125.48 61.61Z" fill="#263238"/>
<path d="M121.2 67.5399C121.459 68.5371 121.915 69.4723 122.542 70.2899C123.169 71.1075 123.954 71.791 124.85 72.2999C127.06 73.2999 127.33 70.7299 126.9 68.2999C126.51 66.0899 125.9 64.2999 124.11 63.4399C122 62.3499 120.47 65.1199 121.2 67.5399Z" fill="#FFC3BD"/>
</svg>
